<?xml version="1.0" encoding="UTF-8" standalone="no"?> <svg width="64" height="64" viewBox="0 0 64 64" fill="none" xmlns="http://www.w3.org/2000/svg">
<path d="M18 22.77V11C18 8.87827 18.8429 6.84344 20.3431 5.34315C21.8434 3.84285 23.8783 3 26 3H30C31.5913 3 33.1174 3.63214 34.2426 4.75736C35.3679 5.88258 36 7.4087 36 9C36 8.20435 36.3161 7.44129 36.8787 6.87868C37.4413 6.31607 38.2044 6 39 6H40C41.5913 6 43.1174 6.63214 44.2426 7.75736C45.3679 8.88258 46 10.4087 46 12V22.77H18Z" fill="#58595B"/>
<path d="M44 28C44.7956 28 45.5587 27.6839 46.1213 27.1213C46.6839 26.5587 47 25.7956 47 25C47 24.2044 46.6839 23.4413 46.1213 22.8787C45.5587 22.3161 44.7956 22 44 22H42V28H44Z" fill="#FFC3B4"/>
<path d="M20 22C19.2044 22 18.4413 22.3161 17.8787 22.8787C17.3161 23.4413 17 24.2044 17 25C17 25.7956 17.3161 26.5587 17.8787 27.1213C18.4413 27.6839 19.2044 28 20 28H22V22H20Z" fill="#FFC3B4"/>
<path d="M41 43H39C38.4701 42.9985 37.9623 42.7872 37.5875 42.4125C37.2128 42.0378 37.0016 41.53 37 41V37.66C35.4798 38.5377 33.7554 38.9998 32 38.9998C30.2446 38.9998 28.5202 38.5377 27 37.66V41C26.9984 41.53 26.7872 42.0378 26.4125 42.4125C26.0377 42.7872 25.5299 42.9985 25 43H23C23 45.387 23.9482 47.6762 25.636 49.364C27.3239 51.0518 29.6131 52 32 52C34.3869 52 36.6761 51.0518 38.364 49.364C40.0518 47.6762 41 45.387 41 43Z" fill="#FFC3B4"/>
<path d="M41 43C41 45.3869 40.0518 47.6761 38.364 49.364C36.6761 51.0518 34.3869 52 32 52C29.6131 52 27.3239 51.0518 25.636 49.364C23.9482 47.6761 23 45.3869 23 43C18.7565 43 14.6869 44.6857 11.6863 47.6863C8.68571 50.6869 7 54.7565 7 59V61H57V59C57 54.7565 55.3143 50.6869 52.3137 47.6863C49.3131 44.6857 45.2435 43 41 43V43Z" fill="#ED1C24"/>
<path d="M41 43C41 45.3869 40.0518 47.6761 38.364 49.364C36.6761 51.0518 34.3869 52 32 52C29.6131 52 27.3239 51.0518 25.636 49.364C23.9482 47.6761 23 45.3869 23 43C18.7565 43 14.6869 44.6857 11.6863 47.6863C8.68571 50.6869 7 54.7565 7 59V61H7.05C7.25537 57.6961 8.48004 54.5372 10.5554 51.9583C12.6307 49.3794 15.4545 47.5073 18.638 46.6C19.6084 46.3114 20.652 46.4015 21.5586 46.8521C22.4652 47.3027 23.1671 48.0802 23.523 49.028C24.1468 50.777 25.2963 52.2903 26.814 53.3603C28.3316 54.4303 30.1431 55.0047 32 55.0047C33.8569 55.0047 35.6684 54.4303 37.186 53.3603C38.7037 52.2903 39.8532 50.777 40.477 49.028C40.8329 48.0802 41.5348 47.3027 42.4414 46.8521C43.348 46.4015 44.3916 46.3114 45.362 46.6C48.5455 47.5073 51.3693 49.3794 53.4446 51.9583C55.52 54.5372 56.7446 57.6961 56.95 61H57V59C57 54.7565 55.3143 50.6869 52.3137 47.6863C49.3131 44.6857 45.2435 43 41 43V43Z" fill="#D80027"/>
<path d="M42 19V29C42 31.6522 40.9464 34.1957 39.0711 36.0711C37.1957 37.9464 34.6522 39 32 39C29.3478 39 26.8043 37.9464 24.9289 36.0711C23.0536 34.1957 22 31.6522 22 29V19C22.0016 18.4701 22.2128 17.9623 22.5875 17.5875C22.9623 17.2128 23.4701 17.0016 24 17H40C40.5299 17.0016 41.0377 17.2128 41.4125 17.5875C41.7872 17.9623 41.9984 18.4701 42 19Z" fill="#FFCBBE"/>
<path d="M35.9999 30C35.8087 30 35.6214 29.9451 35.4604 29.8419C35.2994 29.7387 35.1713 29.5915 35.0914 29.4177C35.0115 29.2439 34.9831 29.0508 35.0096 28.8614C35.0361 28.672 35.1164 28.4942 35.2409 28.349L41.2409 21.349C41.4165 21.159 41.6588 21.0444 41.9171 21.0293C42.1753 21.0142 42.4294 21.0998 42.6259 21.2681C42.8224 21.4363 42.946 21.6742 42.9708 21.9317C42.9956 22.1892 42.9197 22.4463 42.7589 22.649L36.7589 29.649C36.6652 29.7588 36.5489 29.847 36.4179 29.9076C36.2869 29.9682 36.1443 29.9997 35.9999 30V30Z" fill="#BDDBFF"/>
<path d="M27.9999 30.0001C27.8557 30 27.7132 29.9688 27.5822 29.9086C27.4512 29.8484 27.3348 29.7605 27.2409 29.6511L21.2409 22.6511C21.0802 22.4484 21.0042 22.1913 21.029 21.9338C21.0538 21.6763 21.1775 21.4384 21.374 21.2701C21.5704 21.1019 21.8245 21.0163 22.0827 21.0314C22.341 21.0465 22.5834 21.161 22.7589 21.3511L28.7589 28.3511C28.8828 28.4963 28.9625 28.6739 28.9887 28.863C29.0149 29.0521 28.9863 29.2448 28.9065 29.4182C28.8267 29.5916 28.6989 29.7385 28.5383 29.8416C28.3776 29.9447 28.1908 29.9997 27.9999 30.0001Z" fill="#BDDBFF"/>
<path d="M24.6599 35.7899L26.9999 27.9999L31.2599 26.2999C31.735 26.11 32.2649 26.11 32.7399 26.2999L36.9999 27.9999L39.3399 35.7899C38.4259 36.7777 37.3219 37.5708 36.0941 38.1217C34.8663 38.6726 33.54 38.9701 32.1945 38.9962C30.849 39.0224 29.5121 38.7767 28.2638 38.2739C27.0155 37.771 25.8816 37.0214 24.9299 36.0699C24.8399 35.9799 24.7499 35.8899 24.6599 35.7899Z" fill="#D1E7F8"/>
<path d="M30 32H34C34.2652 32 34.5196 31.8946 34.7071 31.7071C34.8946 31.5196 35 31.2652 35 31C35 30.7348 34.8946 30.4804 34.7071 30.2929C34.5196 30.1054 34.2652 30 34 30H30C29.7348 30 29.4804 30.1054 29.2929 30.2929C29.1054 30.4804 29 30.7348 29 31C29 31.2652 29.1054 31.5196 29.2929 31.7071C29.4804 31.8946 29.7348 32 30 32Z" fill="#BDDBFF"/>
<path d="M36 34C36 33.7348 35.8946 33.4804 35.7071 33.2929C35.5196 33.1054 35.2652 33 35 33H29C28.7348 33 28.4804 33.1054 28.2929 33.2929C28.1054 33.4804 28 33.7348 28 34C28 34.2652 28.1054 34.5196 28.2929 34.7071C28.4804 34.8946 28.7348 35 29 35H35C35.2652 35 35.5196 34.8946 35.7071 34.7071C35.8946 34.5196 36 34.2652 36 34Z" fill="#BDDBFF"/>
<path d="M45 54C44.7348 54 44.4804 54.1054 44.2929 54.2929C44.1054 54.4804 44 54.7348 44 55V61H46V55C46 54.7348 45.8946 54.4804 45.7071 54.2929C45.5196 54.1054 45.2652 54 45 54Z" fill="#D80027"/>
<path d="M19 54C18.7348 54 18.4804 54.1054 18.2929 54.2929C18.1054 54.4804 18 54.7348 18 55V61H20V55C20 54.7348 19.8946 54.4804 19.7071 54.2929C19.5196 54.1054 19.2652 54 19 54Z" fill="#D80027"/>
<path d="M36 23C35.7348 23 35.4804 23.1054 35.2929 23.2929C35.1054 23.4804 35 23.7348 35 24V25C35 25.2652 35.1054 25.5196 35.2929 25.7071C35.4804 25.8946 35.7348 26 36 26C36.2652 26 36.5196 25.8946 36.7071 25.7071C36.8946 25.5196 37 25.2652 37 25V24C37 23.7348 36.8946 23.4804 36.7071 23.2929C36.5196 23.1054 36.2652 23 36 23Z" fill="#58595B"/>
<path d="M29 25V24C29 23.7348 28.8946 23.4804 28.7071 23.2929C28.5196 23.1054 28.2652 23 28 23C27.7348 23 27.4804 23.1054 27.2929 23.2929C27.1054 23.4804 27 23.7348 27 24V25C27 25.2652 27.1054 25.5196 27.2929 25.7071C27.4804 25.8946 27.7348 26 28 26C28.2652 26 28.5196 25.8946 28.7071 25.7071C28.8946 25.5196 29 25.2652 29 25Z" fill="#58595B"/>
<path d="M35 23H38C38.2652 23 38.5196 22.8946 38.7071 22.7071C38.8946 22.5196 39 22.2652 39 22C39 21.7348 38.8946 21.4804 38.7071 21.2929C38.5196 21.1054 38.2652 21 38 21H35C34.7348 21 34.4804 21.1054 34.2929 21.2929C34.1054 21.4804 34 21.7348 34 22C34 22.2652 34.1054 22.5196 34.2929 22.7071C34.4804 22.8946 34.7348 23 35 23Z" fill="#6D6E71"/>
<path d="M30 22C30 21.7348 29.8946 21.4804 29.7071 21.2929C29.5196 21.1054 29.2652 21 29 21H26C25.7348 21 25.4804 21.1054 25.2929 21.2929C25.1054 21.4804 25 21.7348 25 22C25 22.2652 25.1054 22.5196 25.2929 22.7071C25.4804 22.8946 25.7348 23 26 23H29C29.2652 23 29.5196 22.8946 29.7071 22.7071C29.8946 22.5196 30 22.2652 30 22Z" fill="#6D6E71"/>
</svg>
