<?xml version="1.0" encoding="UTF-8" standalone="no"?> <svg width="512" height="512" viewBox="0 0 512 512" fill="none" xmlns="http://www.w3.org/2000/svg">
<path d="M296 344L443.882 417.941C452.558 422.279 460.052 428.655 465.724 436.524C471.395 444.393 475.074 453.519 476.446 463.121L480 488H32L35.554 463.121C36.9258 453.519 40.605 444.393 46.2764 436.524C51.9479 428.655 59.4425 422.279 68.118 417.941L216 344H296Z" fill="#EAEAE8"/>
<path d="M304 368H208V488H304V368Z" fill="#B0D2FD"/>
<path d="M216 312V344L208 368H256H304L296 344V312H216Z" fill="#FDC9A6"/>
<path d="M360 200V126.325C360 112.031 354.321 98.3219 344.214 88.214L327.786 71.786C317.678 61.6786 303.969 56.0003 289.675 56H236.844C227.971 56.0004 219.236 58.1911 211.413 62.3778C203.59 66.5645 196.922 72.6176 192 80V80L182.536 83.155C173.115 86.2952 165.009 92.4861 159.5 100.749C154.61 108.085 152 116.705 152 125.522V200H360Z" fill="#55300B"/>
<path d="M296 312V331.64C295.92 331.7 295.83 331.75 295.75 331.81C283.973 339.784 270.071 344.031 255.849 344.001C241.627 343.971 227.743 339.664 216 331.64V312H296Z" fill="#E6AF89"/>
<path d="M256 328C241.831 328 227.986 323.754 216.253 315.81C204.52 307.866 195.436 296.589 190.173 283.433V283.433C180.81 260.026 176 235.047 176 209.837V152L200 111.27L205.114 115.455C227.674 133.915 255.926 144 285.076 144H336V209.837C336.001 235.049 331.19 260.029 321.827 283.437C316.564 296.592 307.48 307.869 295.746 315.812C284.013 323.755 270.169 328 256 328V328Z" fill="#FDC9A6"/>
<path d="M304 184C303.139 184 302.285 183.86 301.469 183.587L277.469 175.587C276.463 175.263 275.531 174.742 274.727 174.055C273.923 173.368 273.264 172.529 272.786 171.586C272.309 170.642 272.023 169.614 271.946 168.56C271.868 167.505 272.001 166.446 272.335 165.443C272.669 164.44 273.199 163.513 273.894 162.716C274.588 161.92 275.434 161.268 276.382 160.8C277.33 160.332 278.361 160.056 279.416 159.989C280.471 159.922 281.529 160.065 282.529 160.409L306.529 168.409C308.332 169.009 309.863 170.231 310.847 171.857C311.831 173.482 312.205 175.405 311.9 177.281C311.596 179.157 310.634 180.863 309.186 182.094C307.739 183.325 305.9 184.001 304 184Z" fill="#55300B"/>
<path d="M290 212C295.523 212 300 207.523 300 202C300 196.477 295.523 192 290 192C284.477 192 280 196.477 280 202C280 207.523 284.477 212 290 212Z" fill="#55300B"/>
<path d="M208 184C206.1 184.001 204.261 183.325 202.813 182.094C201.366 180.863 200.404 179.157 200.099 177.281C199.795 175.405 200.168 173.482 201.153 171.857C202.137 170.231 203.668 169.009 205.471 168.409L229.471 160.409C230.47 160.065 231.528 159.922 232.583 159.989C233.638 160.056 234.67 160.332 235.618 160.8C236.566 161.268 237.411 161.92 238.106 162.716C238.801 163.513 239.33 164.44 239.665 165.443C239.999 166.446 240.131 167.505 240.054 168.56C239.976 169.614 239.691 170.642 239.213 171.586C238.736 172.529 238.076 173.368 237.273 174.055C236.469 174.742 235.537 175.263 234.531 175.587L210.531 183.587C209.715 183.86 208.86 183.999 208 184V184Z" fill="#55300B"/>
<path d="M222 212C227.523 212 232 207.523 232 202C232 196.477 227.523 192 222 192C216.477 192 212 196.477 212 202C212 207.523 216.477 212 222 212Z" fill="#55300B"/>
<path d="M246.111 280H240C237.878 280 235.843 279.157 234.343 277.657C232.843 276.157 232 274.122 232 272C232 269.878 232.843 267.843 234.343 266.343C235.843 264.843 237.878 264 240 264H246.111C256.632 263.988 267.006 261.539 276.422 256.845C277.363 256.365 278.389 256.077 279.442 255.996C280.494 255.915 281.553 256.043 282.556 256.373C283.559 256.703 284.486 257.228 285.285 257.918C286.084 258.608 286.739 259.45 287.211 260.394C287.683 261.338 287.964 262.367 288.037 263.42C288.11 264.473 287.973 265.531 287.635 266.531C287.298 267.531 286.765 268.455 286.069 269.249C285.373 270.042 284.526 270.69 283.578 271.155C271.94 276.957 259.115 279.984 246.111 280V280Z" fill="#E6AF89"/>
<path d="M264 248H248C245.878 248 243.843 247.157 242.343 245.657C240.843 244.157 240 242.122 240 240V216C240 213.878 240.843 211.843 242.343 210.343C243.843 208.843 245.878 208 248 208C250.122 208 252.157 208.843 253.657 210.343C255.157 211.843 256 213.878 256 216V232H264C266.122 232 268.157 232.843 269.657 234.343C271.157 235.843 272 237.878 272 240C272 242.122 271.157 244.157 269.657 245.657C268.157 247.157 266.122 248 264 248Z" fill="#E6AF89"/>
<path d="M176 176H164.944C159.389 176 154.062 178.207 150.134 182.134C146.207 186.062 144 191.389 144 196.944V211.056C144 214.307 144.757 217.514 146.211 220.422V220.422C147.95 223.901 150.624 226.827 153.933 228.872C157.242 230.917 161.054 232 164.944 232H184L176 176Z" fill="#FDC9A6"/>
<path d="M336 176H347.056C352.611 176 357.938 178.207 361.866 182.134C365.793 186.062 368 191.389 368 196.944V211.056C368 214.307 367.243 217.514 365.789 220.422V220.422C364.05 223.901 361.376 226.827 358.067 228.872C354.758 230.917 350.946 232 347.056 232H328L336 176Z" fill="#FDC9A6"/>
<path d="M72 488V456C72 453.878 72.8429 451.843 74.3431 450.343C75.8434 448.843 77.8783 448 80 448C82.1217 448 84.1566 448.843 85.6569 450.343C87.1571 451.843 88 453.878 88 456V488H72Z" fill="#CBCBCB"/>
<path d="M424 488V456C424 453.878 424.843 451.843 426.343 450.343C427.843 448.843 429.878 448 432 448C434.122 448 436.157 448.843 437.657 450.343C439.157 451.843 440 453.878 440 456V488H424Z" fill="#CBCBCB"/>
<path d="M224 392L240 424H272L288 392L256 368L224 392Z" fill="#0296E5"/>
<path d="M240 424L232 488H280L272 424H240Z" fill="#0296E5"/>
<path d="M274 440H238L240 424H272L274 440Z" fill="#0296E5"/>
<path d="M256 368L200 408L184 360L208 336L256 368Z" fill="#B0D2FD"/>
<path d="M256 368L312 408L328 360L304 336L256 368Z" fill="#B0D2FD"/>
<path d="M274 440H238L240 424H272L274 440Z" fill="#026CA2"/>
</svg>
