<?xml version="1.0" encoding="utf-8"?>
<!-- Generator: Adobe Illustrator 24.3.0, SVG Export Plug-In . SVG Version: 6.00 Build 0)  -->
<svg version="1.1" id="Layer_1" xmlns="http://www.w3.org/2000/svg" xmlns:xlink="http://www.w3.org/1999/xlink" x="0px" y="0px"
	 viewBox="0 0 64 64" enable-background="new 0 0 64 64" xml:space="preserve">
<path fill="#4A3B1C" d="M13.1,25.8C10.3,25.8,5,24.8,5,22v0c0-2.8,2.2-5,5-5l9,2.1c5.2,1.2,10.7,1.2,16,0l9-2.1c2.8,0,5,2.2,5,5v0
	c0,2.8-6.4,3.8-9.1,3.8"/>
<polygon fill="#1A326E" points="35,41 31,49 31,62 46,62 44,44 39,42 35,39 "/>
<path fill="#162A5C" d="M37.2,54.2c1.9-3.4,3.2-8.3,3.8-11.4L39,42l-4-3v2l-4,8v2l4.8,3.5C36.3,54.9,37,54.7,37.2,54.2z"/>
<polygon fill="#1A326E" points="19,41 23,49 23,62 8,62 10,44 15,42 19,39 "/>
<path fill="#1A326E" d="M19,41l4,8l-5,2.2c-2-3-3-9.1-3-9.1l4-3.1V41z"/>
<path fill="#1A326E" d="M35,41l-4,8l5,2.2c2-3,3-9.1,3-9.1L35,39V41z"/>
<path fill="#FCE0B9" d="M35,19.1c-5.2,1.2-10.7,1.2-16,0l-3-0.7V25c0,4.7,2.9,8.6,7,10.2c1.2,0.5,2.6,0.8,4,0.8s2.8-0.3,4-0.8
	c4.1-1.6,7-5.6,7-10.2v-6.6L35,19.1z"/>
<path fill="#806631" d="M40,13.8l-1.4-3.4l-2.1-5.1C36.2,4,35,3,33.6,3H20.4c-1.4,0-2.6,1-2.9,2.4L14,13.8L10,17l1.6,0.4l4.4,1
	l3,0.7c5.2,1.2,10.7,1.2,16,0l3-0.7l3.4-0.8L44,17L40,13.8z"/>
<path fill="#FCA947" d="M50,33h-1h-2.1c-2.4,0-4.2,2.1-4,4.4l0.6,5.5l1.7,15.4c0.2,1.5,1.4,2.7,3,2.7h0.6c1.5,0,2.8-1.2,3-2.7
	L54,37.4C54.2,35.1,52.4,33,50,33z"/>
<path fill="#F98600" d="M46.5,45.9l-0.6-5.5c-0.3-2.4,1.6-4.4,4-4.4H52h1c0.3,0,0.6,0,0.9,0.1c-0.4-1.8-2-3.1-3.9-3.1h-1h-2.1
	c-2.4,0-4.2,2.1-4,4.4l0.6,5.5l1.7,15.4c0.2,1.5,1.4,2.7,3,2.7L46.5,45.9z"/>
<rect x="23" y="50" fill="#D0382A" width="8" height="12"/>
<path fill="#FCE0B9" d="M31,35.2c-1.2,0.5-2.6,0.8-4,0.8s-2.8-0.3-4-0.8V39h-4v2l4,8v1h8v-1l4-8v-2h-4V35.2z"/>
<path fill="#FAD3AC" d="M19,19.1l-3-0.7v5.3c3.2,0.8,6.9,1.3,11,1.3s7.8-0.5,11-1.3v-5.3l-3,0.7C29.7,20.4,24.3,20.4,19,19.1z"/>
<path fill="#5E4B24" d="M18.4,5h13.1c1.4,0,2.6,1,2.9,2.4l2.1,5.1l1.4,3.4l2.6,2l0.8-0.2L44,17l-4-3.2l-1.4-3.4l-2.1-5.1
	C36.2,4,35,3,33.6,3H20.4c-1.3,0-2.4,0.9-2.8,2.1C17.9,5,18.1,5,18.4,5z"/>
<ellipse fill="#5E4C2D" cx="22" cy="26.5" rx="1" ry="1.5"/>
<ellipse fill="#5E4C2D" cx="32" cy="26.5" rx="1" ry="1.5"/>
<circle fill="#FFFFFF" cx="22.5" cy="26.5" r="0.5"/>
<circle fill="#FFFFFF" cx="32.5" cy="26.5" r="0.5"/>
<path fill="#FF9575" d="M27,34c1.7,0,3-1.3,3-3h-6C24,32.7,25.3,34,27,34z"/>
<path fill="#FFFFFF" d="M29.8,32c0.1-0.3,0.2-0.6,0.2-1h-6c0,0.4,0.1,0.7,0.2,1H29.8z"/>
<path fill="#2B2210" d="M28,21c0.6-0.4,1.1-0.7,1.6-1.1c-3.5,0.3-7.1,0-10.5-0.8l-3-0.7l-1.3-0.3l0,0l-3.1-0.7
	c-0.1,1.9,0.1,3.9,0.7,5.8l2.7,8.7h-5c-1.7,0-3,1.3-3,3c0,0,0,0,0,0.1c0,0,0,0,0,0.1c0,1.4,0.9,2.5,2.2,2.9H9c-3.3,0-6,2.7-6,6
	c0,3.2,2.4,5.7,5.5,6c0,0,1.5,6.1,5.5,6.1h2c4,0.1,7-2,7-6.1c0-3.3-3.7-6-7-6L15,44v-2l4-3h4v-3.8c-4.1-1.6-7-5.6-7-10.2v-1.1
	C18.9,23.7,24.5,23.1,28,21z"/>
<path fill="#2B2210" d="M41.5,18.6l-0.1-1L38,18.4l-3,0.7c-0.4,0.1-0.8,0.2-1.2,0.2c0.4,1.3,1.1,2.6,2.2,3.6c0.8,0.8,1.5,1,2,0.9V25
	c0,1.4-0.3,2.8-0.8,4h0C40.3,26.4,41.8,22.5,41.5,18.6z"/>
<path fill="#3D3017" d="M10.5,49.9C7.4,49.6,5,47,5,43.9c0-3.3,2.7-6,6-6h0.2C9.9,37.5,9,36.4,9,35c0,0,0,0,0-0.1c0,0,0,0,0-0.1
	c0-1.7,1.3-3,3-3h-2c-1.7,0-3,1.3-3,3c0,0,0,0,0,0.1c0,0,0,0,0,0.1c0,1.4,0.9,2.5,2.2,2.9H9c-3.3,0-6,2.7-6,6c0,3.2,2.4,5.7,5.5,6
	c0,0,1.5,6.1,5.5,6.1h2C12,56,10.5,49.9,10.5,49.9z"/>
<path fill="#FAD3AC" d="M31,35.2c-1.2,0.5-2.6,0.8-4,0.8s-2.8-0.3-4-0.8v2.1c1.3,0.4,2.6,0.6,4,0.6s2.7-0.2,4-0.6V35.2z"/>
<path fill="#B02F24" d="M31,62h-8V50l0.8,3.8C24.5,57.6,27.3,60.8,31,62L31,62z"/>
<path fill="#B89246" d="M40,13.8l-1.2-2.9l-7.4,1.3c-2.9,0.5-5.9,0.5-8.8-0.1l-7.3-1.5L14,13.8l-0.7,0.5l8.5,1.7
	c1.8,0.4,3.6,0.5,5.4,0.5c1.6,0,3.2-0.1,4.8-0.4l8.8-1.6L40,13.8z"/>
<rect x="38" y="56" fill="#162A5C" width="2" height="6"/>
<rect x="14" y="56" fill="#162A5C" width="2" height="6"/>
<path fill="#7FB556" d="M62,21.8c-0.1-0.7-0.6-1.1-1.5-1.4c-2.1-0.7-4.4,0.2-5.7,2.1l-4.3,6.5c0.3-2.2,0.7-5,1.1-7.8l0.2-0.5
	c1.2-1.5,7.3-9.4,6.2-12.9c-0.3-0.8-0.9-1.3-1.6-1.3c-1.4-0.1-2.8,1.3-4.3,4.2c-0.8,1.5-1.6,4.9-2.5,10.3c-1,5.8-1.6,12-1.6,12.1
	c-0.1,0.5,0.2,0.9,0.7,1c0.1,0,0.2,0.1,0.3,0.1c0.3,0,0.6-0.2,0.8-0.4l3.8-5.7C56.5,26.9,62.4,24.6,62,21.8z"/>
<path fill="#F98600" d="M47,40h-1c-0.6,0-1-0.4-1-1l0,0c0-0.6,0.4-1,1-1h1c0.6,0,1,0.4,1,1l0,0C48,39.6,47.6,40,47,40z"/>
<path fill="#F98600" d="M51,44h-2c-0.6,0-1-0.4-1-1l0,0c0-0.6,0.4-1,1-1h2c0.6,0,1,0.4,1,1l0,0C52,43.6,51.6,44,51,44z"/>
<path fill="#F98600" d="M48,50h-2c-0.6,0-1-0.4-1-1l0,0c0-0.6,0.4-1,1-1h2c0.6,0,1,0.4,1,1l0,0C49,49.6,48.6,50,48,50z"/>
<path fill="#F98600" d="M49,54L49,54c-0.6,0-1-0.4-1-1l0,0c0-0.6,0.4-1,1-1l0,0c0.6,0,1,0.4,1,1l0,0C50,53.6,49.6,54,49,54z"/>
<polygon fill="#99793A" points="36.2,11.4 36.6,12.4 37.7,15.1 41,14.6 40,13.8 38.8,10.9 "/>
<path fill="#618A41" d="M54.8,22.5l-4,6c-0.1,0.7-0.2,1.4-0.3,2l4.3-6.5c1.3-1.9,3.6-2.7,5.7-2.1c0.6,0.2,1.1,0.5,1.3,0.9
	c0.2-0.4,0.2-0.8,0.2-1.1c-0.1-0.7-0.6-1.1-1.5-1.4C58.4,19.7,56.1,20.6,54.8,22.5z"/>
<path fill="#8FCC61" d="M49.7,22.5c0.9-5.4,1.7-8.7,2.5-10.3C53.5,9.3,55,7.9,56.4,8c0.7,0.1,1.3,0.5,1.6,1.3c0,0.1,0,0.2,0.1,0.3
	c0.1-0.7,0.1-1.4-0.1-1.9c-0.3-0.8-0.9-1.3-1.6-1.3c-1.4-0.1-2.8,1.3-4.3,4.2c-0.8,1.5-1.6,4.9-2.5,10.3c-1,5.8-1.6,12-1.6,12.1
	c0,0.2,0,0.4,0.1,0.6C48.4,31.5,48.9,26.9,49.7,22.5z"/>
</svg>
