<?xml version="1.0" encoding="UTF-8" standalone="no"?> <svg width="512" height="512" viewBox="0 0 512 512" fill="none" xmlns="http://www.w3.org/2000/svg">
<path d="M173 264H156C150.696 264 145.609 261.893 141.858 258.142C138.107 254.391 136 249.304 136 244V244C136 238.696 138.107 233.609 141.858 229.858C145.609 226.107 150.696 224 156 224H173V264Z" fill="#E6AF89"/>
<path d="M340 224H356C361.304 224 366.391 226.107 370.142 229.858C373.893 233.609 376 238.696 376 244V244C376 249.304 373.893 254.391 370.142 258.142C366.391 261.893 361.304 264 356 264H340V224Z" fill="#E6AF89"/>
<path d="M306.181 397.241C301.18 392.413 297.203 386.627 294.487 380.229C291.77 373.831 290.37 366.951 290.369 360V344H221.631V360C221.631 366.931 220.239 373.791 217.537 380.174C214.836 386.557 210.881 392.332 205.906 397.158L256 456L306.181 397.241Z" fill="#F6BB92"/>
<path d="M318.991 406.311C314.284 403.957 309.965 400.898 306.181 397.241L256 456L205.906 397.158C202.101 400.853 197.75 403.94 193.006 406.311V406.311C161.748 421.94 142.588 446.474 144.078 481.39L144.702 488H367.3L367.924 481.39C369.41 446.474 350.249 421.94 318.991 406.311Z" fill="#91A666"/>
<path d="M192 464V488H176V464C176 461.878 176.843 459.843 178.343 458.343C179.843 456.843 181.878 456 184 456C186.122 456 188.157 456.843 189.657 458.343C191.157 459.843 192 461.878 192 464Z" fill="#91A666"/>
<path d="M336 464V488H320V464C320 461.878 320.843 459.843 322.343 458.343C323.843 456.843 325.878 456 328 456C330.122 456 332.157 456.843 333.657 458.343C335.157 459.843 336 461.878 336 464Z" fill="#91A666"/>
<path d="M296.17 383.83L288 392H224L215.82 383.82C219.639 376.461 221.632 368.291 221.63 360V344H290.37V360C290.369 368.293 292.358 376.465 296.17 383.83V383.83Z" fill="#E6AF89"/>
<path d="M304 88C321.673 88 336 73.6731 336 56C336 38.3269 321.673 24 304 24C286.327 24 272 38.3269 272 56C272 73.6731 286.327 88 304 88Z" fill="#8F5528"/>
<path d="M369.765 133.293C364.321 116.961 354.844 102.266 342.212 90.5686C329.581 78.8715 314.202 70.5502 297.5 66.3751C270.253 59.5634 241.747 59.5634 214.5 66.3751C197.799 70.5505 182.42 78.8719 169.789 90.5691C157.157 102.266 147.681 116.961 142.237 133.293C137.751 146.752 136.112 160.998 137.425 175.124C138.738 189.251 142.973 202.95 149.863 215.352V215.352C155.36 225.247 163.403 233.492 173.159 239.232C182.915 244.973 194.029 248 205.348 248H306.648C317.968 248 329.081 244.973 338.837 239.233C348.593 233.492 356.637 225.247 362.134 215.352C369.024 202.95 373.261 189.251 374.575 175.125C375.888 160.998 374.25 146.753 369.765 133.293V133.293Z" fill="#A3612D"/>
<path d="M264 61.45V137.94C260.757 132.234 258.078 126.226 256 120C253.922 126.226 251.243 132.234 248 137.94V61.45C250.67 61.32 253.33 61.26 256 61.26C258.67 61.26 261.33 61.32 264 61.45Z" fill="#A3612D"/>
<path d="M192 464V488H176V464C176 461.878 176.843 459.843 178.343 458.343C179.843 456.843 181.878 456 184 456C186.122 456 188.157 456.843 189.657 458.343C191.157 459.843 192 461.878 192 464Z" fill="#768753"/>
<path d="M336 464V488H320V464C320 461.878 320.843 459.843 322.343 458.343C323.843 456.843 325.878 456 328 456C330.122 456 332.157 456.843 333.657 458.343C335.157 459.843 336 461.878 336 464Z" fill="#768753"/>
<path d="M256 120C251.032 134.904 242.663 148.446 231.554 159.554C220.446 170.663 206.904 179.032 192 184C185.011 186.33 178.932 190.799 174.625 196.776C170.317 202.753 168 209.933 168 217.3V328L224 384H288L344 328V217.3C344 209.933 341.683 202.753 337.375 196.776C333.068 190.799 326.989 186.33 320 184V184C305.096 179.032 291.554 170.663 280.446 159.554C269.337 148.446 260.968 134.904 256 120V120Z" fill="#F6BB92"/>
<path d="M302 244C307.523 244 312 239.523 312 234C312 228.477 307.523 224 302 224C296.477 224 292 228.477 292 234C292 239.523 296.477 244 302 244Z" fill="#7A4922"/>
<path d="M206 244C211.523 244 216 239.523 216 234C216 228.477 211.523 224 206 224C200.477 224 196 228.477 196 234C196 239.523 200.477 244 206 244Z" fill="#7A4922"/>
<path d="M344 280L320 296L296 280H216L192 296L168 288V328L224 384H288L344 328V280Z" fill="#A3612D"/>
<path d="M272 288H240C237.878 288 235.843 287.157 234.343 285.657C232.843 284.157 232 282.122 232 280V240C232 237.878 232.843 235.843 234.343 234.343C235.843 232.843 237.878 232 240 232C242.122 232 244.157 232.843 245.657 234.343C247.157 235.843 248 237.878 248 240V272H264V264C264 261.878 264.843 259.843 266.343 258.343C267.843 256.843 269.878 256 272 256C274.122 256 276.157 256.843 277.657 258.343C279.157 259.843 280 261.878 280 264V280C280 282.122 279.157 284.157 277.657 285.657C276.157 287.157 274.122 288 272 288Z" fill="#7A4922"/>
<path d="M240 304H272V310.111C272 313.082 271.173 315.995 269.61 318.523C268.048 321.051 265.813 323.093 263.155 324.422V324.422C260.934 325.533 258.484 326.112 256 326.112C253.516 326.112 251.066 325.533 248.845 324.422V324.422C246.187 323.093 243.952 321.051 242.39 318.523C240.827 315.995 240 313.082 240 310.111V304Z" fill="#CB2527"/>
<path d="M269.4 318.83C267.856 321.217 265.702 323.147 263.16 324.42C260.937 325.531 258.486 326.11 256 326.11C253.515 326.11 251.063 325.531 248.84 324.42C246.298 323.147 244.144 321.217 242.6 318.83C251.194 315.35 260.806 315.35 269.4 318.83Z" fill="#CB2527"/>
<path d="M216 328C213.878 328 211.843 327.157 210.343 325.657C208.843 324.157 208 322.122 208 320V312C208 309.878 208.843 307.843 210.343 306.343C211.843 304.843 213.878 304 216 304C218.122 304 220.157 304.843 221.657 306.343C223.157 307.843 224 309.878 224 312V320C224 322.122 223.157 324.157 221.657 325.657C220.157 327.157 218.122 328 216 328Z" fill="#8F5528"/>
<path d="M200 352C197.878 352 195.843 351.157 194.343 349.657C192.843 348.157 192 346.122 192 344V336C192 333.878 192.843 331.843 194.343 330.343C195.843 328.843 197.878 328 200 328C202.122 328 204.157 328.843 205.657 330.343C207.157 331.843 208 333.878 208 336V344C208 346.122 207.157 348.157 205.657 349.657C204.157 351.157 202.122 352 200 352Z" fill="#8F5528"/>
<path d="M232 360C229.878 360 227.843 359.157 226.343 357.657C224.843 356.157 224 354.122 224 352V344C224 341.878 224.843 339.843 226.343 338.343C227.843 336.843 229.878 336 232 336C234.122 336 236.157 336.843 237.657 338.343C239.157 339.843 240 341.878 240 344V352C240 354.122 239.157 356.157 237.657 357.657C236.157 359.157 234.122 360 232 360Z" fill="#8F5528"/>
<path d="M256 376C253.878 376 251.843 375.157 250.343 373.657C248.843 372.157 248 370.122 248 368V360C248 357.878 248.843 355.843 250.343 354.343C251.843 352.843 253.878 352 256 352C258.122 352 260.157 352.843 261.657 354.343C263.157 355.843 264 357.878 264 360V368C264 370.122 263.157 372.157 261.657 373.657C260.157 375.157 258.122 376 256 376Z" fill="#8F5528"/>
<path d="M280 360C277.878 360 275.843 359.157 274.343 357.657C272.843 356.157 272 354.122 272 352V344C272 341.878 272.843 339.843 274.343 338.343C275.843 336.843 277.878 336 280 336C282.122 336 284.157 336.843 285.657 338.343C287.157 339.843 288 341.878 288 344V352C288 354.122 287.157 356.157 285.657 357.657C284.157 359.157 282.122 360 280 360Z" fill="#8F5528"/>
<path d="M296 336C293.878 336 291.843 335.157 290.343 333.657C288.843 332.157 288 330.122 288 328V320C288 317.878 288.843 315.843 290.343 314.343C291.843 312.843 293.878 312 296 312C298.122 312 300.157 312.843 301.657 314.343C303.157 315.843 304 317.878 304 320V328C304 330.122 303.157 332.157 301.657 333.657C300.157 335.157 298.122 336 296 336Z" fill="#8F5528"/>
<path d="M320 336C317.878 336 315.843 335.157 314.343 333.657C312.843 332.157 312 330.122 312 328V320C312 317.878 312.843 315.843 314.343 314.343C315.843 312.843 317.878 312 320 312C322.122 312 324.157 312.843 325.657 314.343C327.157 315.843 328 317.878 328 320V328C328 330.122 327.157 332.157 325.657 333.657C324.157 335.157 322.122 336 320 336Z" fill="#8F5528"/>
<path d="M181.019 160C179.191 160.002 177.418 159.378 175.994 158.232C174.57 157.086 173.581 155.487 173.193 153.7C172.804 151.914 173.039 150.049 173.858 148.415C174.677 146.781 176.031 145.476 177.695 144.719L180.922 143.248C194.209 137.165 205.104 126.847 211.9 113.91C212.884 112.03 214.574 110.617 216.598 109.983C218.623 109.349 220.817 109.545 222.697 110.529C224.577 111.512 225.99 113.202 226.624 115.227C227.258 117.252 227.062 119.446 226.078 121.326C217.629 137.412 204.084 150.243 187.563 157.809L184.335 159.279C183.294 159.755 182.163 160.001 181.019 160V160Z" fill="#8F5528"/>
<path d="M330 160C328.856 160 327.727 159.753 326.687 159.277L323.46 157.807C306.939 150.242 293.393 137.411 284.944 121.324C283.96 119.444 283.764 117.25 284.398 115.225C285.032 113.2 286.445 111.51 288.325 110.527C290.205 109.544 292.399 109.347 294.424 109.981C296.448 110.615 298.139 112.028 299.122 113.908C305.917 126.846 316.811 137.165 330.098 143.248L333.323 144.719C334.987 145.476 336.341 146.78 337.16 148.414C337.979 150.048 338.214 151.914 337.826 153.7C337.437 155.486 336.449 157.085 335.025 158.231C333.601 159.378 331.828 160.002 330 160Z" fill="#8F5528"/>
<path d="M264 61.45V137.94C260.757 132.234 258.078 126.226 256 120C253.922 126.226 251.243 132.234 248 137.94V61.45C250.67 61.32 253.33 61.26 256 61.26C258.67 61.26 261.33 61.32 264 61.45Z" fill="#8F5528"/>
<path d="M269.4 318.83C267.856 321.217 265.702 323.147 263.16 324.42C260.937 325.531 258.486 326.11 256 326.11C253.515 326.11 251.063 325.531 248.84 324.42C246.298 323.147 244.144 321.217 242.6 318.83C251.194 315.35 260.806 315.35 269.4 318.83Z" fill="#B22122"/>
</svg>
