<?xml version="1.0" encoding="UTF-8" standalone="no"?> <svg width="64" height="64" viewBox="0 0 64 64" fill="none" xmlns="http://www.w3.org/2000/svg">
<path d="M8.00004 57C6.613 55.6127 5.77285 53.7716 5.63379 51.8148C5.49474 49.8579 6.06611 47.9165 7.24304 46.347L10.2 42.4C13.3158 38.2457 15 33.1929 15 28V17C15.0012 15.1602 15.3648 13.3387 16.07 11.6394C16.7751 9.94018 17.8081 8.39646 19.1099 7.09643C20.4117 5.79639 21.9568 4.76551 23.657 4.06264C25.3573 3.35978 27.1793 2.99869 29.019 3H29.233C30.3455 3.00014 31.4323 3.33367 32.3533 3.95754C33.2743 4.58142 33.9873 5.467 34.4 6.5L35 8L35.088 7.735C35.3536 6.93853 35.8629 6.24579 36.5441 5.75492C37.2252 5.26405 38.0435 4.99994 38.883 5H39C41.6522 5 44.1957 6.05357 46.0711 7.92894C47.9465 9.8043 49 12.3478 49 15V28C49 33.1929 50.6843 38.2457 53.8 42.4L56.759 46.345C57.9363 47.9149 58.5076 49.8568 58.3682 51.8142C58.2288 53.7715 57.3879 55.6128 56 57V57H8.00004Z" fill="#58595B"/>
<path d="M22 43.12C22 45.7722 23.0536 48.3157 24.9289 50.1911C26.8043 52.0665 29.3478 53.12 32 53.12C34.6522 53.12 37.1957 52.0665 39.0711 50.1911C40.9464 48.3157 42 45.7722 42 43.12C41.3364 43.0396 40.6685 42.9995 40 43H39C38.4701 42.9985 37.9623 42.7872 37.5875 42.4125C37.2128 42.0378 37.0016 41.53 37 41V37.66C35.4798 38.5377 33.7554 38.9998 32 38.9998C30.2446 38.9998 28.5202 38.5377 27 37.66V41C26.9984 41.53 26.7872 42.0378 26.4125 42.4125C26.0377 42.7872 25.5299 42.9985 25 43H24C23.3315 42.9995 22.6636 43.0396 22 43.12V43.12Z" fill="#FFBEAD"/>
<path d="M42 43.1381C42 45.7902 40.9464 48.3338 39.0711 50.2091C37.1957 52.0845 34.6522 53.1381 32 53.1381C29.3478 53.1381 26.8043 52.0845 24.9289 50.2091C23.0536 48.3338 22 45.7902 22 43.1381C18.1346 43.6225 14.579 45.5015 12.0011 48.4222C9.42326 51.343 8.00047 55.1044 8 59.0001V61.0001H56V59.0001C55.9995 55.1044 54.5767 51.343 51.9989 48.4222C49.421 45.5015 45.8654 43.6225 42 43.1381V43.1381Z" fill="#ED1C24"/>
<path d="M42 43.1381C42 45.7902 40.9464 48.3338 39.0711 50.2091C37.1957 52.0845 34.6522 53.1381 32 53.1381C29.3478 53.1381 26.8043 52.0845 24.9289 50.2091C23.0536 48.3338 22 45.7902 22 43.1381C18.1346 43.6225 14.579 45.5015 12.0011 48.4222C9.42326 51.343 8.00047 55.1044 8 59.0001V61.0001H8.047C8.22468 58.1304 9.17302 55.3619 10.7921 52.986C12.4112 50.6101 14.6412 48.7149 17.247 47.5001C17.7448 47.2657 18.2855 47.136 18.8355 47.1191C19.3855 47.1023 19.933 47.1985 20.4443 47.402C20.9556 47.6054 21.4196 47.9117 21.8076 48.3019C22.1956 48.692 22.4994 49.1577 22.7 49.6701C23.4362 51.5372 24.7171 53.1396 26.3763 54.2689C28.0354 55.3982 29.996 56.0021 32.003 56.0021C34.01 56.0021 35.9706 55.3982 37.6297 54.2689C39.2889 53.1396 40.5698 51.5372 41.306 49.6701C41.5067 49.1586 41.8102 48.6937 42.1978 48.3042C42.5853 47.9147 43.0485 47.6088 43.559 47.4054C44.0694 47.202 44.6161 47.1055 45.1653 47.1218C45.7145 47.1381 46.2545 47.2668 46.752 47.5001C49.3578 48.7149 51.5878 50.6101 53.2069 52.986C54.826 55.3619 55.7743 58.1304 55.952 61.0001H56V59.0001C55.9995 55.1044 54.5767 51.343 51.9989 48.4222C49.421 45.5015 45.8654 43.6225 42 43.1381V43.1381Z" fill="#D80027"/>
<path d="M40.7 21C40.2457 21.0002 39.8048 20.8457 39.45 20.562L35 17L33.287 18.37C31.1583 20.0731 28.5132 21.0007 25.787 21H22V29C22 31.6522 23.0536 34.1957 24.9289 36.0711C26.8043 37.9464 29.3478 39 32 39C34.6522 39 37.1957 37.9464 39.0711 36.0711C40.9464 34.1957 42 31.6522 42 29V21H40.7Z" fill="#FFC8B9"/>
<path d="M35.0001 31.5001C34.1329 32.1449 33.0809 32.4931 32.0001 32.4931C30.9194 32.4931 29.8674 32.1449 29.0001 31.5001C28.788 31.3409 28.5213 31.2726 28.2587 31.3101C27.9962 31.3476 27.7593 31.4879 27.6002 31.7001C27.441 31.9122 27.3727 32.1789 27.4102 32.4415C27.4477 32.704 27.588 32.9409 27.8001 33.1001C29.0141 34.0033 30.487 34.4911 32.0001 34.4911C33.5133 34.4911 34.9862 34.0033 36.2002 33.1001C36.3052 33.0213 36.3937 32.9225 36.4606 32.8095C36.5275 32.6965 36.5715 32.5715 36.5901 32.4415C36.6087 32.3115 36.6015 32.1791 36.5689 32.0519C36.5363 31.9247 36.4789 31.8051 36.4002 31.7001C36.3214 31.595 36.2226 31.5065 36.1096 31.4396C35.9966 31.3727 35.8716 31.3287 35.7416 31.3101C35.6116 31.2915 35.4792 31.2987 35.352 31.3313C35.2248 31.3639 35.1052 31.4213 35.0001 31.5001Z" fill="#58595B"/>
<path d="M36 23C35.7348 23 35.4804 23.1054 35.2929 23.2929C35.1054 23.4804 35 23.7348 35 24V25C35 25.2652 35.1054 25.5196 35.2929 25.7071C35.4804 25.8946 35.7348 26 36 26C36.2652 26 36.5196 25.8946 36.7071 25.7071C36.8946 25.5196 37 25.2652 37 25V24C37 23.7348 36.8946 23.4804 36.7071 23.2929C36.5196 23.1054 36.2652 23 36 23Z" fill="#58595B"/>
<path d="M29 25V24C29 23.7348 28.8946 23.4804 28.7071 23.2929C28.5196 23.1054 28.2652 23 28 23C27.7348 23 27.4804 23.1054 27.2929 23.2929C27.1054 23.4804 27 23.7348 27 24V25C27 25.2652 27.1054 25.5196 27.2929 25.7071C27.4804 25.8946 27.7348 26 28 26C28.2652 26 28.5196 25.8946 28.7071 25.7071C28.8946 25.5196 29 25.2652 29 25Z" fill="#58595B"/>
<path d="M45.9999 60.9999V60.4899C46.0032 59.5702 45.8236 58.659 45.4717 57.8092C45.1198 56.9594 44.6025 56.1881 43.9499 55.5399L43.7099 55.2899C43.5216 55.1016 43.2662 54.9958 42.9999 54.9958C42.7336 54.9958 42.4782 55.1016 42.2899 55.2899C42.1016 55.4782 41.9958 55.7336 41.9958 55.9999C41.9958 56.2662 42.1016 56.5216 42.2899 56.7099L42.5399 56.9499C43.005 57.4143 43.3735 57.9663 43.6241 58.5739C43.8747 59.1815 44.0024 59.8327 43.9999 60.4899V60.9999H45.9999Z" fill="#D80027"/>
<path d="M18 60.9999V60.4899C17.9968 59.5702 18.1763 58.659 18.5283 57.8092C18.8802 56.9594 19.3975 56.1881 20.05 55.5399L20.29 55.2899C20.4783 55.1016 20.7337 54.9958 21 54.9958C21.2663 54.9958 21.5217 55.1016 21.71 55.2899C21.8983 55.4782 22.0041 55.7336 22.0041 55.9999C22.0041 56.2662 21.8983 56.5216 21.71 56.7099L21.46 56.9499C20.995 57.4143 20.6265 57.9663 20.3759 58.5739C20.1253 59.1815 19.9976 59.8327 20 60.4899V60.9999H18Z" fill="#D80027"/>
</svg>
