<?xml version="1.0" encoding="utf-8"?>
<!-- Generator: Adobe Illustrator 22.0.0, SVG Export Plug-In . SVG Version: 6.00 Build 0)  -->
<svg version="1.1" xmlns="http://www.w3.org/2000/svg" xmlns:xlink="http://www.w3.org/1999/xlink" x="0px" y="0px"
	 viewBox="0 0 500 500" style="enable-background:new 0 0 500 500;" xml:space="preserve">
<style type="text/css">
	.st0{fill:#EBEBEB;}
	.st1{fill:#E0E0E0;}
	.st2{display:none;}
	.st3{display:inline;fill:#EBEBEB;}
	.st4{fill:#263238;}
	.st5{fill:#FFFFFF;}
	.st6{fill:#E8505B;}
	.st7{fill:#FFBE9D;}
	.st8{fill:#EB996E;}
	.st9{opacity:0.3;}
	.st10{fill:#455A64;}
	.st11{opacity:0.6;}
	.st12{fill:#FAFAFA;}
	.st13{fill:#936754;}
	.st14{fill:#7C5142;}
</style>
<g id="Background_Complete">
	<g>
		<g>
			<path class="st0" d="M434.6,320.9c0,0-6.4-3.9-13.5,11.3c-7.1,15.2-9.7,23.9-9.7,23.9s-1.9,3.2-4.1,1.2c-2.2-2-5.4-7.7-9-6.5
				c-3.8,1.2-4.9,5.5-3.9,11.7c0.9,6.2,2.5,19.8,2.6,21.1c0.1,1.2-0.5,3-2.2,1.9c-1.7-1.1-11.8-11.6-16.5-6.5
				c-4.7,5.1,0.7,21.9,1.3,23.8c0.6,1.9,0.2,2.7-0.7,3.2c-0.9,0.5-3.9-3.4-6.9-6.2c-3-2.9-7-5.7-9.4-2.5c-2.5,3.2-2.9,15.9,10,36.2
				l6.6,9l11.2-1c23.7-3.6,33.1-12.2,33.9-16.2c0.8-3.9-3.9-5.1-8.1-5.5c-4.1-0.4-9-0.2-9.2-1.2c-0.2-1,0.2-1.8,2-2.6
				c1.8-0.8,18-7.7,18.8-14.6c0.8-6.9-13.8-7.6-15.7-8.2c-2-0.6-1-2.3,0-2.9c1-0.7,12.3-8.5,17.6-11.8c5.3-3.3,7.8-7,6.3-10.6
				c-1.5-3.5-7.9-2.1-10.8-2.5c-2.9-0.4-1.8-3.9-1.8-3.9s4.9-7.7,11.7-23c6.8-15.3-0.5-17.6-0.5-17.6"/>
		</g>
		<g>
			<g>
				<path class="st1" d="M377.3,444.4c5.1-11.2,14.4-31,22.4-48.1c7.9-17,15.1-32.5,20.2-43.7c2.6-5.6,4.6-10.1,6.1-13.3
					c0.7-1.6,1.3-2.8,1.6-3.6c0.2-0.4,0.3-0.7,0.4-0.9c0.1-0.2,0.2-0.3,0.2-0.3s0,0.1-0.1,0.3c-0.1,0.2-0.2,0.5-0.4,0.9
					c-0.4,0.8-0.9,2.1-1.6,3.6c-1.4,3.2-3.4,7.7-6,13.3c-5.1,11.2-12.2,26.7-20.1,43.7c-7.9,17.1-17.3,36.8-22.4,48"/>
			</g>
		</g>
		<g>
			<g>
				<path class="st1" d="M402.3,358.9c0,0,0.1,0.3,0.3,0.7c0.2,0.5,0.4,1.2,0.7,2.1c0.6,1.8,1.3,4.2,2,6.9c0.7,2.7,1.4,5.1,1.9,7
					c0.2,0.8,0.4,1.5,0.6,2.1c0.1,0.5,0.2,0.8,0.2,0.8c0,0-0.1-0.3-0.3-0.7c-0.2-0.5-0.4-1.2-0.7-2.1c-0.5-1.8-1.2-4.2-2-7
					c-0.7-2.7-1.4-5.1-1.9-7c-0.2-0.8-0.4-1.5-0.6-2.1C402.4,359.2,402.3,359,402.3,358.9z"/>
			</g>
		</g>
		<g>
			<g>
				<path class="st1" d="M409,378.8c0-0.1,5-1.8,11.2-3.8c6.2-2,11.2-3.6,11.3-3.5c0,0.1-5,1.8-11.2,3.8
					C414.1,377.3,409.1,378.9,409,378.8z"/>
			</g>
		</g>
		<g>
			<g>
				<path class="st1" d="M395.7,404.4c0,0,0.3,0,0.8-0.1c0.6,0,1.3,0,2.2-0.1c1.9-0.1,4.5-0.2,7.4-0.4c2.9-0.2,5.5-0.5,7.3-0.7
					c0.9-0.1,1.6-0.2,2.2-0.2c0.5-0.1,0.8-0.1,0.8-0.1c0,0-0.3,0.1-0.8,0.2c-0.5,0.1-1.3,0.2-2.2,0.4c-1.9,0.3-4.5,0.6-7.4,0.8
					c-2.9,0.2-5.5,0.3-7.4,0.3c-0.9,0-1.7,0-2.2,0C396,404.4,395.7,404.4,395.7,404.4z"/>
			</g>
		</g>
		<g>
			<g>
				<path class="st1" d="M385.7,387.8c0,0,0.2,0.2,0.5,0.6c0.3,0.5,0.7,1,1.1,1.7c0.9,1.5,2.2,3.5,3.6,5.8c1.4,2.3,2.7,4.3,3.6,5.8
					c0.4,0.7,0.8,1.3,1,1.8c0.2,0.4,0.4,0.7,0.3,0.7c0,0-0.2-0.2-0.5-0.6c-0.3-0.5-0.7-1-1.1-1.7c-0.9-1.5-2.2-3.5-3.6-5.8
					c-1.4-2.3-2.7-4.3-3.6-5.8c-0.4-0.7-0.8-1.3-1-1.8C385.8,388.1,385.6,387.8,385.7,387.8z"/>
			</g>
		</g>
		<g>
			<g>
				<path class="st1" d="M371,408.9c0,0,0.2,0.3,0.6,0.8c0.4,0.6,0.9,1.3,1.5,2.2c1.2,1.9,2.9,4.5,4.7,7.4c1.8,2.9,3.5,5.5,4.6,7.4
					c0.6,0.9,1,1.7,1.4,2.3c0.3,0.5,0.5,0.8,0.5,0.9c0,0-0.2-0.3-0.6-0.8c-0.4-0.6-0.9-1.3-1.5-2.2c-1.2-1.9-2.9-4.5-4.7-7.4
					c-1.8-2.9-3.5-5.5-4.6-7.4c-0.6-0.9-1-1.7-1.4-2.3C371.1,409.2,371,408.9,371,408.9z"/>
			</g>
		</g>
		<g>
			<g>
				<path class="st1" d="M384,429.2c0,0,0.4-0.1,1-0.1c0.7,0,1.7-0.1,2.8-0.2c2.4-0.2,5.7-0.4,9.3-0.8c3.6-0.4,6.9-0.8,9.3-1.1
					c1.1-0.1,2.1-0.3,2.8-0.4c0.7-0.1,1-0.1,1-0.1c0,0-0.4,0.1-1,0.2c-0.7,0.1-1.6,0.3-2.8,0.5c-2.4,0.4-5.7,0.8-9.3,1.2
					c-3.6,0.4-7,0.6-9.4,0.7c-1.2,0-2.2,0.1-2.8,0.1C384.4,429.3,384,429.3,384,429.2z"/>
			</g>
		</g>
	</g>
	<g>
		<g>
			<g>
				<g>
					<g>
						<g>
							<path class="st1" d="M105.1,246.5c1.7-0.7,2.8-2.4,2.8-4.4c0-2.6-2-4.8-4.4-4.8c-2.5,0-4.5,2.1-4.5,4.7c0,2,1.2,3.8,2.8,4.4
								c-6.9,1-6.6,8.5-6.6,8.5l16.2,0.1C111.5,255.1,111.9,247.6,105.1,246.5z"/>
						</g>
					</g>
				</g>
			</g>
			<g>
				<path class="st1" d="M126.3,247.2c0,0,0-0.1,0-0.4c0-0.3,0-0.6-0.1-1.1c0-0.2,0-0.5-0.1-0.8c0-0.3-0.1-0.6-0.1-0.9
					c-0.1-0.7-0.2-1.5-0.5-2.3c-0.4-1.7-1.2-3.8-2.5-5.9c-1.3-2.2-3.1-4.4-5.7-6.3c-2.5-1.9-5.7-3.5-9.4-4.1
					c-3.6-0.6-7.7-0.5-11.7,1c-1,0.3-1.9,0.8-2.9,1.3c-0.9,0.6-1.9,1.1-2.7,1.7c-0.9,0.6-1.7,1.4-2.5,2.1c-0.7,0.8-1.5,1.6-2.2,2.6
					c-1.3,1.8-2.5,3.9-3.2,6.1c-0.7,2.2-1.1,4.6-1.1,7c0,2.4,0.4,4.8,1.1,7c0.7,2.2,1.8,4.3,3.2,6.1c0.6,0.9,1.4,1.7,2.2,2.6
					c0.8,0.7,1.6,1.5,2.5,2.1c0.8,0.7,1.8,1.2,2.7,1.7c1,0.5,1.9,1,2.9,1.3c3.9,1.5,8,1.6,11.7,1c3.7-0.6,6.8-2.3,9.4-4.1
					c2.5-1.9,4.4-4.2,5.7-6.3c1.3-2.2,2.1-4.2,2.5-5.9c0.3-0.9,0.4-1.6,0.5-2.3c0.1-0.3,0.1-0.6,0.1-0.9c0-0.3,0-0.5,0.1-0.8
					c0-0.4,0.1-0.8,0.1-1.1C126.2,247.3,126.2,247.2,126.3,247.2c0,0,0,0.1,0,0.4c0,0.3,0,0.6,0,1.1c0,0.2,0,0.5,0,0.8
					c0,0.3-0.1,0.6-0.1,0.9c-0.1,0.7-0.2,1.5-0.4,2.3c-0.4,1.8-1.2,3.8-2.4,6c-1.3,2.2-3.1,4.5-5.7,6.4c-2.5,1.9-5.8,3.6-9.5,4.3
					c-3.7,0.7-7.9,0.6-11.9-1c-1-0.3-2-0.8-3-1.3c-0.9-0.6-1.9-1.1-2.8-1.8c-0.9-0.6-1.7-1.4-2.6-2.2c-0.8-0.8-1.6-1.7-2.2-2.6
					c-1.4-1.9-2.5-4-3.2-6.3c-0.7-2.3-1.1-4.7-1.2-7.2c0-2.5,0.4-4.9,1.2-7.2c0.7-2.3,1.9-4.4,3.2-6.2c0.7-1,1.5-1.8,2.2-2.6
					c0.8-0.8,1.7-1.6,2.6-2.2c0.9-0.7,1.9-1.2,2.8-1.8c1-0.5,1.9-1,3-1.3c4-1.5,8.2-1.6,11.9-1c3.7,0.7,7,2.3,9.5,4.3
					c2.6,2,4.4,4.3,5.7,6.4c1.3,2.2,2.1,4.3,2.4,6c0.2,0.9,0.3,1.7,0.4,2.3c0,0.3,0.1,0.7,0.1,0.9c0,0.3,0,0.6,0,0.8
					c0,0.4,0,0.8,0,1.1C126.3,247,126.3,247.2,126.3,247.2z"/>
			</g>
		</g>
		<g>
			<path class="st1" d="M168.7,225.7c0,0.1-9.8,3.1-22,6.5c-12.2,3.5-22.1,6.1-22.2,6c0-0.1,9.8-3.1,22-6.5
				C158.8,228.2,168.7,225.5,168.7,225.7z"/>
		</g>
	</g>
	<g>
		<g>
			<g>
				<g>
					<g>
						<g>
							<path class="st0" d="M354.6,309.8c2.3-1,3.9-3.3,3.9-6.1c0-3.7-2.8-6.6-6.2-6.7c-3.4,0-6.2,2.9-6.2,6.6c0,2.8,1.6,5.2,4,6.2
								c-9.6,1.4-9.1,11.8-9.1,11.8l22.6,0.1C363.6,321.7,364.1,311.2,354.6,309.8z"/>
						</g>
					</g>
				</g>
			</g>
			<g>
				<path class="st0" d="M384,310.7c0,0,0-0.2-0.1-0.5c0-0.4-0.1-0.8-0.1-1.5c0-0.3,0-0.7-0.1-1.1c0-0.4-0.1-0.8-0.2-1.3
					c-0.2-0.9-0.3-2-0.7-3.2c-0.6-2.4-1.7-5.3-3.5-8.3c-1.8-3-4.4-6.1-7.9-8.8c-3.5-2.6-7.9-4.9-13-5.8c-1.3-0.2-2.6-0.4-3.9-0.5
					c-0.7,0-1.3-0.1-2-0.1c-0.7,0-1.4,0.1-2.1,0.1c-0.3,0-0.7,0-1,0.1l-1,0.2c-0.7,0.1-1.4,0.2-2.1,0.3c-1.4,0.4-2.8,0.7-4.1,1.2
					c-1.4,0.4-2.7,1.1-4,1.8c-0.7,0.4-1.3,0.8-1.9,1.2c-0.7,0.4-1.3,0.8-1.9,1.3c-1.3,0.9-2.4,1.9-3.5,3c-1,1.2-2.1,2.3-3,3.6
					c-1.8,2.6-3.5,5.4-4.4,8.5c-1,3.1-1.6,6.4-1.6,9.8c0,3.4,0.6,6.7,1.6,9.8c1,3.1,2.6,6,4.4,8.5c0.9,1.3,2,2.4,3,3.6
					c1.2,1,2.3,2.1,3.5,3c0.6,0.5,1.2,0.9,1.9,1.3c0.6,0.4,1.3,0.8,1.9,1.2c1.3,0.6,2.6,1.3,4,1.8c1.3,0.6,2.8,0.8,4.1,1.2
					c0.7,0.1,1.4,0.2,2.1,0.3l1,0.2c0.3,0,0.7,0,1,0.1c0.7,0,1.4,0.1,2.1,0.1c0.7,0,1.4-0.1,2-0.1c1.3,0,2.6-0.3,3.9-0.5
					c5.1-0.9,9.5-3.1,13-5.8c3.5-2.7,6.1-5.8,7.9-8.8c1.8-3,2.9-5.9,3.5-8.3c0.4-1.2,0.5-2.3,0.7-3.2c0.1-0.5,0.2-0.9,0.2-1.3
					c0-0.4,0-0.8,0.1-1.1c0-0.6,0.1-1.1,0.1-1.5C384,310.8,384,310.7,384,310.7s0,0.2,0,0.5c0,0.4,0,0.8,0,1.5c0,0.3,0,0.7,0,1.1
					c0,0.4-0.1,0.8-0.2,1.3c-0.1,0.9-0.3,2-0.6,3.2c-0.5,2.4-1.6,5.3-3.4,8.4c-1.8,3-4.4,6.2-7.9,8.9c-3.5,2.7-8,5-13.2,5.9
					c-1.3,0.2-2.6,0.5-4,0.5c-0.7,0-1.4,0.1-2,0.1c-0.7,0-1.4-0.1-2.1-0.1c-0.3,0-0.7,0-1.1-0.1l-1-0.2c-0.7-0.1-1.4-0.2-2.1-0.3
					c-1.4-0.4-2.8-0.7-4.2-1.2c-1.4-0.4-2.7-1.1-4.1-1.8c-0.7-0.4-1.3-0.8-2-1.2c-0.7-0.4-1.3-0.8-1.9-1.3c-1.3-0.9-2.4-2-3.6-3
					c-1.1-1.2-2.2-2.3-3.1-3.6c-1.9-2.6-3.5-5.5-4.5-8.7c-1-3.2-1.6-6.5-1.6-9.9c0-3.4,0.6-6.8,1.6-9.9c1-3.2,2.6-6.1,4.5-8.7
					c0.9-1.3,2-2.5,3.1-3.6c1.2-1.1,2.3-2.2,3.6-3c0.6-0.5,1.2-0.9,1.9-1.3c0.7-0.4,1.3-0.8,2-1.2c1.4-0.7,2.7-1.3,4.1-1.8
					c1.4-0.6,2.8-0.8,4.2-1.2c0.7-0.1,1.4-0.2,2.1-0.3l1-0.2c0.3,0,0.7,0,1.1-0.1c0.7,0,1.4-0.1,2.1-0.1c0.7,0,1.4,0.1,2,0.1
					c1.4,0,2.7,0.3,4,0.5c5.2,0.9,9.7,3.2,13.2,5.9c3.5,2.7,6.1,5.9,7.9,8.9c1.8,3.1,2.9,5.9,3.4,8.4c0.3,1.2,0.5,2.3,0.6,3.2
					c0.1,0.5,0.1,0.9,0.2,1.3c0,0.4,0,0.8,0,1.1c0,0.6,0,1.1,0,1.5C384.1,310.5,384,310.7,384,310.7z"/>
			</g>
		</g>
		<g>
			<path class="st1" d="M335.7,284.4c-0.1,0.1-4-5.4-8.8-12.3c-4.7-6.9-8.5-12.5-8.3-12.6c0.1-0.1,4,5.4,8.8,12.3
				C332.1,278.7,335.8,284.3,335.7,284.4z"/>
		</g>
	</g>
	<g>
		<g>
			<g>
				<g>
					<g>
						<g>
							<path class="st1" d="M408.6,86.6c1.7-0.7,2.8-2.4,2.8-4.4c0-2.6-2-4.8-4.4-4.8c-2.5,0-4.5,2.1-4.5,4.7c0,2,1.2,3.8,2.8,4.4
								c-6.9,1-6.6,8.5-6.6,8.5l16.2,0.1C415.1,95.2,415.4,87.6,408.6,86.6z"/>
						</g>
					</g>
				</g>
			</g>
			<g>
				<path class="st1" d="M429.8,87.2c0,0,0-0.1,0-0.4c0-0.3,0-0.6-0.1-1.1c0-0.2,0-0.5-0.1-0.8c0-0.3-0.1-0.6-0.1-0.9
					c-0.1-0.7-0.2-1.5-0.5-2.3c-0.4-1.7-1.2-3.8-2.5-5.9c-1.3-2.2-3.1-4.4-5.7-6.3c-2.5-1.9-5.7-3.5-9.4-4.1
					c-3.6-0.6-7.7-0.5-11.7,1c-1,0.3-1.9,0.8-2.9,1.3c-0.9,0.6-1.9,1.1-2.7,1.7c-0.9,0.6-1.7,1.4-2.5,2.1c-0.7,0.8-1.5,1.6-2.2,2.6
					c-1.3,1.8-2.5,3.9-3.2,6.1c-0.7,2.2-1.1,4.6-1.1,7c0,2.4,0.4,4.8,1.1,7c0.7,2.2,1.8,4.3,3.2,6.1c0.6,0.9,1.4,1.7,2.2,2.6
					c0.8,0.7,1.6,1.5,2.5,2.1c0.8,0.7,1.8,1.2,2.7,1.7c1,0.5,1.9,1,2.9,1.3c3.9,1.5,8,1.6,11.7,1c3.7-0.6,6.8-2.3,9.4-4.1
					c2.5-1.9,4.4-4.2,5.7-6.3c1.3-2.2,2.1-4.2,2.5-5.9c0.3-0.9,0.4-1.6,0.5-2.3c0.1-0.3,0.1-0.6,0.1-0.9c0-0.3,0-0.5,0.1-0.8
					c0-0.4,0.1-0.8,0.1-1.1C429.8,87.4,429.8,87.2,429.8,87.2s0,0.1,0,0.4c0,0.3,0,0.6,0,1.1c0,0.2,0,0.5,0,0.8
					c0,0.3-0.1,0.6-0.1,0.9c-0.1,0.7-0.2,1.5-0.4,2.3c-0.4,1.8-1.2,3.8-2.4,6c-1.3,2.2-3.1,4.5-5.7,6.4c-2.5,1.9-5.8,3.6-9.5,4.3
					c-3.7,0.7-7.9,0.6-11.9-1c-1-0.3-2-0.8-3-1.3c-0.9-0.6-1.9-1.1-2.8-1.8c-0.9-0.6-1.7-1.4-2.6-2.2c-0.8-0.8-1.6-1.7-2.2-2.6
					c-1.4-1.9-2.5-4-3.2-6.3c-0.7-2.3-1.1-4.7-1.2-7.2c0-2.5,0.4-4.9,1.2-7.2c0.7-2.3,1.9-4.4,3.2-6.2c0.7-1,1.5-1.8,2.2-2.6
					c0.8-0.8,1.7-1.6,2.6-2.2c0.9-0.7,1.9-1.2,2.8-1.8c1-0.5,1.9-1,3-1.3c4-1.5,8.2-1.6,11.9-1c3.7,0.7,7,2.3,9.5,4.3
					c2.6,2,4.4,4.3,5.7,6.4c1.3,2.2,2.1,4.3,2.4,6c0.2,0.9,0.3,1.7,0.4,2.3c0,0.3,0.1,0.7,0.1,0.9c0,0.3,0,0.6,0,0.8
					c0,0.4,0,0.8,0,1.1C429.8,87.1,429.8,87.2,429.8,87.2z"/>
			</g>
		</g>
		<g>
			<path class="st1" d="M391.4,102.6c0.1,0.1-20.8,17.4-46.7,38.5c-25.9,21.2-47,38.2-47.1,38.1c-0.1-0.1,20.8-17.3,46.7-38.5
				C370.3,119.5,391.3,102.5,391.4,102.6z"/>
		</g>
	</g>
	<g>
		<g>
			<g>
				<g>
					<g>
						<g>
							<path class="st0" d="M186.5,63.7c2.3-1,3.9-3.3,3.9-6.1c0-3.7-2.8-6.6-6.2-6.7c-3.4,0-6.2,2.9-6.2,6.6c0,2.8,1.6,5.2,4,6.2
								c-9.6,1.4-9.1,11.8-9.1,11.8l22.6,0.1C195.4,75.6,196,65.1,186.5,63.7z"/>
						</g>
					</g>
				</g>
			</g>
			<g>
				<path class="st0" d="M215.9,64.6c0,0,0-0.2-0.1-0.5c0-0.4-0.1-0.8-0.1-1.5c0-0.3,0-0.7-0.1-1.1c0-0.4-0.1-0.8-0.2-1.3
					c-0.2-0.9-0.3-2-0.7-3.2c-0.6-2.4-1.7-5.3-3.5-8.3c-1.8-3-4.4-6.1-7.9-8.8c-3.5-2.6-7.9-4.9-13-5.8c-1.3-0.2-2.6-0.4-3.9-0.5
					c-0.7,0-1.3-0.1-2-0.1c-0.7,0-1.4,0.1-2.1,0.1c-0.3,0-0.7,0-1,0.1l-1,0.2c-0.7,0.1-1.4,0.2-2.1,0.3c-1.4,0.4-2.8,0.7-4.1,1.2
					c-1.4,0.4-2.7,1.1-4,1.8c-0.7,0.4-1.3,0.8-1.9,1.2c-0.7,0.4-1.3,0.8-1.9,1.3c-1.3,0.9-2.4,1.9-3.5,3c-1,1.2-2.1,2.3-3,3.6
					c-1.8,2.6-3.5,5.4-4.4,8.5c-1,3.1-1.6,6.4-1.6,9.8c0,3.4,0.6,6.7,1.6,9.8c1,3.1,2.6,6,4.4,8.5c0.9,1.3,2,2.4,3,3.6
					c1.2,1,2.3,2.1,3.5,3c0.6,0.5,1.2,0.9,1.9,1.3c0.6,0.4,1.3,0.8,1.9,1.2c1.3,0.6,2.6,1.3,4,1.8c1.3,0.6,2.8,0.8,4.1,1.2
					c0.7,0.1,1.4,0.2,2.1,0.3l1,0.2c0.3,0,0.7,0,1,0.1c0.7,0,1.4,0.1,2.1,0.1c0.7,0,1.4-0.1,2-0.1c1.3,0,2.6-0.3,3.9-0.5
					c5.1-0.9,9.5-3.1,13-5.8c3.5-2.7,6.1-5.8,7.9-8.8c1.8-3,2.9-5.9,3.5-8.3c0.4-1.2,0.5-2.3,0.7-3.2c0.1-0.5,0.2-0.9,0.2-1.3
					c0-0.4,0-0.8,0.1-1.1c0-0.6,0.1-1.1,0.1-1.5C215.9,64.7,215.9,64.6,215.9,64.6s0,0.2,0,0.5c0,0.4,0,0.8,0,1.5c0,0.3,0,0.7,0,1.1
					c0,0.4-0.1,0.8-0.2,1.3c-0.1,0.9-0.3,2-0.6,3.2c-0.5,2.4-1.6,5.3-3.4,8.4c-1.8,3-4.4,6.2-7.9,8.9c-3.5,2.7-8,5-13.2,5.9
					c-1.3,0.2-2.6,0.5-4,0.5c-0.7,0-1.4,0.1-2,0.1c-0.7,0-1.4-0.1-2.1-0.1c-0.3,0-0.7,0-1.1-0.1l-1-0.2c-0.7-0.1-1.4-0.2-2.1-0.3
					c-1.4-0.4-2.8-0.7-4.2-1.2c-1.4-0.4-2.7-1.1-4.1-1.8c-0.7-0.4-1.3-0.8-2-1.2c-0.7-0.4-1.3-0.8-1.9-1.3c-1.3-0.9-2.4-2-3.6-3
					c-1.1-1.2-2.2-2.3-3.1-3.6c-1.9-2.6-3.5-5.5-4.5-8.7c-1-3.2-1.6-6.5-1.6-9.9c0-3.4,0.6-6.8,1.6-9.9c1-3.2,2.6-6.1,4.5-8.7
					c0.9-1.3,2-2.5,3.1-3.6c1.2-1.1,2.3-2.2,3.6-3c0.6-0.5,1.2-0.9,1.9-1.3c0.7-0.4,1.3-0.8,2-1.2c1.4-0.7,2.7-1.3,4.1-1.8
					c1.4-0.6,2.8-0.8,4.2-1.2c0.7-0.1,1.4-0.2,2.1-0.3l1-0.2c0.3,0,0.7,0,1.1-0.1c0.7,0,1.4-0.1,2.1-0.1c0.7,0,1.4,0.1,2,0.1
					c1.4,0,2.7,0.3,4,0.5c5.2,0.9,9.7,3.2,13.2,5.9c3.5,2.7,6.1,5.9,7.9,8.9c1.8,3.1,2.9,5.9,3.4,8.4c0.3,1.2,0.5,2.3,0.6,3.2
					c0.1,0.5,0.1,0.9,0.2,1.3c0,0.4,0,0.8,0,1.1c0,0.6,0,1.1,0,1.5C215.9,64.4,215.9,64.6,215.9,64.6z"/>
			</g>
		</g>
		<g>
			<path class="st1" d="M211,152.2c-0.1,0-4-12.9-8.6-29c-4.6-16.1-8.2-29.1-8.1-29.2c0.1,0,4,12.9,8.6,29
				C207.5,139.2,211.1,152.2,211,152.2z"/>
		</g>
	</g>
</g>
<g id="Background_Simple" class="st2">
	<path class="st3" d="M394.5,104.8l-2-3.2c-16.6-27-46.7-43.3-78.3-41.4c-4.1,0.3-8.1,0.8-12.1,1.6c-28.8,6.1-53.9,27.6-64.2,55.1
		c-6.1,16.2-7.8,34.8-19.4,47.7c-15.1,16.7-40.7,17.3-63.2,16.6c-22.5-0.7-48.1-0.1-63.2,16.7c-9.4,10.5-12.4,25.5-11.6,39.6
		c2,37.3,28.3,70.7,61.8,87.2c33.5,16.6,72.9,18.1,109.5,10.8c51.3-10.2,100.1-38.3,129.5-81.6C410.5,210.6,418,151.6,394.5,104.8z"
		/>
</g>
<g id="Floor">
	<g>
		<path class="st4" d="M477.7,444.4c0,0.1-100.5,0.3-224.4,0.3c-123.9,0-224.4-0.1-224.4-0.3c0-0.1,100.4-0.3,224.4-0.3
			C377.2,444.2,477.7,444.3,477.7,444.4z"/>
	</g>
</g>
<g id="Character_3">
	<g>
		<g>
			<path class="st4" d="M310.4,99.4c0,0,0.1,0.2,0.1,0.6c0,0.4-0.1,1-0.3,1.8c-0.3,1.5-1,3.7-1.8,6.3c-1.7,5.3-4.4,12.5-7.4,20.5
				c-3,7.9-5.9,15.1-8,20.2c-1,2.5-1.9,4.6-2.5,6.1c-0.3,0.7-0.5,1.2-0.7,1.6c-0.2,0.4-0.3,0.6-0.3,0.6c0,0,0-0.2,0.2-0.6
				c0.2-0.4,0.4-1,0.6-1.7c0.6-1.5,1.4-3.6,2.4-6.1c2-5.2,4.8-12.4,7.8-20.3c3-7.9,5.7-15.1,7.5-20.4c0.9-2.6,1.6-4.8,2-6.3
				c0.2-0.7,0.3-1.3,0.4-1.7C310.4,99.6,310.4,99.4,310.4,99.4z"/>
		</g>
		<g>
			<g>
				
					<ellipse transform="matrix(0.3925 -0.9198 0.9198 0.3925 134.1887 332.2551)" class="st5" cx="318.6" cy="64.6" rx="41.1" ry="41.1"/>
			</g>
			<g>
				<path class="st4" d="M345.5,82c0.5-3.3,2.2-6.4,2.8-9.7c0.6-3.6-0.3-7.2-1.3-10.6c-1.8-6.5-4-13.1-8.5-18.1
					c-4.5-5-11.8-8-18.1-5.7l-6.6,5.8c-4.6,1.2-7.5,5.8-9.2,10.2c-1.7,4.4-2.9,9.3-6.1,12.8c-2,2.2-5,4.1-5.3,7
					c-0.3,2.9,1.9,5.9,0.5,8.4c-1.1,1.9-3.8,2.4-5,4.2c-1.3,2.1,0.8,7.2,0.8,7.2s17.3,19.7,45.7,8.5c5.9-2.3,9-5.1,13.3-9.5
					C346.1,89.7,344.9,85.7,345.5,82z"/>
			</g>
			<g>
				<path class="st6" d="M295,98.6l13.6-3.9l22.3-1.2l13.7,3.2c0,0-10.3,9.3-27.2,8.9C304.3,105.3,295,98.6,295,98.6"/>
			</g>
			<g>
				<g>
					<path class="st6" d="M304.2,40.8c4.3-4.7,8.1-5.7,12.5-6.1c6.7-0.6,13.9,1.1,19,5.5c4.6,4.1,6.9,10.3,7.2,16.5
						c0.1,2.2-0.7,4.2-1.5,6.2c-0.8,2-3.3,4.5-5.3,5.4c-2,0.9-2.8,0.1-4.3-1.4c-0.9-1-1.4-2.3-1.8-3.5c-1.9-5.3-4.2-10.5-7.8-14.8
						s-8.8-7.6-14.4-7.9"/>
				</g>
				<g>
					<g>
						<g>
							<path class="st4" d="M300.7,52.6c-0.8-4.2,0.6-8.7,3.5-11.8c2.3-2.3,5.3-3.7,8.4-4.4c4.2-1,8.8-1,12.6,0.9
								c3.9,1.9,6.9,5.7,7.1,10c0.1,2-0.4,4,0.2,5.8c0.2,0.8,0.6,1.7,0.4,2.5c-0.3,0.7-1,1.2-1.8,1.2c-0.8,0.1-1.5-0.2-2.2-0.6
								c-2.4-1.2-4.3-3.1-6.2-4.9"/>
						</g>
					</g>
					<g>
						<g>
							<g>
								<path class="st7" d="M330.2,48.1l-18.6-5.8c-6-1-10.4,6.3-11.1,12.3c-0.8,6.7-1.5,14.9-0.9,20c1.1,10.2,8.8,11.9,8.8,11.9
									c0,0,0,2.4-0.1,5.2c-0.1,7.3,6.8,13,13.9,11c0.2,0,0.3-0.1,0.5-0.1c4.5-1.3,7.6-5.3,7.9-10l2.7-40.7
									C333.4,50,332.1,48.4,330.2,48.1z"/>
							</g>
							<g>
								<g>
									<g>
										<g>
											<g>
												<g>
													<g>
														<g>
															<g>
																<g>
																	<g>
																		<g>
																			<g>
																				<g>
																					<g>
																						<g>
																							<g>
																								<g>
																									<g>
																										<g>
																											<path class="st4" d="M303,61.8c-0.1,0.7,0.5,1.3,1.2,1.4c0.7,0.1,1.3-0.4,1.4-1.1
																												c0.1-0.7-0.5-1.3-1.2-1.4C303.6,60.6,303,61.1,303,61.8z"/>
																										</g>
																									</g>
																								</g>
																							</g>
																						</g>
																					</g>
																				</g>
																			</g>
																		</g>
																	</g>
																</g>
																<g>
																	<g>
																		<g>
																			<g>
																				<g>
																					<g>
																						<g>
																							<g>
																								<g>
																									<g>
																										<g>
																											<g>
																												<path class="st4" d="M302.1,59c0.2,0.2,1.2-0.5,2.6-0.4c1.4,0.1,2.4,0.8,2.5,0.7
																													c0.1-0.1-0.1-0.4-0.5-0.7c-0.4-0.3-1.2-0.7-2-0.7c-0.9,0-1.6,0.2-2.1,0.5C302.2,58.7,302,59,302.1,59z"
																													/>
																											</g>
																										</g>
																									</g>
																								</g>
																							</g>
																						</g>
																					</g>
																				</g>
																			</g>
																		</g>
																	</g>
																</g>
															</g>
															<g>
																<g>
																	<g>
																		<g>
																			<g>
																				<g>
																					<g>
																						<g>
																							<g>
																								<g>
																									<g>
																										<g>
																											<path class="st4" d="M316.3,62.6c-0.1,0.7,0.5,1.3,1.2,1.4c0.7,0.1,1.3-0.4,1.4-1.1
																												c0.1-0.7-0.5-1.3-1.2-1.4C317,61.4,316.4,61.9,316.3,62.6z"/>
																										</g>
																									</g>
																								</g>
																							</g>
																						</g>
																					</g>
																				</g>
																			</g>
																		</g>
																	</g>
																</g>
																<g>
																	<g>
																		<g>
																			<g>
																				<g>
																					<g>
																						<g>
																							<g>
																								<g>
																									<g>
																										<g>
																											<g>
																												<path class="st4" d="M315.8,60c0.2,0.2,1.2-0.5,2.6-0.4c1.4,0.1,2.4,0.8,2.5,0.7
																													c0.1-0.1-0.1-0.4-0.5-0.7c-0.4-0.3-1.2-0.7-2-0.7c-0.9,0-1.6,0.2-2.1,0.5
																													C315.9,59.6,315.7,59.9,315.8,60z"/>
																											</g>
																										</g>
																									</g>
																								</g>
																							</g>
																						</g>
																					</g>
																				</g>
																			</g>
																		</g>
																	</g>
																</g>
															</g>
															<g>
																<g>
																	<g>
																		<g>
																			<g>
																				<g>
																					<g>
																						<g>
																							<g>
																								<g>
																									<g>
																										<g>
																											<path class="st4" d="M310.2,70.1c0-0.1-0.8-0.3-2.2-0.5c-0.4-0.1-0.7-0.1-0.7-0.4
																												c-0.1-0.3,0.1-0.6,0.3-1c0.4-0.8,0.8-1.7,1.2-2.7c1.7-3.8,2.9-6.9,2.7-7c-0.2-0.1-1.6,2.9-3.3,6.7
																												c-0.4,0.9-0.8,1.8-1.2,2.7c-0.2,0.4-0.4,0.8-0.3,1.4c0.1,0.3,0.3,0.5,0.6,0.6c0.2,0.1,0.4,0.1,0.6,0.1
																												C309.3,70.1,310.2,70.2,310.2,70.1z"/>
																										</g>
																									</g>
																								</g>
																							</g>
																						</g>
																					</g>
																				</g>
																			</g>
																		</g>
																	</g>
																</g>
															</g>
															<g>
																<g>
																	<g>
																		<g>
																			<g>
																				<g>
																					<g>
																						<g>
																							<g>
																								<g>
																									<g>
																										<path class="st8" d="M308.3,86.5c0,0,6.8,0.8,13.7-2.9c0,0-3.7,7-13.7,5.5L308.3,86.5z"/>
																									</g>
																								</g>
																							</g>
																						</g>
																					</g>
																				</g>
																			</g>
																		</g>
																	</g>
																</g>
															</g>
															<g>
																<g>
																	<g>
																		<g>
																			<g>
																				<g>
																					<g>
																						<g>
																							<g>
																								<g>
																									<g>
																										<path class="st8" d="M310.6,73.5c0.5-0.6,1.4-1,2.3-0.8c0.6,0.1,1.2,0.4,1.5,0.9c0.3,0.5,0.4,1.2,0,1.7
																											c-0.4,0.5-1.2,0.6-1.9,0.4c-0.7-0.2-1.2-0.7-1.7-1.2c-0.1-0.1-0.3-0.3-0.4-0.4
																											C310.4,73.9,310.4,73.7,310.6,73.5"/>
																									</g>
																								</g>
																							</g>
																						</g>
																					</g>
																				</g>
																			</g>
																		</g>
																	</g>
																</g>
															</g>
															<g>
																<g>
																	<g>
																		<g>
																			<g>
																				<g>
																					<g>
																						<g>
																							<g>
																								<g>
																									<g>
																										<g>
																											<path class="st4" d="M314.2,71.3c-0.2,0-0.3,1.5-1.7,2.5c-1.3,1-3,0.8-3,1c0,0.1,0.3,0.3,1,0.4
																												c0.7,0.1,1.7-0.1,2.5-0.7c0.8-0.6,1.2-1.5,1.3-2.1C314.5,71.6,314.3,71.3,314.2,71.3z"/>
																										</g>
																									</g>
																								</g>
																							</g>
																						</g>
																					</g>
																				</g>
																			</g>
																		</g>
																	</g>
																</g>
															</g>
														</g>
													</g>
												</g>
												<g>
													<g>
														<g>
															<g>
																<g>
																	<g>
																		<g>
																			<g>
																				<g>
																					<g>
																						<g>
																							<path class="st4" d="M315.8,55.8c0.1,0.4,1.5,0.3,3.1,0.6c1.6,0.3,2.9,0.8,3.2,0.5c0.1-0.2-0.1-0.5-0.6-0.9
																								c-0.5-0.4-1.3-0.8-2.3-0.9c-1-0.2-1.9-0.1-2.5,0.2C316,55.3,315.7,55.6,315.8,55.8z"/>
																						</g>
																					</g>
																				</g>
																			</g>
																		</g>
																	</g>
																</g>
															</g>
														</g>
													</g>
												</g>
												<g>
													<g>
														<g>
															<g>
																<g>
																	<g>
																		<g>
																			<g>
																				<g>
																					<g>
																						<g>
																							<path class="st4" d="M302.8,53c0.2,0.3,1.2,0.1,2.4,0.1c1.2,0,2.1,0.3,2.4,0c0.1-0.2,0-0.5-0.4-0.8
																								c-0.4-0.3-1.1-0.6-1.9-0.6c-0.8,0-1.5,0.2-1.9,0.5C302.9,52.5,302.7,52.8,302.8,53z"/>
																						</g>
																					</g>
																				</g>
																			</g>
																		</g>
																	</g>
																</g>
															</g>
														</g>
													</g>
												</g>
											</g>
										</g>
									</g>
								</g>
							</g>
						</g>
					</g>
					<g>
						<g>
							<g>
								<g>
									<g>
										<g>
											<g>
												<g>
													<g>
														<g>
															<g>
																<g>
																	<path class="st7" d="M329.5,68.6c0-0.8,1-2.5,1.8-2.6c2-0.2,5.6,0.1,5.3,5.2c-0.3,6.9-7.2,5.2-7.2,5
																		C329.4,76.1,329.3,71.2,329.5,68.6z"/>
																</g>
															</g>
														</g>
													</g>
												</g>
											</g>
										</g>
									</g>
								</g>
							</g>
						</g>
						<g>
							<g>
								<g>
									<g>
										<g>
											<g>
												<g>
													<g>
														<g>
															<g>
																<g>
																	<g>
																		<path class="st8" d="M331.6,73.7c0,0,0.1,0.1,0.3,0.2c0.2,0.1,0.5,0.2,0.9,0.1c0.7-0.2,1.4-1.4,1.5-2.6
																			c0-0.6-0.1-1.2-0.3-1.7c-0.2-0.5-0.5-0.9-0.9-1c-0.4-0.1-0.6,0.1-0.7,0.3c-0.1,0.2-0.1,0.3-0.1,0.3
																			c0,0-0.1-0.1-0.1-0.4c0-0.1,0.1-0.3,0.3-0.4c0.2-0.1,0.4-0.2,0.7-0.1c0.5,0.1,1,0.6,1.2,1.1
																			c0.2,0.6,0.4,1.2,0.3,1.9c-0.1,1.4-0.9,2.7-1.9,2.9c-0.5,0.1-0.9-0.1-1.1-0.2C331.6,73.9,331.6,73.7,331.6,73.7z"
																			/>
																	</g>
																</g>
															</g>
														</g>
													</g>
												</g>
											</g>
										</g>
									</g>
								</g>
							</g>
						</g>
					</g>
				</g>
				<g>
					<path class="st4" d="M310.7,41.1c0.4,3.4,2.7,6.4,5.9,7.6c1.7,0.6,3.7,0.9,4.7,2.5c0.9,1.6,0.2,3.7,1,5.4
						c1.2,2.3,4.9,2.4,5.7,4.8c0.4,1.1,0.1,2.3,0.4,3.3c0.5,1.4,2.2,2.1,3.7,1.7c1.4-0.3,2.6-1.5,3.2-2.9c0.6-1.3,0.9-2.8,1-4.3
						c0.4-2.9,0.6-5.9-0.1-8.7c-1.4-6-9.3-14.6-15.4-14.6"/>
				</g>
			</g>
			<g>
				<g>
					<path class="st4" d="M359.7,64.6c0,0,0-0.2-0.1-0.7c0-0.5-0.1-1.1-0.1-2c0-0.4-0.1-0.9-0.1-1.4c-0.1-0.5-0.2-1.1-0.3-1.7
						c-0.1-0.6-0.2-1.3-0.3-2c-0.1-0.7-0.4-1.4-0.5-2.2c-0.7-3.2-2.2-6.9-4.6-10.9c-2.4-4-5.8-8.1-10.4-11.6
						c-0.6-0.4-1.2-0.9-1.8-1.3c-0.6-0.4-1.3-0.8-1.9-1.2c-0.7-0.4-1.3-0.8-2-1.2c-0.7-0.3-1.4-0.7-2.1-1c-0.4-0.2-0.7-0.3-1.1-0.5
						c-0.4-0.1-0.8-0.3-1.1-0.4c-0.8-0.3-1.5-0.6-2.3-0.8c-0.8-0.3-1.6-0.4-2.4-0.6c-0.8-0.2-1.6-0.5-2.5-0.6
						c-1.7-0.2-3.4-0.6-5.2-0.6c-0.9,0-1.8-0.1-2.7-0.1c-0.9,0-1.8,0.1-2.7,0.1c-0.5,0-0.9,0-1.4,0.1l-1.4,0.2
						c-0.9,0.2-1.8,0.3-2.7,0.4c-1.8,0.5-3.7,0.9-5.4,1.6c-1.8,0.6-3.6,1.5-5.3,2.3c-0.9,0.5-1.7,1-2.5,1.5
						c-0.4,0.3-0.9,0.5-1.3,0.8l-1.2,0.9c-1.7,1.1-3.1,2.6-4.6,3.9c-0.7,0.8-1.4,1.5-2.1,2.3l-0.5,0.6l-0.5,0.6l-0.9,1.3l-0.9,1.3
						l-0.8,1.3l-0.8,1.4l-0.4,0.7l-0.3,0.7c-0.5,1-0.9,1.9-1.4,2.9c-0.4,1-0.7,2-1.1,3c-1.3,4.1-2,8.5-2.1,12.9
						c0.1,4.4,0.8,8.8,2.1,12.9c0.4,1,0.7,2,1.1,3c0.5,1,0.9,1.9,1.4,2.9l0.3,0.7l0.4,0.7l0.8,1.4l0.8,1.3l0.9,1.3l0.9,1.3l0.5,0.6
						l0.5,0.6c0.7,0.8,1.4,1.5,2.1,2.3c1.5,1.4,3,2.8,4.6,3.9l1.2,0.9c0.4,0.3,0.8,0.5,1.3,0.8c0.9,0.5,1.7,1.1,2.5,1.5
						c1.8,0.8,3.5,1.8,5.3,2.3c1.8,0.7,3.6,1.1,5.4,1.6c0.9,0.2,1.8,0.3,2.7,0.4l1.4,0.2c0.5,0.1,0.9,0.1,1.4,0.1
						c0.9,0,1.8,0.1,2.7,0.1c0.9,0,1.8-0.1,2.7-0.1c1.8,0,3.5-0.4,5.2-0.6c0.9-0.1,1.7-0.4,2.5-0.6c0.8-0.2,1.6-0.4,2.4-0.6
						c0.8-0.3,1.5-0.6,2.3-0.8c0.4-0.1,0.8-0.3,1.1-0.4c0.4-0.2,0.7-0.3,1.1-0.5c0.7-0.3,1.4-0.7,2.1-1c0.7-0.3,1.3-0.8,2-1.2
						c0.6-0.4,1.3-0.8,1.9-1.2c0.6-0.4,1.2-0.9,1.8-1.3c4.6-3.5,8-7.6,10.4-11.6c2.3-4,3.8-7.7,4.5-10.9c0.2-0.8,0.5-1.5,0.5-2.2
						c0.1-0.7,0.2-1.4,0.3-2c0.1-0.6,0.2-1.2,0.3-1.7c0-0.5,0.1-1,0.1-1.4c0.1-0.8,0.1-1.5,0.1-2C359.7,64.8,359.7,64.6,359.7,64.6
						s0,0.2,0,0.7c0,0.5,0,1.1-0.1,2c0,0.4,0,0.9-0.1,1.4c0,0.5-0.2,1.1-0.2,1.7c-0.1,0.6-0.2,1.3-0.3,2c-0.1,0.7-0.3,1.5-0.5,2.3
						c-0.7,3.2-2.2,7-4.5,11c-2.4,4-5.8,8.2-10.4,11.8c-0.6,0.4-1.2,0.9-1.8,1.3c-0.6,0.4-1.3,0.8-1.9,1.2c-0.7,0.4-1.3,0.8-2,1.2
						c-0.7,0.3-1.4,0.7-2.1,1c-0.4,0.2-0.7,0.3-1.1,0.5c-0.4,0.1-0.8,0.3-1.1,0.4c-0.8,0.3-1.5,0.6-2.3,0.9
						c-0.8,0.3-1.6,0.4-2.4,0.7c-0.8,0.2-1.6,0.5-2.5,0.6c-1.7,0.2-3.4,0.6-5.2,0.6c-0.9,0-1.8,0.1-2.7,0.1c-0.9,0-1.8-0.1-2.7-0.1
						c-0.5,0-0.9,0-1.4-0.1l-1.4-0.2c-0.9-0.2-1.9-0.3-2.8-0.4c-1.8-0.5-3.7-0.9-5.5-1.6c-1.9-0.6-3.6-1.5-5.4-2.4
						c-0.9-0.5-1.7-1-2.6-1.5c-0.4-0.3-0.9-0.5-1.3-0.8l-1.2-0.9c-1.7-1.2-3.2-2.6-4.7-4c-0.7-0.8-1.4-1.5-2.1-2.3l-0.5-0.6
						l-0.5-0.6l-0.9-1.3l-1-1.3l-0.8-1.4l-0.8-1.4l-0.4-0.7l-0.4-0.7c-0.5-1-0.9-1.9-1.4-2.9c-0.4-1-0.7-2-1.1-3.1
						c-1.4-4.2-2.1-8.6-2.1-13.1c0.1-4.5,0.8-8.9,2.1-13c0.4-1,0.8-2,1.1-3.1c0.5-1,0.9-1.9,1.4-2.9l0.4-0.7l0.4-0.7l0.8-1.4
						l0.8-1.4l1-1.3l0.9-1.3l0.5-0.6l0.5-0.6c0.7-0.8,1.4-1.5,2.1-2.3c1.5-1.4,3-2.8,4.7-4l1.2-0.9c0.4-0.3,0.9-0.5,1.3-0.8
						c0.9-0.5,1.7-1.1,2.6-1.5c1.8-0.9,3.5-1.8,5.4-2.4c1.8-0.7,3.7-1.1,5.5-1.6c0.9-0.2,1.9-0.3,2.8-0.4l1.4-0.2
						c0.5-0.1,0.9-0.1,1.4-0.1c0.9,0,1.8-0.1,2.7-0.1c0.9,0,1.8,0.1,2.7,0.1c1.8,0,3.5,0.4,5.2,0.6c0.9,0.1,1.7,0.4,2.5,0.6
						c0.8,0.2,1.6,0.4,2.4,0.7c0.8,0.3,1.6,0.6,2.3,0.9c0.4,0.1,0.8,0.3,1.1,0.4c0.4,0.2,0.7,0.3,1.1,0.5c0.7,0.3,1.4,0.7,2.1,1
						c0.7,0.3,1.3,0.8,2,1.2c0.7,0.4,1.3,0.8,1.9,1.2c0.6,0.5,1.2,0.9,1.8,1.3c4.7,3.6,8.1,7.8,10.4,11.8c2.3,4,3.8,7.8,4.5,11
						c0.2,0.8,0.4,1.5,0.5,2.3c0.1,0.7,0.2,1.4,0.3,2c0.1,0.6,0.2,1.2,0.2,1.7c0,0.5,0,1,0.1,1.4c0,0.8,0.1,1.5,0.1,2
						C359.7,64.3,359.7,64.6,359.7,64.6z"/>
				</g>
			</g>
		</g>
	</g>
</g>
<g id="Plants">
	<g>
		<g>
			<g>
				<g>
					<path class="st6" d="M125.2,423.3c0.8-3-1.2-5.9-3.3-8.1c-2.2-2.1-4.8-4.1-5.9-6.9c-1.8-4.6,0.6-10.5-2.5-14.4
						c-1.8-2.3-5.1-3-6.8-5.4c-0.9-1.3-1.1-2.8-1.5-4.3c-1.7-7.6-5.5-14.7-10.9-20.4c-0.4,6.8,1.1,13.6,4.3,19.6
						c1.3,2.4,2.8,4.8,3.2,7.4c0.7,4.4-1.8,8.9-0.7,13.2c1.2,4.9,6.7,8.2,7,13.2c0.2,4.3-3.5,8-3.2,12.3c0.1,1.8,1,3.5,1.9,5.1
						c3.3,5.5,8.1,9.3,15.5,9.1l9,0.3L125.2,423.3z"/>
				</g>
			</g>
		</g>
		<g class="st9">
			<g>
				<g>
					<g>
						<path d="M125.2,423.3c0.8-3-1.2-5.9-3.3-8.1c-2.2-2.1-4.8-4.1-5.9-6.9c-1.8-4.6,0.6-10.5-2.5-14.4c-1.8-2.3-5.1-3-6.8-5.4
							c-0.9-1.3-1.1-2.8-1.5-4.3c-1.7-7.6-5.5-14.7-10.9-20.4c-0.4,6.8,1.1,13.6,4.3,19.6c1.3,2.4,2.8,4.8,3.2,7.4
							c0.7,4.4-1.8,8.9-0.7,13.2c1.2,4.9,6.7,8.2,7,13.2c0.2,4.3-3.5,8-3.2,12.3c0.1,1.8,1,3.5,1.9,5.1c3.3,5.5,8.1,9.3,15.5,9.1
							l9,0.3L125.2,423.3z"/>
					</g>
				</g>
			</g>
		</g>
		<g>
			<g>
				<g>
					<g>
						<g>
							<g>
								<path class="st4" d="M133.2,444.4c0,0,0.9,0.2,2.5-0.1c0.8-0.1,1.8-0.3,2.9-0.7c1.1-0.4,2.4-1,3.6-2c0.6-0.5,1.2-1.1,1.5-2
									c0.3-0.8,0.4-1.7,0.4-2.7c0-0.9,0-1.9,0.2-2.9c0.2-1,0.5-2,1.1-2.9c1.1-1.9,2.8-3.6,3.4-6.2c0.6-2.5,0.2-5.2-0.2-7.9
									c-0.4-2.7-0.8-5.6,0.2-8.5c1-2.8,2.9-5.4,3.9-8.5c1-3.2,0.5-6.7,0.7-10.1c0.1-1.7,0.4-3.4,1.2-5c0.7-1.6,1.7-3.1,2.5-4.8
									c1.6-3.4,1.9-7.2,2.3-11c0.2-1.9,0.4-3.8,0.6-5.8c0.2-1.9,0.4-3.9,1-5.8c0.6-1.9,1.4-3.7,2.2-5.6c0.4-0.9,0.8-1.9,1-2.9
									c0.2-1.1,0.2-2.1,0.3-3.1c0.1-2.1,0-4.2-0.2-6.2c-0.2-2.1-0.6-4.1-0.8-6.2c0-0.1,0-0.2,0-0.4l0-0.4l-0.4,0.2
									c-1.9,1-3.6,2.4-4.8,4.1c-1.3,1.7-2.2,3.6-3,5.5c-1.5,3.9-2,7.9-2.8,11.8c-0.7,3.9-1.7,7.7-3.7,10.9c-1,1.6-2.2,3.1-3.2,4.6
									c-1,1.6-2,3.3-2.2,5.1c-0.5,3.8,1.6,7.2,1.1,10.5c-0.2,1.7-0.8,3.2-1.6,4.7c-0.8,1.4-1.8,2.8-2.7,4.1
									c-0.9,1.3-1.8,2.7-2.4,4.2c-0.6,1.4-1,3-1.1,4.5c-0.2,3,0.2,5.9,0,8.6c-0.2,2.7-1.1,5.2-2.2,7.4c-1.1,2.2-2.3,4.2-3.3,6.2
									c-0.5,1-1,1.9-1.4,2.9c-0.4,0.9-0.6,1.9-0.8,2.8c-0.3,1.9-0.3,3.6-0.1,5.1c0.4,3.1,1.5,5.3,2.6,6.6c0.2,0.3,0.5,0.6,0.7,0.8
									c0.2,0.2,0.4,0.4,0.6,0.5C133,444.3,133.2,444.4,133.2,444.4c0,0-0.7-0.5-1.7-1.7c-1-1.3-2.1-3.5-2.4-6.5
									c-0.2-1.5-0.2-3.2,0.1-5.1c0.2-0.9,0.4-1.9,0.8-2.8c0.4-0.9,0.9-1.9,1.4-2.8c1-1.9,2.2-3.9,3.4-6.1c1.1-2.2,2.1-4.7,2.3-7.5
									c0.2-2.8-0.2-5.7,0-8.6c0.1-1.5,0.5-3,1.1-4.4c0.6-1.4,1.5-2.7,2.4-4.1c0.9-1.3,1.9-2.7,2.7-4.1c0.8-1.5,1.5-3.1,1.7-4.9
									c0.4-3.6-1.6-7-1.1-10.5c0.3-1.8,1.1-3.4,2.2-4.9c1-1.5,2.2-3,3.2-4.6c2-3.3,3-7.2,3.8-11.1c0.8-3.9,1.3-7.9,2.8-11.7
									c0.7-1.9,1.7-3.7,2.9-5.3c1.2-1.6,2.8-3,4.6-3.9l-0.4-0.2c0,0.1,0,0.2,0,0.4c0.2,2.1,0.6,4.2,0.8,6.2
									c0.3,2.1,0.3,4.1,0.2,6.1c-0.1,1-0.1,2.1-0.3,3c-0.2,0.9-0.6,1.9-1,2.8c-0.8,1.9-1.6,3.7-2.2,5.6c-0.6,1.9-0.8,3.9-1,5.9
									c-0.2,1.9-0.4,3.9-0.6,5.8c-0.4,3.8-0.7,7.6-2.3,10.8c-0.8,1.6-1.8,3.1-2.5,4.8c-0.8,1.6-1.1,3.4-1.2,5.2
									c-0.2,3.5,0.3,6.9-0.7,9.9c-0.9,3.1-2.9,5.6-3.9,8.5c-1.1,2.9-0.6,6-0.2,8.7c0.4,2.7,0.9,5.3,0.3,7.7
									c-0.5,2.4-2.2,4.2-3.3,6.1c-0.6,1-1,2-1.1,3c-0.2,1-0.1,2-0.2,2.9c0,0.9-0.1,1.8-0.4,2.6c-0.3,0.8-0.8,1.4-1.4,1.9
									c-1.2,1-2.4,1.6-3.5,2c-1.1,0.4-2.1,0.6-2.9,0.8c-0.8,0.1-1.4,0.2-1.8,0.2C133.4,444.4,133.2,444.4,133.2,444.4z"/>
							</g>
						</g>
					</g>
				</g>
				<g>
					<g>
						<g>
							<g>
								<path class="st4" d="M161.6,338.3c0,0,0,0.1-0.1,0.3c-0.1,0.2-0.1,0.5-0.2,0.8c-0.2,0.7-0.4,1.8-0.7,3.1
									c-0.4,1.3-1.2,2.8-1.9,4.7c-0.7,1.8-1.5,4-2.1,6.4c-0.7,2.4-1.3,5.1-1.9,7.9c-0.7,2.9-1.3,5.9-2.9,8.8
									c-0.7,1.5-1.6,2.9-2.2,4.6c-0.7,1.6-1,3.4-1.3,5.2c-0.4,3.6-1.1,7.2-1.9,10.9c-1.8,7.4-3.5,14.4-5.1,20.8
									c-1.6,6.4-3,12.1-4.3,17c-1.2,4.8-2.1,8.7-2.8,11.4c-0.3,1.3-0.6,2.4-0.7,3.1c-0.1,0.3-0.1,0.6-0.2,0.8c0,0.2-0.1,0.3,0,0.3
									c0,0,0-0.1,0.1-0.3c0.1-0.2,0.1-0.5,0.2-0.8c0.2-0.8,0.5-1.8,0.8-3.1c0.7-2.7,1.7-6.6,3-11.4c1.3-4.8,2.7-10.6,4.4-16.9
									c1.6-6.4,3.3-13.4,5.1-20.8c0.9-3.7,1.5-7.4,1.9-10.9c0.3-1.8,0.6-3.5,1.2-5c0.6-1.6,1.5-3.1,2.2-4.5
									c1.6-2.9,2.2-6.1,2.9-8.9c0.6-2.9,1.2-5.5,1.9-7.9c0.6-2.4,1.4-4.5,2-6.4c0.7-1.9,1.5-3.4,1.8-4.8c0.3-1.4,0.5-2.4,0.6-3.2
									c0.1-0.3,0.1-0.6,0.1-0.8C161.6,338.4,161.6,338.3,161.6,338.3z"/>
							</g>
						</g>
					</g>
				</g>
			</g>
			<g>
				<g>
					<g>
						<g>
							<path class="st6" d="M134.8,444.4c5.9-3.5,7.6-14.1,5.1-20.5c-2.5-6.4-6.7-12.2-7.4-19c-0.5-5.2,1.2-10.6,0-15.7
								c-1.6-6.9-8.4-12.2-8.3-19.3c0-4,2.3-7.7,2.1-11.7c-0.2-4.9-4-8.7-6.3-13c-3.5-6.6-3.8-14.4-5-21.7
								c-1.2-7.4-4-15.3-10.6-18.9c-1,6.3-2.6,10.5-2.1,19c0.2,3,3.7,8.9,4.2,15.6c0.3,4,0.5,8,0.7,12c0.2,3.9,0.5,7.8,1.9,11.5
								c1.1,2.8,2.8,5.3,3.6,8.2c1.5,5.4-0.5,11.3,0.7,16.8c1,4.6,4.2,8.6,4.9,13.4c0.9,6.6-3.4,13.5-1.2,19.8
								c1.1,3.1,3.7,5.6,4.4,8.9c0.6,2.5-0.1,5.2,0.5,7.7c0.8,4.1,8.6,7.2,12.7,7"/>
						</g>
					</g>
				</g>
				<g>
					<g>
						<g>
							<g>
								<path class="st4" d="M106.1,310.7c0,0,0,0.1,0,0.4c0,0.3,0.1,0.6,0.1,1c0.1,0.9,0.3,2.2,0.6,3.9c0.3,1.7,1.2,3.7,1.9,6
									c0.8,2.3,1.5,5,2.2,8.1c0.7,3,1.2,6.4,1.8,9.9c0.6,3.6,1.2,7.5,3,11.2c0.8,1.9,1.8,3.8,2.4,5.8c0.7,2,1,4.1,1.2,6.4
									c0.3,4.4,0.9,9,1.7,13.7c1.8,9.3,3.5,18.1,5.1,26.2c1.6,8,3.1,15.2,4.4,21.3c1.3,6,2.3,10.9,3,14.4c0.4,1.7,0.6,3,0.8,3.9
									c0.1,0.4,0.2,0.8,0.2,1c0.1,0.2,0.1,0.3,0.1,0.3c0,0,0-0.1,0-0.4c0-0.3-0.1-0.6-0.2-1c-0.2-0.9-0.4-2.2-0.7-3.9
									c-0.7-3.4-1.6-8.3-2.8-14.4c-1.2-6.1-2.7-13.3-4.3-21.3c-1.5-8-3.2-16.9-5-26.2c-0.8-4.7-1.4-9.2-1.7-13.7
									c-0.2-2.2-0.5-4.4-1.3-6.5c-0.7-2-1.7-3.9-2.5-5.8c-1.8-3.7-2.4-7.5-3-11.1c-0.6-3.6-1.2-6.9-1.9-10c-0.7-3-1.5-5.7-2.2-8.1
									c-0.7-2.4-1.7-4.3-2-6c-0.3-1.7-0.5-3-0.7-3.9c-0.1-0.4-0.1-0.8-0.2-1C106.1,310.8,106.1,310.7,106.1,310.7z"/>
							</g>
						</g>
					</g>
				</g>
			</g>
		</g>
	</g>
	<g>
		<g>
			<g>
				<path class="st6" d="M367.1,393.6c2.6,0.5,4.8,2.3,6.3,4.5c1.4,2.2,2.1,4.9,2.4,7.5c0.6,5.1-1.1,10.7-3.2,15.4
					c-5-2.7-7.4-8.8-8.4-12C362.5,403.9,362.6,393.8,367.1,393.6"/>
			</g>
		</g>
		<g>
			<g>
				<path class="st6" d="M379.3,428c-1.3-2.6-0.9-6,0.9-8.4c1.7-2.4,4.5-3.9,7.4-4.3c1.3-0.2,2.9-0.1,3.9,0.8
					c0.9,0.9,1.2,2.3,0.9,3.5c-0.3,1.2-1.1,2.3-2,3.2C387.2,425.8,383.7,428.3,379.3,428"/>
			</g>
		</g>
		<g>
			<g>
				<g>
					<path class="st4" d="M377.5,444.4c0,0-0.1-0.4-0.1-1c0-0.7-0.1-1.7-0.1-2.9c-0.1-2.4-0.2-5.8,0.8-9.4c1-3.6,3-6.5,4.8-8.1
						c0.9-0.8,1.7-1.4,2.3-1.7c0.3-0.2,0.5-0.3,0.7-0.4c0.2-0.1,0.3-0.1,0.3-0.1c0,0.1-1.4,0.7-3.1,2.4c-1.7,1.7-3.6,4.5-4.6,8.1
						c-1,3.5-0.9,6.9-0.9,9.3c0,1.2,0,2.2,0,2.9C377.5,444,377.5,444.4,377.5,444.4z"/>
				</g>
			</g>
		</g>
		<g>
			<g>
				<g>
					<path class="st4" d="M367.7,401.3c0,0,0.1,0.1,0.2,0.4c0.1,0.3,0.2,0.7,0.4,1.3c0.3,1.1,0.7,2.7,1.3,4.7
						c1,3.9,2.4,9.4,3.8,15.5c1.4,6.1,2.5,11.6,3.2,15.6c0.4,2,0.7,3.6,0.8,4.7c0.1,0.5,0.2,1,0.2,1.3c0,0.3,0.1,0.5,0,0.5
						c0,0-0.1-0.2-0.1-0.4c-0.1-0.3-0.2-0.8-0.3-1.3c-0.2-1.2-0.6-2.8-1-4.7c-0.8-4-2-9.5-3.3-15.5c-1.4-6.1-2.7-11.5-3.7-15.5
						c-0.5-1.9-0.9-3.5-1.2-4.7c-0.1-0.5-0.2-0.9-0.3-1.3C367.7,401.4,367.7,401.3,367.7,401.3z"/>
				</g>
			</g>
		</g>
		<g>
			<g>
				<path class="st6" d="M372.8,432.7c-2.3-5.8-7.6-10.3-13.7-11.6c-1.5-0.3-3.5-0.4-4.4,0.9c-0.9,1.3-0.2,3.1,0.7,4.4
					c3.7,5.5,11,8.3,17.4,6.7"/>
			</g>
		</g>
		<g>
			<g>
				<g>
					<path class="st4" d="M360.9,425.6c0,0,0.4,0,1,0.2c0.3,0.1,0.7,0.2,1.1,0.3c0.4,0.1,0.9,0.3,1.5,0.5c0.5,0.2,1.1,0.4,1.7,0.8
						c0.6,0.3,1.2,0.7,1.9,1.1c1.3,0.8,2.6,1.8,3.8,3.1c1.2,1.3,2.2,2.6,2.9,3.9c0.4,0.7,0.7,1.3,1,1.9c0.3,0.6,0.5,1.2,0.7,1.7
						c0.2,0.5,0.3,1,0.4,1.5c0.1,0.4,0.2,0.8,0.2,1.1c0.1,0.6,0.1,1,0.1,1c-0.1,0-0.3-1.4-1-3.5c-0.2-0.5-0.4-1.1-0.7-1.7
						c-0.3-0.6-0.6-1.2-1-1.9c-0.8-1.3-1.7-2.6-2.9-3.9c-1.2-1.2-2.5-2.3-3.7-3.1c-0.6-0.4-1.2-0.8-1.8-1.1
						c-0.6-0.3-1.2-0.6-1.7-0.8C362.2,425.9,360.9,425.7,360.9,425.6z"/>
				</g>
			</g>
		</g>
	</g>
</g>
<g id="Character_4">
	<g>
		<g>
			<path class="st4" d="M366.1,198.8c0,0.1-11.2,3.3-25.1,7c-13.9,3.7-25.2,6.6-25.2,6.5c0-0.1,11.2-3.3,25.1-7
				C354.7,201.5,366,198.6,366.1,198.8z"/>
		</g>
		<g>
			
				<ellipse transform="matrix(0.2247 -0.9744 0.9744 0.2247 131.9818 543.7911)" class="st5" cx="407.7" cy="189" rx="52.2" ry="52.2"/>
			<g>
				<path class="st4" d="M459.9,189c0,0,0-0.3-0.1-0.8c0-0.6-0.1-1.4-0.2-2.5c0-0.5-0.1-1.2-0.1-1.8c-0.1-0.7-0.2-1.4-0.3-2.2
					c-0.1-0.8-0.3-1.6-0.4-2.5c-0.1-0.5-0.2-0.9-0.3-1.4c-0.1-0.5-0.3-1-0.4-1.5c-0.9-4-2.8-8.8-5.8-13.9c-3-5-7.3-10.3-13.2-14.8
					c-0.7-0.6-1.5-1.1-2.2-1.7c-0.8-0.5-1.6-1-2.4-1.5c-0.8-0.5-1.6-1.1-2.5-1.5c-0.9-0.4-1.8-0.9-2.7-1.3c-0.5-0.2-0.9-0.4-1.4-0.7
					c-0.5-0.2-1-0.3-1.4-0.5c-1-0.4-1.9-0.7-2.9-1.1c-1-0.3-2-0.5-3.1-0.8c-1-0.2-2.1-0.6-3.1-0.7c-2.1-0.3-4.3-0.7-6.6-0.8
					c-1.1,0-2.2-0.1-3.4-0.1c-1.1,0.1-2.3,0.1-3.4,0.2c-0.6,0-1.2,0-1.7,0.1c-0.6,0.1-1.2,0.2-1.7,0.3c-1.2,0.2-2.3,0.3-3.5,0.6
					c-2.3,0.6-4.7,1.1-6.9,2c-0.6,0.2-1.1,0.4-1.7,0.6c-0.3,0.1-0.6,0.2-0.9,0.3l-0.8,0.4c-1.1,0.5-2.2,1.1-3.4,1.6
					c-1.1,0.6-2.1,1.3-3.2,1.9c-0.5,0.3-1.1,0.6-1.6,1l-1.5,1.1c-2.1,1.4-4,3.3-5.9,5c-0.9,1-1.8,1.9-2.6,2.9l-0.7,0.7l-0.6,0.8
					l-1.2,1.6l-1.2,1.6l-1,1.7l-1,1.7l-0.5,0.9c-0.2,0.3-0.3,0.6-0.4,0.9c-0.6,1.2-1.2,2.4-1.8,3.7c-0.5,1.3-0.9,2.6-1.4,3.8
					c-1.7,5.2-2.6,10.7-2.7,16.4c0.1,5.6,1,11.2,2.7,16.4c0.5,1.3,0.9,2.6,1.4,3.8c0.6,1.2,1.2,2.4,1.8,3.7l0.4,0.9l0.5,0.9l1,1.7
					l1,1.7l1.2,1.6l1.2,1.6l0.6,0.8l0.7,0.7c0.9,1,1.8,1.9,2.6,2.9c1.9,1.7,3.8,3.6,5.9,5l1.5,1.1c0.5,0.4,1.1,0.7,1.6,1
					c1.1,0.6,2.1,1.3,3.2,1.9c1.1,0.5,2.2,1.1,3.4,1.6l0.8,0.4c0.3,0.1,0.6,0.2,0.9,0.3c0.6,0.2,1.2,0.4,1.7,0.6
					c2.3,0.9,4.6,1.4,6.9,2c1.2,0.2,2.3,0.4,3.5,0.6c0.6,0.1,1.2,0.2,1.7,0.3c0.6,0.1,1.2,0.1,1.7,0.1c1.2,0.1,2.3,0.1,3.4,0.2
					c1.1,0,2.3-0.1,3.4-0.1c2.2,0,4.4-0.5,6.6-0.8c1.1-0.1,2.1-0.5,3.1-0.7c1-0.3,2.1-0.5,3.1-0.8c1-0.4,2-0.7,2.9-1.1
					c0.5-0.2,1-0.4,1.4-0.5c0.5-0.2,0.9-0.4,1.4-0.7c0.9-0.4,1.8-0.9,2.7-1.3c0.9-0.4,1.7-1,2.5-1.5c0.8-0.5,1.7-1,2.4-1.5
					c0.8-0.6,1.5-1.1,2.2-1.7c5.9-4.5,10.2-9.7,13.2-14.8c3-5.1,4.9-9.8,5.8-13.9c0.1-0.5,0.3-1,0.4-1.5c0.1-0.5,0.2-0.9,0.3-1.4
					c0.1-0.9,0.3-1.8,0.4-2.5c0.1-0.8,0.3-1.5,0.3-2.2c0-0.7,0.1-1.3,0.1-1.8c0.1-1.1,0.1-1.9,0.2-2.5
					C459.9,189.2,459.9,189,459.9,189s0,0.3,0,0.8c0,0.6-0.1,1.4-0.1,2.5c0,0.5-0.1,1.2-0.1,1.8c-0.1,0.7-0.2,1.4-0.3,2.2
					c-0.1,0.8-0.2,1.6-0.4,2.6c-0.1,0.5-0.2,0.9-0.3,1.4c-0.1,0.5-0.2,1-0.4,1.5c-0.9,4.1-2.7,8.9-5.7,14c-3,5.1-7.3,10.4-13.2,14.9
					c-0.7,0.6-1.5,1.1-2.3,1.7c-0.8,0.5-1.6,1-2.5,1.5c-0.8,0.5-1.6,1.1-2.5,1.5c-0.9,0.4-1.8,0.9-2.7,1.3c-0.5,0.2-0.9,0.4-1.4,0.7
					c-0.5,0.2-1,0.4-1.5,0.5c-1,0.4-2,0.7-2.9,1.1c-1,0.3-2,0.6-3.1,0.8c-1,0.2-2.1,0.6-3.2,0.7c-2.2,0.3-4.4,0.8-6.6,0.8
					c-1.1,0-2.3,0.2-3.4,0.1c-1.1-0.1-2.3-0.1-3.5-0.2c-0.6,0-1.2,0-1.8-0.1c-0.6-0.1-1.2-0.2-1.7-0.3c-1.2-0.2-2.4-0.3-3.5-0.6
					c-2.3-0.6-4.7-1.1-7-2c-0.6-0.2-1.2-0.4-1.7-0.6c-0.3-0.1-0.6-0.2-0.9-0.3l-0.8-0.4c-1.1-0.5-2.3-1.1-3.4-1.6
					c-1.1-0.6-2.2-1.3-3.3-1.9c-0.5-0.3-1.1-0.6-1.6-1l-1.5-1.2c-2.1-1.5-4-3.3-6-5c-0.9-1-1.8-2-2.7-2.9l-0.7-0.7l-0.6-0.8
					l-1.2-1.6l-1.2-1.6l-1.1-1.7l-1.1-1.7l-0.5-0.9l-0.4-0.9c-0.6-1.2-1.2-2.5-1.8-3.7c-0.5-1.3-0.9-2.6-1.4-3.9
					c-1.7-5.3-2.6-10.9-2.7-16.5c0.1-5.7,1-11.3,2.7-16.5c0.5-1.3,1-2.6,1.4-3.9c0.6-1.2,1.2-2.5,1.8-3.7c0.2-0.3,0.3-0.6,0.4-0.9
					l0.5-0.9l1.1-1.7l1.1-1.7l1.2-1.6l1.2-1.6l0.6-0.8l0.7-0.7c0.9-1,1.8-2,2.7-2.9c2-1.8,3.8-3.6,6-5l1.5-1.2
					c0.5-0.4,1.1-0.7,1.6-1c1.1-0.6,2.2-1.3,3.3-1.9c1.1-0.5,2.3-1.1,3.4-1.6l0.8-0.4c0.3-0.1,0.6-0.2,0.9-0.3
					c0.6-0.2,1.2-0.4,1.7-0.6c2.3-0.9,4.7-1.4,7-2c1.2-0.2,2.4-0.4,3.5-0.6c0.6-0.1,1.2-0.2,1.7-0.3c0.6-0.1,1.2-0.1,1.8-0.1
					c1.2-0.1,2.3-0.1,3.5-0.2c1.1,0,2.3,0.1,3.4,0.1c2.3,0,4.5,0.5,6.6,0.8c1.1,0.1,2.1,0.5,3.2,0.7c1,0.3,2.1,0.5,3.1,0.8
					c1,0.4,2,0.7,2.9,1.1c0.5,0.2,1,0.4,1.5,0.5c0.5,0.2,0.9,0.4,1.4,0.7c0.9,0.4,1.8,0.9,2.7,1.3c0.9,0.4,1.7,1,2.5,1.5
					c0.8,0.5,1.7,1,2.5,1.5c0.8,0.6,1.5,1.1,2.3,1.7c5.9,4.5,10.3,9.8,13.2,14.9c3,5.1,4.8,9.9,5.7,14c0.1,0.5,0.3,1,0.4,1.5
					c0.1,0.5,0.2,0.9,0.3,1.4c0.1,0.9,0.3,1.8,0.4,2.6c0.1,0.8,0.2,1.5,0.3,2.2c0,0.7,0.1,1.3,0.1,1.8c0,1.1,0.1,1.9,0.1,2.5
					C459.9,188.7,459.9,189,459.9,189z"/>
			</g>
			<path class="st4" d="M368.9,223.8c0,0,6.6-7.3,8.3-8.1c1.7-0.8,16.6-4.9,16.6-4.9l23.7-1.4l25.3,10.9c0,0,3.3,2.4,3.8,3.9
				C447.2,225,409.3,262.5,368.9,223.8z"/>
			<g>
				<g>
					<g>
						<g>
							<g>
								<g>
									<path class="st4" d="M383.8,148.3c4-1.1,8.1,2.6,12.2,2c2.5-0.4,4.4-2.3,6.7-3.5c3.4-1.7,8-1.9,11.4,0
										c3.3,1.8,5.4,3.7,5.8,7.5c3.1-1.7,8.1,2.4,9.7,6.2c1.6,3.8,1,7.6-0.1,11.6c-1.9,6.8-5.2,13.2-9.6,18.8
										c-0.4,0.5-1,1-1.6,0.7c-0.4-0.2-0.5-0.7-0.6-1.1c-0.5-3.7,0.1-7.4,0.6-11.1c0.4-3.7,0.7-7.5-0.3-11c-1-3.6-3.7-6.8-7.3-7.7
										c-2.7-0.6-5.5,0.2-7.9,1.4c-2.4,1.3-4.6,3-6.9,4.4c-2.3,1.4-4.9,2.6-7.6,2.7c-2.7,0-5.6-1.4-6.7-3.9c-1.1-2.5,0.3-6,3-6.5
										c-2.4-0.3-4.5-2.5-4.7-5C379.7,151.4,381.5,148.9,383.8,148.3z"/>
								</g>
							</g>
							<g>
								<g>
									<g>
										<g>
											<g>
												<g>
													<g>
														<g>
															<g>
																<g>
																	<g>
																		<g>
																			<g>
																				<g>
																					<g>
																						<g>
																							<path class="st7" d="M423.7,172.9l-5.4,41.2c-0.9,7-7.5,11.8-14.4,10.6l0,0c-6.5-1.2-10.9-7.2-10-13.8
																								c0.4-3.1,0.7-5.7,0.8-6c0,0-10.3-2.3-9.8-12.8c0.3-5.1,1.7-15.4,3.1-24.8c1.5-10.1,10.5-17.3,20.7-16.6
																								l1,0.1C420.5,152.1,425.4,162.1,423.7,172.9z"/>
																						</g>
																					</g>
																				</g>
																			</g>
																		</g>
																	</g>
																</g>
															</g>
														</g>
													</g>
													<g>
														<g>
															<g>
																<g>
																	<g>
																		<g>
																			<g>
																				<g>
																					<g>
																						<g>
																							<path class="st8" d="M394.6,204.7c0,0,6.6,1,13.9-2.9c0,0-3.7,7.3-14.1,5.6L394.6,204.7z"/>
																						</g>
																					</g>
																				</g>
																			</g>
																		</g>
																	</g>
																</g>
															</g>
														</g>
													</g>
												</g>
											</g>
										</g>
										<g>
											<g>
												<g>
													<g>
														<g>
															<g>
																<g>
																	<g>
																		<g>
																			<g>
																				<g>
																					<g>
																						<g>
																							<g>
																								<g>
																									<g>
																										<path class="st4" d="M390.5,174.7c-0.1,0.8,0.5,1.5,1.3,1.6c0.8,0.1,1.5-0.5,1.6-1.2
																											c0.1-0.8-0.5-1.5-1.3-1.6C391.3,173.4,390.6,173.9,390.5,174.7z"/>
																									</g>
																								</g>
																							</g>
																						</g>
																					</g>
																				</g>
																			</g>
																		</g>
																	</g>
																</g>
																<g>
																	<g>
																		<g>
																			<g>
																				<g>
																					<g>
																						<g>
																							<g>
																								<g>
																									<g>
																										<g>
																											<path class="st4" d="M389.9,172.5c0.2,0.2,1.4-0.6,3-0.4c1.6,0.1,2.7,1,2.9,0.8c0.1-0.1-0.1-0.4-0.6-0.9
																												c-0.5-0.4-1.3-0.8-2.3-0.9c-1-0.1-1.9,0.2-2.4,0.6C390,172.1,389.8,172.4,389.9,172.5z"/>
																										</g>
																									</g>
																								</g>
																							</g>
																						</g>
																					</g>
																				</g>
																			</g>
																		</g>
																	</g>
																</g>
															</g>
															<g>
																<g>
																	<g>
																		<g>
																			<g>
																				<g>
																					<g>
																						<g>
																							<g>
																								<g>
																									<g>
																										<path class="st4" d="M405.7,176.2c-0.1,0.8,0.5,1.5,1.3,1.6c0.8,0.1,1.6-0.5,1.6-1.2
																											c0.1-0.8-0.5-1.5-1.3-1.6C406.5,174.8,405.8,175.4,405.7,176.2z"/>
																									</g>
																								</g>
																							</g>
																						</g>
																					</g>
																				</g>
																			</g>
																		</g>
																	</g>
																</g>
																<g>
																	<g>
																		<g>
																			<g>
																				<g>
																					<g>
																						<g>
																							<g>
																								<g>
																									<g>
																										<g>
																											<path class="st4" d="M405.6,173.9c0.2,0.2,1.4-0.6,3-0.4c1.6,0.1,2.7,1,2.9,0.8c0.1-0.1-0.1-0.4-0.6-0.9
																												c-0.5-0.4-1.3-0.8-2.3-0.9c-1-0.1-1.9,0.2-2.4,0.6C405.8,173.5,405.6,173.8,405.6,173.9z"/>
																										</g>
																									</g>
																								</g>
																							</g>
																						</g>
																					</g>
																				</g>
																			</g>
																		</g>
																	</g>
																</g>
															</g>
															<g>
																<g>
																	<g>
																		<g>
																			<g>
																				<g>
																					<g>
																						<g>
																							<g>
																								<g>
																									<g>
																										<path class="st4" d="M399,185.4c0-0.1-1-0.3-2.6-0.7c-0.4-0.1-0.8-0.2-0.8-0.5c-0.1-0.3,0.1-0.7,0.4-1.2
																											c0.5-1,0.9-2,1.4-3c2-4.3,3.5-7.9,3.3-8c-0.2-0.1-1.9,3.4-3.9,7.7c-0.5,1.1-0.9,2.1-1.4,3.1
																											c-0.2,0.5-0.5,1-0.3,1.6c0.1,0.3,0.4,0.6,0.6,0.6c0.3,0.1,0.5,0.1,0.7,0.1C398,185.4,399,185.5,399,185.4
																											z"/>
																									</g>
																								</g>
																							</g>
																						</g>
																					</g>
																				</g>
																			</g>
																		</g>
																	</g>
																</g>
															</g>
															<g>
																<g>
																	<g>
																		<g>
																			<g>
																				<g>
																					<g>
																						<g>
																							<g>
																								<g>
																									<g>
																										<path class="st4" d="M403.6,186.8c-0.3,0-0.4,1.7-2,2.8c-1.6,1.1-3.4,0.8-3.5,1.1c0,0.1,0.4,0.4,1.2,0.4
																											c0.8,0.1,1.9-0.1,2.9-0.8c1-0.7,1.4-1.7,1.5-2.4C403.9,187.3,403.8,186.8,403.6,186.8z"/>
																									</g>
																								</g>
																							</g>
																						</g>
																					</g>
																				</g>
																			</g>
																		</g>
																	</g>
																</g>
															</g>
														</g>
													</g>
												</g>
												<g>
													<g>
														<g>
															<g>
																<g>
																	<g>
																		<g>
																			<g>
																				<g>
																					<g>
																						<path class="st4" d="M405.7,167.6c0.1,0.4,1.7,0.4,3.6,0.7c1.9,0.3,3.4,1,3.6,0.6c0.1-0.2-0.1-0.6-0.7-1.1
																							c-0.6-0.5-1.5-0.9-2.6-1.1c-1.1-0.2-2.2-0.1-2.9,0.1C406,167,405.6,167.3,405.7,167.6z"/>
																					</g>
																				</g>
																			</g>
																		</g>
																	</g>
																</g>
															</g>
														</g>
													</g>
												</g>
												<g>
													<g>
														<g>
															<g>
																<g>
																	<g>
																		<g>
																			<g>
																				<g>
																					<g>
																						<path class="st4" d="M390.8,167.9c0.3,0.4,1.4,0.1,2.7,0.2c1.3,0,2.4,0.4,2.7,0.1c0.1-0.2,0-0.6-0.5-0.9
																							c-0.5-0.4-1.3-0.7-2.2-0.8c-0.9,0-1.7,0.2-2.2,0.6C390.8,167.3,390.7,167.7,390.8,167.9z"/>
																					</g>
																				</g>
																			</g>
																		</g>
																	</g>
																</g>
															</g>
														</g>
													</g>
												</g>
											</g>
										</g>
									</g>
								</g>
							</g>
							<g>
								<g>
									<g>
										<g>
											<g>
												<g>
													<g>
														<g>
															<g>
																<g>
																	<g>
																		<path class="st7" d="M422.3,180.6c0.2-0.1,7.3-1.6,6.6,5.5c-0.7,7.1-7.7,4.9-7.7,4.7
																			C421.2,190.6,422.3,180.6,422.3,180.6z"/>
																	</g>
																</g>
															</g>
														</g>
													</g>
												</g>
											</g>
										</g>
									</g>
								</g>
								<g>
									<g>
										<g>
											<g>
												<g>
													<g>
														<g>
															<g>
																<g>
																	<g>
																		<g>
																			<path class="st8" d="M423.6,188.3c0,0,0.1,0.1,0.3,0.2c0.2,0.1,0.5,0.2,0.9,0.1c0.8-0.2,1.5-1.3,1.7-2.6
																				c0.1-0.6,0-1.3-0.2-1.8c-0.2-0.5-0.5-0.9-0.8-1c-0.4-0.1-0.7,0.1-0.8,0.3c-0.1,0.2-0.1,0.3-0.1,0.3
																				c0,0-0.1-0.1-0.1-0.4c0-0.1,0.1-0.3,0.3-0.4c0.2-0.1,0.4-0.2,0.7-0.1c0.5,0.1,1,0.6,1.2,1.2
																				c0.2,0.6,0.3,1.3,0.2,2c-0.2,1.4-1.1,2.7-2.1,2.9c-0.5,0.1-0.9-0.1-1.1-0.3C423.6,188.5,423.6,188.3,423.6,188.3
																				z"/>
																		</g>
																	</g>
																</g>
															</g>
														</g>
													</g>
												</g>
											</g>
										</g>
									</g>
								</g>
							</g>
							<g>
								<g>
									<g>
										<path class="st4" d="M385.9,164.9c4.5,1.5,9.8,0.7,13.6-2.1c2.7-2,4.9-4.9,8.1-5.7c2.2-0.5,4.5,0.1,6.4,1.3
											c1.9,1.2,3.4,3,4.6,4.9c-2.4,5.2-1.4,11.2-0.4,16.8c0.1,0.6,0.2,1.3,0.7,1.7c0.8,0.7,2.1,0.3,2.9-0.4
											c1.3-1.2,1.8-2.9,2.3-4.5c1-3.8,1.3-7.7,0.7-11.6c-0.6-3.9-2.2-7.6-4.8-10.5c-3.3-3.6-8.1-5.7-13-5.9
											c-4.9-0.3-9.8,1.2-13.8,3.9c-1.9,1.2-3.7,2.8-4.7,4.8"/>
									</g>
								</g>
							</g>
						</g>
						<g>
							<g>
								<g>
									<path class="st10" d="M380.7,150.6c0,0-0.1,0.2,0,0.6c0.1,0.4,0.3,1,0.9,1.5c0.6,0.5,1.5,1,2.6,1.1c0.6,0.1,1.1,0.1,1.8,0
										c0.6-0.1,1.3-0.3,1.9-0.7c0.6-0.4,1-1.1,1-2c0-0.8-0.6-1.6-1.4-1.9c-0.4-0.2-0.8-0.3-1.3-0.3c-0.4,0-0.9,0.2-1.3,0.5
										c-0.8,0.5-1.2,1.5-1.2,2.4c-0.1,1,0.3,2,0.9,2.7c0.6,0.8,1.5,1.3,2.5,1.6c1.9,0.7,4.2,0.5,6.2-0.2c2-0.7,3.8-1.8,5.5-2.8
										c1.7-1,3.3-2.1,5-2.7c1.7-0.7,3.4-1,5-0.9c1.6,0.1,3,0.7,4.2,1.4c2.4,1.4,3.7,3.3,4.4,4.6c0.4,0.7,0.6,1.2,0.8,1.6
										c0.2,0.4,0.2,0.6,0.3,0.6c0,0,0-0.1,0-0.2c0-0.1-0.1-0.2-0.2-0.4c-0.1-0.4-0.4-0.9-0.7-1.6c-0.7-1.3-2-3.3-4.4-4.8
										c-1.2-0.7-2.7-1.3-4.3-1.5c-1.6-0.2-3.4,0.1-5.1,0.8c-1.7,0.7-3.4,1.7-5.1,2.7c-1.7,1-3.5,2.1-5.4,2.8
										c-2,0.7-4.1,0.9-5.9,0.2c-0.9-0.3-1.7-0.8-2.3-1.5c-0.6-0.7-0.9-1.6-0.9-2.5c0.1-0.9,0.4-1.7,1.1-2.2
										c0.6-0.5,1.5-0.5,2.2-0.2c0.7,0.3,1.2,1,1.2,1.7c0,0.7-0.4,1.3-0.9,1.8c-0.5,0.4-1.2,0.6-1.8,0.7c-0.6,0.1-1.2,0.1-1.7,0
										c-1.1-0.1-2-0.5-2.5-1c-0.6-0.5-0.8-1.1-0.9-1.5C380.6,150.8,380.7,150.6,380.7,150.6z"/>
								</g>
							</g>
						</g>
						<g>
							<g>
								<g>
									<path class="st10" d="M430.4,166.6c0-0.1-0.8,0.4-2.2,0.4c-0.7,0-1.5-0.1-2.4-0.4c-0.9-0.3-1.7-0.8-2.6-1.5
										c-1.7-1.3-2.6-3.1-2.9-4.5c-0.3-1.4-0.3-2.2-0.3-2.2c0,0-0.1,0.2-0.1,0.6c0,0.4,0,1,0.2,1.7c0.3,1.4,1.2,3.3,2.9,4.7
										c0.9,0.7,1.8,1.2,2.7,1.5c0.9,0.3,1.8,0.4,2.5,0.4c0.7-0.1,1.3-0.2,1.7-0.4C430.2,166.7,430.4,166.6,430.4,166.6z"/>
								</g>
							</g>
						</g>
						<g>
							<g>
								<g>
									<path class="st10" d="M429.7,171.8c0-0.1-0.9,0.1-2.2-0.1c-1.3-0.2-3.2-0.7-4.8-2c-1.6-1.3-2.6-2.9-3.1-4.1
										c-0.5-1.3-0.6-2.1-0.7-2.1c0,0,0,0.2,0,0.6c0.1,0.4,0.2,0.9,0.4,1.6c0.5,1.3,1.5,3,3.2,4.3c1.7,1.3,3.6,1.8,5,1.9
										c0.7,0.1,1.3,0,1.6,0C429.5,171.8,429.7,171.8,429.7,171.8z"/>
								</g>
							</g>
						</g>
						<g>
							<g>
								<g>
									<path class="st8" d="M410.5,181.1c0.1,0,0.2,0,0.2-0.1c0-0.1,0-0.2-0.1-0.2c-0.1,0-0.2,0-0.2,0.1
										C410.4,181,410.4,181.1,410.5,181.1z"/>
								</g>
							</g>
						</g>
						<g>
							<g>
								<g>
									<path class="st8" d="M407.5,180.2c0.1,0,0.2,0,0.2-0.2c0-0.1,0-0.2-0.1-0.3c-0.1,0-0.2,0-0.2,0.2
										C407.3,180,407.4,180.2,407.5,180.2z"/>
								</g>
							</g>
						</g>
						<g>
							<g>
								<g>
									<path class="st8" d="M405.4,180c0.1,0,0.2-0.1,0.2-0.3c0-0.2,0-0.3-0.1-0.3c-0.1,0-0.2,0.1-0.2,0.3
										C405.3,179.8,405.3,180,405.4,180z"/>
								</g>
							</g>
						</g>
						<g>
							<g>
								<g>
									<path class="st8" d="M408.9,182.9c0.1,0,0.2,0,0.2-0.1c0-0.1-0.1-0.1-0.2-0.1s-0.2,0-0.2,0.1
										C408.7,182.8,408.8,182.9,408.9,182.9z"/>
								</g>
							</g>
						</g>
						<g>
							<g>
								<g>
									<path class="st8" d="M406.1,182.1c0.1,0,0.2-0.1,0.2-0.2c0-0.1,0-0.2-0.1-0.2c-0.1,0-0.2,0.1-0.2,0.2
										C405.9,181.9,406,182,406.1,182.1z"/>
								</g>
							</g>
						</g>
						<g>
							<g>
								<g>
									<path class="st8" d="M391.6,179.3c0.1,0,0.2,0,0.2-0.1c0-0.1,0-0.2-0.1-0.2c-0.1,0-0.2,0-0.2,0.1
										C391.4,179.2,391.5,179.3,391.6,179.3z"/>
								</g>
							</g>
						</g>
						<g>
							<g>
								<g>
									<path class="st8" d="M389.5,179c0.1,0,0.2-0.1,0.2-0.2c0-0.1,0-0.2-0.1-0.3c-0.1,0-0.2,0.1-0.2,0.2
										C389.3,178.8,389.4,178.9,389.5,179z"/>
								</g>
							</g>
						</g>
						<g>
							<g>
								<g>
									<path class="st8" d="M393.4,179.5c0.1,0,0.2,0,0.2-0.1c0-0.1,0-0.2-0.1-0.2s-0.2,0-0.2,0.1
										C393.3,179.4,393.3,179.5,393.4,179.5z"/>
								</g>
							</g>
						</g>
						<g>
							<g>
								<g>
									<path class="st8" d="M391.7,181.5c0.1,0,0.2,0,0.3-0.1c0.1-0.1,0-0.2-0.1-0.3c-0.1,0-0.2,0-0.3,0.1
										C391.6,181.3,391.6,181.4,391.7,181.5z"/>
								</g>
							</g>
						</g>
						<g>
							<g>
								<g>
									<path class="st8" d="M389.9,181c0.1,0,0.2-0.1,0.1-0.2c0-0.1-0.1-0.1-0.2-0.1c-0.1,0-0.2,0.1-0.1,0.2
										C389.8,181,389.9,181,389.9,181z"/>
								</g>
							</g>
						</g>
						<g>
							<g>
								<g>
									<path class="st4" d="M426.3,190.5c-0.1,0,0.3,0.6,0.1,1.6c-0.1,0.5-0.4,1.1-0.9,1.4c-0.5,0.4-1.3,0.6-2,0.4
										c-0.7-0.2-1.2-0.9-1.3-1.5c-0.1-0.6,0.2-1.2,0.4-1.6c0.5-0.9,1.2-1.1,1.1-1.2c0-0.1-0.7,0.1-1.3,1
										c-0.3,0.4-0.6,1.1-0.5,1.8c0.1,0.7,0.7,1.5,1.5,1.8c0.8,0.3,1.7,0,2.3-0.5c0.6-0.5,0.9-1.1,0.9-1.7c0.1-0.5,0-1-0.1-1.3
										C426.5,190.6,426.4,190.4,426.3,190.5z"/>
								</g>
							</g>
						</g>
						<g>
							<g>
								<g>
									<path class="st4" d="M426.4,189.2c0,0-0.3,0.1-0.4,0.5c-0.1,0.2-0.1,0.5,0,0.7c0.1,0.3,0.3,0.5,0.6,0.6
										c0.3,0.1,0.7,0,0.9-0.2c0.2-0.2,0.3-0.5,0.3-0.7c0-0.4-0.3-0.6-0.3-0.5c0,0,0.1,0.2,0.1,0.5c0,0.2-0.1,0.3-0.3,0.4
										c-0.2,0.1-0.4,0.2-0.6,0.1c-0.2-0.1-0.4-0.2-0.4-0.4c-0.1-0.2-0.1-0.4,0-0.5C426.3,189.5,426.5,189.3,426.4,189.2z"/>
								</g>
							</g>
						</g>
					</g>
				</g>
			</g>
		</g>
	</g>
</g>
<g id="Character_2">
	<g>
		<g>
			<g>
				<g>
					<g>
						<g>
							<path class="st6" d="M256.2,434.5l3.2,25.7l8.4,19.6c0.6,1.4-0.1,3-1.6,3.6l0,0c-0.8,0.3-1.7,0.2-2.4-0.3
								c-4.5-3.2-20.8-15-21-16.9c-0.1-2.2-6-30.4-6-30.4L256.2,434.5z"/>
						</g>
						<g class="st11">
							<path class="st5" d="M266.2,483.4l-23.6-19l0.2,1.1c0.1,0.9,0.6,1.8,1.3,2.4c1.9,1.7,7.3,6.2,19.7,15.1
								C264.4,483.6,265.3,483.7,266.2,483.4L266.2,483.4z"/>
						</g>
						<g class="st11">
							<g>
								<path class="st5" d="M246.6,455.4c0.7,0.4,1.1,1.3,0.7,2c-0.3,0.7-1.3,1.1-2,0.8c-0.7-0.3-1.2-1.5-0.8-2.1
									c0.4-0.7,1.5-1.1,2.2-0.6"/>
							</g>
						</g>
						<g>
							<g>
								<path class="st4" d="M258.7,473c0.2,0,0.5-1.4,2-2.3c1.4-1,2.9-0.8,2.9-1c0-0.1-0.3-0.2-1-0.2c-0.6,0-1.5,0.2-2.2,0.7
									c-0.8,0.5-1.3,1.3-1.5,1.8C258.6,472.6,258.6,473,258.7,473z"/>
							</g>
						</g>
						<g>
							<g>
								<path class="st4" d="M261,476.2c0.1,0.1,0.8-0.9,2.1-1.4c1.3-0.6,2.4-0.5,2.5-0.7c0.1-0.1-1.3-0.5-2.7,0.2
									C261.4,474.9,260.9,476.2,261,476.2z"/>
							</g>
						</g>
						<g>
							<g>
								<path class="st4" d="M254.6,469.1c0.1,0.1,1.2-1.4,3.1-2.4c1.9-1.1,3.7-1.3,3.7-1.4c0-0.1-1.9-0.2-4,0.9
									C255.4,467.3,254.5,469.1,254.6,469.1z"/>
							</g>
						</g>
						<g>
							<g>
								<path class="st4" d="M253,461.4c0.1,0.1,1.4-0.7,3.3-1c1.8-0.4,3.4-0.1,3.4-0.3c0.1-0.1-1.5-0.7-3.5-0.3
									C254.2,460.2,252.9,461.3,253,461.4z"/>
							</g>
						</g>
						<g>
							<g>
								<path class="st4" d="M251.9,453.8c0.1,0.1,1.4-0.9,3.4-1.1c2-0.2,3.5,0.5,3.5,0.4c0-0.1-0.3-0.3-0.9-0.6
									c-0.6-0.3-1.6-0.4-2.7-0.3c-1.1,0.1-2,0.5-2.5,0.9C252.1,453.4,251.8,453.8,251.9,453.8z"/>
							</g>
						</g>
						<g>
							<g>
								<path class="st4" d="M255,451.3c0,0,0-0.4-0.1-1c-0.1-0.6-0.5-1.5-1.1-2.4c-0.3-0.4-0.7-1-1.5-1.2c-0.4-0.1-0.9,0-1.2,0.4
									c-0.3,0.4-0.3,0.8-0.2,1.2c0.3,1.6,1.9,3,3.8,3c1.9-0.1,3.4-1.4,3.9-2.9c0.1-0.4,0.2-0.9-0.1-1.3c-0.3-0.4-0.8-0.5-1.2-0.4
									c-0.7,0.2-1.2,0.7-1.6,1.1c-0.8,0.8-1.2,1.7-1.5,2.2c-0.2,0.6-0.3,0.9-0.3,0.9c0.1,0.1,0.5-1.4,2-2.9
									c0.4-0.4,0.8-0.8,1.4-0.9c0.3-0.1,0.5,0,0.6,0.2c0.1,0.2,0.1,0.5,0,0.8c-0.4,1.2-1.8,2.4-3.4,2.5c-1.6,0-3-1.2-3.2-2.5
									c0-0.3,0-0.6,0.1-0.9c0.1-0.2,0.4-0.3,0.6-0.2c0.5,0.1,0.9,0.6,1.3,1C254.8,449.9,254.9,451.3,255,451.3z"/>
							</g>
						</g>
					</g>
					<g class="st9">
						<polygon points="239.5,450.8 258,448.9 257.5,444.6 238.6,446.5 						"/>
					</g>
				</g>
				<path class="st4" d="M236.5,248l0.1,0.3l-32.3,2c0,0-9.8,38.8-2.8,54.1c7,15.2,24.5,77.5,24.5,77.5l12.4,66.2l21.9-3l-2.7-32.4
					c2.3-5.5,13.5-33,14.9-37.6c1.5-5.1,4.4-59.4,4.6-79.2c0.3-22.5,0.8-50.9,0.8-50.9L236.5,248z"/>
				<g>
					<path class="st10" d="M249,277.2c0,0,0,0.1,0.1,0.3c0,0.3,0.1,0.6,0.1,1c0.1,0.9,0.2,2.2,0.4,3.9c0.3,3.4,0.8,8.3,1.4,14.3
						c1.1,12.1,2.9,28.8,4.4,47.2c0.8,9.2,1.3,18,1.7,26.1c0.4,8,0.6,15.2,0.7,21.3c0.1,6.1,0.1,11,0,14.4c0,1.7-0.1,3-0.1,3.9
						c0,0.4,0,0.8,0,1c0,0.2,0,0.3,0,0.3c0,0,0-0.1,0-0.3c0-0.3,0-0.6,0-1c0-0.9,0-2.2,0-3.9c0-3.4,0-8.3-0.1-14.4
						c-0.1-6.1-0.4-13.3-0.8-21.3c-0.4-8-1-16.8-1.8-26c-1.5-18.4-3.2-35.1-4.3-47.2c-0.5-6-0.9-10.9-1.2-14.3
						c-0.1-1.7-0.2-3-0.3-3.9c0-0.4,0-0.8-0.1-1C249,277.4,249,277.2,249,277.2z"/>
				</g>
			</g>
			<g>
				<path class="st10" d="M249,277.1c0,0.1-1.7-0.2-3.7-0.8c-2-0.6-3.6-1.2-3.6-1.3c0-0.1,1.7,0.2,3.7,0.8
					C247.4,276.4,249,277,249,277.1z"/>
			</g>
			<g>
				<path class="st10" d="M249.7,266.9c-0.1,0-0.8-4.2-1.6-9.5c-0.7-5.3-1.2-9.6-1-9.6c0.1,0,0.8,4.2,1.6,9.5
					C249.4,262.6,249.8,266.9,249.7,266.9z"/>
			</g>
			<g>
				<path class="st10" d="M249.7,249.1c-0.1,0,0.4-0.5,1.3-0.2c0.4,0.1,0.9,0.6,1,1.2c0.1,0.6-0.2,1.3-0.8,1.7
					c-0.7,0.3-1.4,0.1-1.9-0.4c-0.4-0.5-0.4-1.2-0.2-1.5c0.2-0.4,0.5-0.6,0.8-0.7c0.2-0.1,0.4,0,0.4,0c0,0.1-0.5,0.1-0.8,0.8
					c-0.1,0.3-0.1,0.8,0.2,1.1c0.3,0.3,0.8,0.5,1.3,0.3c0.4-0.2,0.6-0.7,0.6-1.2c0-0.4-0.3-0.8-0.6-0.9
					C250.2,248.9,249.7,249.1,249.7,249.1z"/>
			</g>
		</g>
		<g>
			<polygon class="st12" points="225.1,149 252.3,146.9 262.9,154.5 256.3,217.2 265,248 216.2,248 209.9,191.4 			"/>
			<g>
				<path class="st6" d="M227.9,156.1l0.4-10.9h-3.7l-3,4.9l-9.9,4.2c-0.9,0.9-9.9,5.1-14,9.8c-4.2,4.8-25.4,61.7-23.9,68.9
					c1.1,5.4,13.1,15.1,20.1,20l-0.1,1c0,0-0.1,0.8-0.1,2c0,2.6,0.2,7.3,1.6,10.1c2.1,4.2,11,19.7,11,19.7l24.5,16.4
					c0,0,6-20.6,6.9-28.9c0.9-8.4,0-87.7,0-87.7S228.8,161.5,227.9,156.1z"/>
				<path class="st6" d="M308.4,220c0,0-13.5-38.2-17.8-50.2c-4.3-11.9-11.6-13-11.6-13l-15.6-6.5l-1.4-4.3h-10.3
					c0,0,5.5,5.3,6.1,9.2c0.6,3.9-6.3,23-6.3,23s-2.4,40.6,0,51.6c2.4,11,23.6,60.6,23.6,60.6s3.9-3.6,6.2-10.1
					c2.3-6.6,2.5-18.2,0-31c-0.2-1.3-0.5-2.6-0.7-3.8c0.5,0.2,1,0.4,1.5,0.5c9.8,2.3,13.1,4.6,23-3.9
					C314.8,233.5,308.4,220,308.4,220z"/>
			</g>
			<g>
				<path class="st4" d="M221.5,158.7c0,0.1-1.3,0.4-3.5,1.1c-2.1,0.7-5,1.8-8.1,3.3c-3.1,1.5-5.7,3.1-7.6,4.3c-1.9,1.2-3,2.1-3,2
					c0,0,0.2-0.3,0.7-0.7c0.5-0.4,1.2-1,2.1-1.6c1.8-1.3,4.5-3,7.6-4.5c3.1-1.5,6.1-2.5,8.2-3.2c1.1-0.3,2-0.5,2.6-0.6
					C221.2,158.7,221.5,158.6,221.5,158.7z"/>
			</g>
			<g>
				<path class="st4" d="M280.3,166.8c0,0.1-0.9-0.5-2.2-1.5c-1.3-0.9-3.2-2.2-5.4-3.4c-2.2-1.2-4.2-2.1-5.8-2.8
					c-1.5-0.6-2.5-1-2.4-1.1c0-0.1,1,0.2,2.6,0.7c1.6,0.6,3.7,1.5,5.9,2.7c2.2,1.2,4.1,2.5,5.4,3.5
					C279.6,166,280.3,166.7,280.3,166.8z"/>
			</g>
			<g>
				<path class="st4" d="M223.9,247.2c0,0,0,0.4,0,1.1c0,0.3-0.1,0.8-0.2,1.3c-0.1,0.5-0.2,1-0.4,1.6c-0.2,0.6-0.4,1.3-0.7,1.9
					c-0.3,0.7-0.6,1.4-1,2.1c-0.8,1.4-1.9,2.9-3.3,4.2c-1.4,1.3-2.9,2.4-4.3,3.2c-0.7,0.4-1.4,0.7-2.1,1c-0.7,0.3-1.3,0.5-1.9,0.6
					c-0.6,0.2-1.2,0.3-1.6,0.4c-0.5,0.1-0.9,0.1-1.3,0.1c-0.7,0-1.1,0-1.1,0c0-0.1,1.5-0.1,3.9-0.9c0.6-0.2,1.2-0.4,1.9-0.7
					c0.7-0.3,1.3-0.6,2.1-1c1.4-0.8,2.8-1.9,4.2-3.2c1.3-1.3,2.4-2.7,3.2-4.1c0.4-0.7,0.8-1.4,1.1-2c0.3-0.6,0.5-1.3,0.7-1.9
					C223.7,248.7,223.8,247.1,223.9,247.2z"/>
			</g>
			<g>
				<path class="st4" d="M200.5,179.3c-0.1,0-0.9-2.9-1.6-6.4c-0.8-3.6-1.3-6.5-1.1-6.6c0.1,0,0.9,2.9,1.6,6.4
					C200.2,176.3,200.7,179.3,200.5,179.3z"/>
			</g>
			<g>
				<path class="st4" d="M285,164.9c0.1,0.1-1.9,2.2-3.7,5.3c-1.7,3.1-2.4,5.9-2.6,5.9c-0.1,0,0-0.7,0.3-1.9
					c0.3-1.1,0.9-2.7,1.8-4.3c0.9-1.6,1.9-2.9,2.7-3.7C284.4,165.3,284.9,164.8,285,164.9z"/>
			</g>
			<g>
				<path class="st4" d="M300.7,220.3c0,0-0.4-0.4-1-1.1c-0.3-0.4-0.7-0.8-1.2-1.3c-0.5-0.5-1-1.1-1.6-1.7c-1.2-1.2-2.8-2.6-4.6-4
					c-1.8-1.4-3.9-2.8-6.2-4.2c-2.3-1.3-4.6-2.4-6.7-3.3c-2.1-0.9-4.1-1.5-5.7-2c-0.8-0.3-1.6-0.4-2.3-0.6c-0.7-0.2-1.2-0.3-1.7-0.4
					c-0.9-0.2-1.5-0.3-1.5-0.4c0,0,0.5,0,1.5,0.2c0.5,0.1,1.1,0.2,1.7,0.3c0.7,0.1,1.5,0.3,2.3,0.5c1.7,0.4,3.7,1.1,5.8,1.9
					c2.1,0.9,4.4,1.9,6.8,3.3c2.3,1.3,4.4,2.8,6.2,4.2c1.8,1.4,3.3,2.8,4.5,4.1c0.6,0.6,1.1,1.2,1.6,1.7c0.5,0.5,0.8,1,1.1,1.4
					C300.4,219.8,300.7,220.2,300.7,220.3z"/>
			</g>
			<g>
				<path class="st4" d="M277.3,184c0.1,0,0.8,4.6,1.5,10.3c0.7,5.7,1.1,10.3,0.9,10.3c-0.1,0-0.8-4.6-1.5-10.3
					C277.6,188.7,277.2,184.1,277.3,184z"/>
			</g>
			<g>
				<path class="st4" d="M280.6,245.4c0,0-0.5-0.2-1.2-0.7c-0.8-0.5-1.9-1.3-3.2-2.4c-1.3-1.1-2.7-2.5-4-4.3c-1.3-1.8-2.4-4-3.3-6.4
					c-0.4-1.2-0.8-2.4-1.1-3.6c-0.3-1.2-0.4-2.3-0.6-3.4c-0.4-2.1-1.2-4-2.3-5.1c-1.1-1.2-2.3-1.8-3.1-2.2c-0.8-0.4-1.3-0.6-1.3-0.6
					c0,0,0.5,0.1,1.4,0.4c0.9,0.4,2.1,0.9,3.3,2.2c1.2,1.2,2.1,3.1,2.5,5.3c0.2,1.1,0.4,2.2,0.7,3.4c0.3,1.1,0.6,2.3,1.1,3.5
					c0.8,2.4,1.9,4.5,3.2,6.3c1.2,1.8,2.6,3.2,3.9,4.3c1.2,1.1,2.3,1.9,3,2.5C280.2,245.1,280.6,245.4,280.6,245.4z"/>
			</g>
			<path class="st7" d="M211.8,245.2c0,0-10.9,4.7-7.3,10.4c2.4,3.9,7.5,7.5,7.5,7.5c5.1-2.9,8.6-6,11.1-11.6L211.8,245.2z"/>
			<g>
				<path class="st4" d="M193.9,253c0,0,0.7,0.5,2.1,1.2c1.4,0.6,3.6,1.4,6.5,1.6l-0.2,0.1c0.3-1.9,1.2-4.1,2.8-6
					c1.6-1.9,3.8-3.6,6.5-4.9l0,0c0.6-0.4,1.2-0.9,1.6-1.6c0.4-0.7,0.8-1.4,0.6-2.2c-0.1-0.8-0.6-1.5-1.2-2.1
					c-0.6-0.6-1.2-1.2-1.9-1.7l0,0l0,0c-1-1.2-2-2.5-2.8-3.9c-0.8-1.4-1.6-2.9-2.7-4.2c-0.4-0.6-0.9-1.1-1.3-1.7
					c-0.5-0.6-0.9-1.1-1.3-1.7c-0.8-1.2-1.6-2.3-2.3-3.5l0-0.1l0-0.1c-0.2-2.5-0.3-5-0.2-7.3c0.1-2.3,0.3-4.6,0.4-6.7
					c0.3-4.2,0.5-8,0.7-11.2c0.2-3.1,0.4-5.6,0.5-7.4c0.1-0.8,0.1-1.5,0.2-2c0-0.5,0.1-0.7,0.1-0.7c0,0,0,0.2,0,0.7
					c0,0.5,0,1.2-0.1,2c-0.1,1.8-0.2,4.3-0.3,7.4c-0.2,3.2-0.4,7-0.6,11.2c-0.1,2.1-0.2,4.4-0.4,6.7c-0.1,2.3,0.1,4.8,0.2,7.3l0-0.1
					c0.7,1.1,1.5,2.3,2.3,3.4c0.4,0.6,0.8,1.2,1.2,1.7c0.4,0.5,0.9,1.1,1.4,1.7c1,1.3,1.9,2.8,2.7,4.2c0.8,1.4,1.8,2.7,2.8,3.8l0,0
					c0.7,0.6,1.4,1.1,2,1.8c0.6,0.7,1.1,1.4,1.3,2.4c0.1,0.5,0,1-0.2,1.4c-0.1,0.4-0.3,0.8-0.6,1.2c-0.5,0.7-1,1.3-1.8,1.8l0,0l0,0
					c-2.6,1.2-4.8,2.9-6.3,4.7c-1.6,1.9-2.5,3.9-2.8,5.8l0,0.1l-0.1,0c-2.9-0.2-5.1-1-6.6-1.8c-0.7-0.4-1.2-0.7-1.6-0.9
					C194.1,253.2,193.9,253,193.9,253z"/>
			</g>
			<g>
				<path class="st4" d="M200.5,222.8c0,0.1-0.7-0.1-1.8-0.1c-1.1,0-2.7,0.1-4.2,0.7c-1.6,0.6-2.9,1.5-3.7,2.3
					c-0.8,0.8-1.2,1.3-1.3,1.3c0,0,0.3-0.7,1.1-1.5c0.8-0.9,2.1-1.9,3.7-2.5c1.7-0.6,3.3-0.7,4.5-0.6
					C199.9,222.5,200.5,222.7,200.5,222.8z"/>
			</g>
			<g>
				<path class="st4" d="M235.2,233.5c0,0-0.1-0.3-0.3-0.8c-0.2-0.6-0.4-1.4-0.7-2.5c-0.6-2.1-1.3-5.2-2.2-9.1
					c-0.8-3.9-1.8-8.5-2.3-13.7c-0.6-5.2-0.8-11,0-17c0.3-3,1.3-5.9,0.7-8.6c-0.6-2.7-2.7-4.7-4.1-6.9c-2.9-4.4-4.3-9-4.9-13
					c-0.6-3.9-0.3-7.2,0-9.4c0.2-1.1,0.4-1.9,0.5-2.5c0.1-0.6,0.2-0.9,0.2-0.9c0,0,0,0.3-0.1,0.9c-0.1,0.6-0.3,1.4-0.4,2.5
					c-0.3,2.2-0.5,5.4,0.1,9.3c0.6,3.9,2,8.4,4.9,12.7c0.7,1.1,1.5,2.1,2.3,3.3c0.8,1.1,1.5,2.4,1.8,3.8c0.6,2.9-0.4,5.9-0.7,8.8
					c-0.8,6-0.6,11.7,0,16.9c0.5,5.2,1.4,9.8,2.2,13.7c0.8,3.9,1.5,7,2,9.1c0.2,1,0.4,1.9,0.6,2.5
					C235.2,233.2,235.3,233.5,235.2,233.5z"/>
			</g>
			<g>
				<path class="st4" d="M261.9,146c0,0,0.1,0.1,0.2,0.4c0.1,0.3,0.3,0.6,0.4,1.1c0.3,1,0.7,2.5,1,4.4c0.2,1.9,0.4,4.1,0.1,6.6
					c-0.2,2.5-0.9,5.3-2.3,7.8c-1.4,2.5-3,4.8-3.5,7.2c-0.5,2.4,0.1,4.6,0.2,6.5c0.1,1.9-0.2,3.5-0.8,4.4c-0.3,0.5-0.5,0.8-0.7,1
					c-0.2,0.2-0.3,0.3-0.3,0.3c0,0,0.4-0.4,0.9-1.4c0.4-0.9,0.7-2.4,0.6-4.3c-0.1-0.9-0.2-1.9-0.3-3.1c-0.1-1.1-0.2-2.3,0.1-3.6
					c0.5-2.5,2.1-4.9,3.5-7.4c1.5-2.5,2.1-5.1,2.3-7.6c0.3-2.5,0.2-4.7,0-6.6c-0.2-1.9-0.5-3.3-0.8-4.4
					C262.1,146.6,261.9,146,261.9,146z"/>
			</g>
			<g>
				<path class="st4" d="M232.6,295.8c0,0-0.2,0-0.5-0.2c-0.4-0.2-0.8-0.3-1.4-0.6c-1.2-0.5-2.9-1.3-5-2.2c-4.2-2-10-4.8-15.7-9
					c-5.7-4.2-10-9.3-12.3-13.3c-1.2-2-1.9-3.8-2.4-5c-0.2-0.6-0.4-1.1-0.5-1.4c-0.1-0.3-0.1-0.5-0.1-0.5c0,0,0.3,0.7,0.8,1.9
					c0.5,1.2,1.3,2.9,2.5,4.9c2.4,4,6.6,8.9,12.2,13.1c5.7,4.2,11.4,7.1,15.6,9.1c2,1,3.7,1.8,4.9,2.4c0.5,0.3,1,0.5,1.3,0.7
					C232.4,295.7,232.6,295.8,232.6,295.8z"/>
			</g>
			<g>
				<path class="st4" d="M282.7,261.1c0,0,0,0.4,0,1c0,0.7-0.1,1.6-0.2,2.8c-0.3,2.4-0.9,5.6-2.2,9c-1.3,3.4-3,6.2-4.5,8.1
					c-0.7,0.9-1.3,1.7-1.8,2.1c-0.5,0.5-0.7,0.7-0.8,0.7c-0.1-0.1,0.9-1.1,2.3-3.1c1.4-1.9,3-4.7,4.3-8.1c1.3-3.3,2-6.5,2.3-8.8
					C282.6,262.5,282.6,261.1,282.7,261.1z"/>
			</g>
			<g>
				<path class="st4" d="M231.9,264.4c0,0.1-0.8,0.2-1.3,1.2c-0.2,0.5-0.4,1.2-0.1,1.8c0.3,0.6,1,1,1.8,1c0.8,0,1.5-0.5,1.7-1.2
					c0.2-0.6,0-1.3-0.3-1.8c-0.6-1-1.4-1-1.4-1.1c0,0,0.2-0.1,0.5,0c0.3,0.1,0.8,0.3,1.2,0.8c0.4,0.5,0.7,1.3,0.4,2.1
					c-0.2,0.9-1.2,1.5-2.2,1.5c-1,0.1-2-0.5-2.3-1.3c-0.3-0.8-0.1-1.6,0.2-2.2c0.3-0.5,0.8-0.8,1.1-0.9
					C231.7,264.3,231.9,264.4,231.9,264.4z"/>
			</g>
			<g>
				<path class="st4" d="M233.6,249.9c0,0.1-0.8,0.2-1.3,1.2c-0.2,0.5-0.4,1.2-0.1,1.8c0.3,0.6,1,1,1.8,1c0.8,0,1.5-0.5,1.7-1.2
					c0.2-0.6,0-1.3-0.3-1.8c-0.6-1-1.4-1-1.4-1.1c0,0,0.2-0.1,0.5,0c0.3,0.1,0.8,0.3,1.2,0.8c0.4,0.5,0.7,1.3,0.4,2.1
					c-0.2,0.9-1.2,1.5-2.2,1.5c-1,0.1-2-0.5-2.3-1.3c-0.3-0.8-0.1-1.6,0.2-2.2c0.3-0.5,0.8-0.8,1.1-0.9
					C233.4,249.9,233.6,249.9,233.6,249.9z"/>
			</g>
			<g class="st9">
				<path d="M199.7,221.8c0.1,0.1,0.3,0.2,0.4,0.2c-2.3-1.7-5.4-2.4-8.2-1.7c-2.8,0.7-5.3,2.6-6.7,5.2c-0.5,1-0.8,2.3,0,3
					c0.6,0.6,1.6,0.6,2.3,0.2c0.7-0.4,1.3-1,1.9-1.6c3-2.8,7-4.4,11.1-4.5"/>
			</g>
			<g class="st9">
				<path d="M224.2,170.3c0.6,5.8,3.5,10.3,2.9,15.8c-0.6,5.5-2.6,10.8-3.2,16.3c-0.8,7,0.7,14.1,3.3,20.7
					c2.6,6.6,6.4,11.4,10.2,17.3c-4.8-15.3-8.3-30.3-7.6-45.8c0.2-3.9,1.7-8.7,1-12.6C229.8,176.8,225.9,174.6,224.2,170.3"/>
			</g>
			<g class="st9">
				<path d="M250.5,216.6c0.1,2.1,2.7,4.4,4.8,4.4c2.1,0,4.4-0.4,6.2,0.7c2.5,1.4,2.8,4.7,3.2,7.5c0.9,6.5,3.7,13.2,9.2,16.9
					c1,0.7,2.2,1.3,3.5,1.3c1.3,0,2.6-0.8,2.9-2c0,0-2.9-2.5-4.6-3.6c-3.6-2.3-5.2-6.9-6.4-11c-0.9-2.9-1.4-6-2.8-8.7
					C263.9,216.7,260,216,250.5,216.6"/>
			</g>
		</g>
		<g>
			<g>
				<path class="st4" d="M238.6,85.3c0,0-5.6-1.5-9.9,0c-4.3,1.5-17,24.3-20.8,27.1c-3.8,2.8-6.1,8.6-2.8,13.7
					c3.3,5.1,7.6,3.6,6.6,7.9c-1,4.3-2,9.6,3.8,9.6c5.8,0,12.9-1.8,13.7-3.6c0.8-1.8,25.4,5.6,29.2,5.1c3.8-0.5,9.6-3.7,9.4-6.2
					c-0.3-2.5,11.7-2.5,10.7-10.3c0,0,2.9-8.1,0.1-11.2c0,0,8.6-11.9-2.3-12.7c-10.9-0.8-10-11.6-17.2-18.3
					C256.1,84,245.4,77,238.6,85.3z"/>
				<g>
					<g>
						<g>
							<g>
								<g>
									<g>
										<g>
											<g>
												<g>
													<g>
														<g>
															<path class="st7" d="M226,105.8c-0.3-10.2,8.1-18.6,18.5-18.5c9.9,0.1,17.9,8.1,18.4,17.8c0.4,8.5,0.7,17.1,0.3,20.1
																c-1.1,9.2-6.9,12.3-9.3,13.1c-0.5,0.2-2,0.3-2.5,0.4l0,0c0,0-0.1,0-0.1,0.1l1,10.8c0.2,7.1-7.2,8.2-10.9,8.7
																c-5.6,0.8-12.9-1.2-13.2-8.2L226,105.8z"/>
														</g>
													</g>
												</g>
												<g>
													<g>
														<g>
															<g>
																<g>
																	<g>
																		<g>
																			<path class="st4" d="M258.5,111.3c0.1,0.8-0.6,1.5-1.4,1.6c-0.8,0.1-1.5-0.5-1.6-1.3c-0.1-0.8,0.6-1.5,1.4-1.6
																				C257.7,109.9,258.4,110.5,258.5,111.3z"/>
																		</g>
																	</g>
																</g>
															</g>
														</g>
													</g>
													<g>
														<g>
															<g>
																<g>
																	<g>
																		<g>
																			<g>
																				<path class="st4" d="M260.4,107.3c-0.2,0.2-1.4-0.6-3-0.5c-1.6,0-2.8,0.9-3,0.7c-0.1-0.1,0.1-0.4,0.6-0.8
																					c0.5-0.4,1.3-0.8,2.4-0.8c1,0,1.9,0.3,2.4,0.6C260.3,106.9,260.5,107.2,260.4,107.3z"/>
																			</g>
																		</g>
																	</g>
																</g>
															</g>
														</g>
													</g>
												</g>
												<g>
													<g>
														<g>
															<g>
																<g>
																	<g>
																		<g>
																			<path class="st4" d="M243,111.7c0.1,0.8-0.6,1.5-1.4,1.6c-0.8,0.1-1.5-0.5-1.6-1.3s0.6-1.5,1.4-1.6
																				C242.2,110.3,242.9,110.9,243,111.7z"/>
																		</g>
																	</g>
																</g>
															</g>
														</g>
													</g>
													<g>
														<g>
															<g>
																<g>
																	<g>
																		<g>
																			<g>
																				<path class="st4" d="M244.6,108.3c-0.2,0.2-1.4-0.6-3-0.5c-1.6,0-2.8,0.9-3,0.7c-0.1-0.1,0.1-0.4,0.6-0.8
																					c0.5-0.4,1.3-0.8,2.4-0.8c1,0,1.9,0.3,2.4,0.6C244.5,107.8,244.6,108.2,244.6,108.3z"/>
																			</g>
																		</g>
																	</g>
																</g>
															</g>
														</g>
													</g>
												</g>
												<g>
													<g>
														<g>
															<g>
																<g>
																	<g>
																		<g>
																			<path class="st4" d="M251,119.8c0-0.1,1-0.3,2.6-0.6c0.4-0.1,0.8-0.2,0.9-0.4c0.1-0.3-0.1-0.7-0.3-1.2
																				c-0.4-1-0.9-2-1.4-3c-1.9-4.3-3.3-7.9-3.1-8c0.2-0.1,1.9,3.4,3.8,7.7c0.5,1.1,0.9,2.1,1.3,3.1
																				c0.2,0.5,0.5,1,0.3,1.6c-0.1,0.3-0.4,0.5-0.7,0.6c-0.3,0.1-0.5,0.1-0.7,0.1C252,119.9,251,119.9,251,119.8z"/>
																		</g>
																	</g>
																</g>
															</g>
														</g>
													</g>
												</g>
												<g>
													<g>
														<g>
															<g>
																<g>
																	<g>
																		<path class="st8" d="M251.3,138.7c0,0-6.2,0.8-14.3-3.5c0,0,2.8,8,14.5,6.4L251.3,138.7z"/>
																	</g>
																</g>
															</g>
														</g>
													</g>
												</g>
												<g>
													<g>
														<g>
															<g>
																<g>
																	<g>
																		<path class="st8" d="M250.5,123.7c-0.6-0.7-1.7-1.1-2.7-1c-0.7,0.1-1.4,0.5-1.8,1c-0.4,0.6-0.5,1.4,0,1.9
																			c0.5,0.6,1.4,0.7,2.1,0.4c0.8-0.2,1.4-0.8,2-1.3c0.2-0.1,0.3-0.3,0.4-0.5C250.7,124.1,250.7,123.9,250.5,123.7"/>
																	</g>
																</g>
															</g>
														</g>
													</g>
												</g>
												<g>
													<g>
														<g>
															<g>
																<g>
																	<g>
																		<g>
																			<path class="st4" d="M246.3,121.1c0.3,0,0.3,1.7,1.9,2.9c1.6,1.2,3.4,0.9,3.4,1.1c0,0.1-0.4,0.4-1.2,0.4
																				c-0.8,0.1-1.9-0.1-2.9-0.9c-1-0.7-1.4-1.7-1.5-2.4C246,121.6,246.1,121.1,246.3,121.1z"/>
																		</g>
																	</g>
																</g>
															</g>
														</g>
													</g>
												</g>
											</g>
										</g>
									</g>
									<g>
										<g>
											<g>
												<g>
													<g>
														<g>
															<path class="st4" d="M245.2,105.5c-0.1,0.4-1.8,0.3-3.7,0.6c-1.9,0.3-3.4,0.9-3.7,0.5c-0.1-0.2,0.1-0.6,0.7-1
																c0.6-0.4,1.6-0.9,2.7-1.1c1.1-0.2,2.2,0,2.9,0.2C244.8,104.9,245.2,105.3,245.2,105.5z"/>
														</g>
													</g>
												</g>
											</g>
										</g>
									</g>
									<g>
										<g>
											<g>
												<g>
													<g>
														<g>
															<path class="st4" d="M259.7,104.1c-0.3,0.4-1.4,0-2.7,0.1c-1.3,0-2.5,0.3-2.7,0c-0.1-0.2,0-0.5,0.5-0.9
																c0.5-0.4,1.3-0.7,2.2-0.7c0.9,0,1.7,0.3,2.2,0.6C259.6,103.6,259.8,103.9,259.7,104.1z"/>
														</g>
													</g>
												</g>
											</g>
										</g>
									</g>
								</g>
							</g>
						</g>
					</g>
				</g>
				<g>
					<path class="st4" d="M232,88.5c-4.1,2.9-6.8,7.6-7.5,12.6l-4.5,2.6l4.9,38.1l-0.6,0.8c2.8,0.2,6.4-2.3,8.4-4.3
						c2-2,3-4.9,2.8-7.7c-0.3-3.9-3-7.7-2.1-11.5c0.6-2.5,2.7-4.5,3.3-7c0.5-1.9,0.1-3.8-0.6-5.6c2.4-1.8,4.4-4,6-6.5
						c-0.3,0.9-0.5,1.7-0.8,2.6c7.1-1.3,13.1-6.8,14.9-13.6C249.8,83.1,239,83.6,232,88.5z"/>
					<path class="st4" d="M256.3,88.6c0,0.1-0.1,0.2-0.1,0.3c0,0,0,0,0.1,0.1L256.3,88.6z"/>
				</g>
			</g>
			<g>
				<path class="st10" d="M203.9,120.5c0,0,0.2-0.1,0.6-0.2c0.5-0.1,1-0.3,1.8-0.5c0.8-0.2,1.7-0.6,2.8-0.9c1.1-0.4,2.3-0.9,3.6-1.5
					c5.2-2.3,12-6.6,17.7-13.2c3.1-3.5,5.5-7.3,7.2-10.8l0.3-0.7l0.1,0.8c0.1,0.7,0.2,1.5,0.3,2.2l-0.3-0.2c4.2-2.5,6.4-6.2,7.5-8.8
					c1.1-2.6,1.2-4.3,1.3-4.3c0,0,0,0.1,0,0.3c0,0.2,0,0.5-0.1,0.9c-0.1,0.8-0.4,1.9-0.9,3.2c-1,2.7-3.2,6.4-7.5,9.1l-0.3,0.2l0-0.3
					c-0.1-0.7-0.2-1.4-0.3-2.2l0.4,0.1c-1.7,3.6-4.2,7.4-7.2,10.9c-5.8,6.7-12.7,11-18,13.2c-1.3,0.6-2.5,1-3.6,1.4
					c-1.1,0.3-2,0.6-2.8,0.8c-0.7,0.2-1.3,0.3-1.8,0.4C204.1,120.5,203.9,120.5,203.9,120.5z"/>
			</g>
			<g>
				<path class="st10" d="M244.1,100.8c-0.1-0.1,0.7-0.8,1.9-2.2c1.1-1.4,2.6-3.4,3.8-5.8c1.2-2.4,2-4.8,2.4-6.6
					c0.4-1.7,0.6-2.9,0.7-2.8c0,0,0,0.3,0,0.8c0,0.5-0.1,1.2-0.3,2.1c-0.3,1.8-1.1,4.2-2.3,6.7c-1.3,2.5-2.8,4.5-4,5.9
					c-0.6,0.7-1.1,1.2-1.5,1.5C244.4,100.7,244.1,100.8,244.1,100.8z"/>
			</g>
		</g>
		<g>
			<g>
				<g>
					<g>
						<g>
							<path class="st7" d="M266,204.6c-0.7-1.9-1.1-3.9-1.1-6c0-1.2,0-2.5-0.4-3.7c-0.4-1.2-1.7-2.2-2.9-1.9l-0.4,9L266,204.6z"/>
						</g>
					</g>
				</g>
				<g>
					<g>
						<g>
							<g>
								<path class="st4" d="M261.9,183.8l-1.5,31.1c0,0.7-0.5,1.2-1.2,1.3l-15.8,1.6c-0.8,0.1-1.5-0.6-1.5-1.4l0.5-30.1
									c0-0.7,0.5-1.2,1.1-1.3l16.7-2.7C261.2,182.3,262,183,261.9,183.8z"/>
							</g>
						</g>
					</g>
					<g>
						<g>
							<g>
								<path class="st12" d="M251,190.2c0.1-0.4,0.5-0.9,1.1-0.8c0.2,0,0.8,0.3,0.9,0.7c0.1,0.4-0.1,0.9-0.4,1.1
									c-0.3,0.3-0.8,0.3-1.2,0.1C251,191.1,250.8,190.6,251,190.2z"/>
							</g>
						</g>
					</g>
				</g>
				<g>
					<g>
						<g>
							<path class="st7" d="M255,196.2c0.4,0,9.1,2.9,9.1,2.9l4.9,3.8c0,0,1.9,2.3,1.3,6.5c-0.6,4.2-2.4,5.9-6.8,7.8l-8.9,0l-5-2.9
								c-1-0.6-1.5-1.7-1.3-2.8l0-0.2l-0.6-0.8c-0.4-0.5-0.5-1.1-0.2-1.7l0,0c0.4-0.8,1.3-1,2.1-0.7l5.6,2.8l3.5-0.1l0.3-1.2
								l-5.4-1.8l-7.2-3.9c-0.9-0.5-1.3-1.7-0.7-2.6l0,0c0.5-0.8,1.5-1.1,2.3-0.8l6.5,2.5l6.6,1.8l-1.4-2.3l-8.1-4.2
								C251.5,198.2,250.5,195.8,255,196.2z"/>
						</g>
					</g>
				</g>
			</g>
			<g>
				<path class="st8" d="M269,202.8c-0.1,0.1-2.3-1.5-5.1-3.5l0.1,0c-0.1,0-0.2-0.1-0.3-0.1c-3.4-1.1-6.2-2.1-6.1-2.3
					c0-0.1,2.9,0.7,6.3,1.8c0.1,0,0.2,0.1,0.3,0.1l0,0l0,0C267,201,269.1,202.7,269,202.8z"/>
			</g>
			<g>
				<path class="st8" d="M260.9,214c0,0.1-0.7,0.4-1.8,0.7c-1.1,0.3-3,0.7-4.8,0c-0.9-0.3-1.7-0.8-2.4-1.2c-0.7-0.4-1.3-0.7-1.9-1
					c-1.1-0.6-1.7-1-1.7-1.1c0-0.1,0.7,0.2,1.8,0.8c0.6,0.3,1.2,0.6,1.9,0.9c0.7,0.4,1.5,0.8,2.3,1.1c1.7,0.7,3.4,0.4,4.5,0.1
					C260.2,214.1,260.9,213.9,260.9,214z"/>
			</g>
		</g>
	</g>
</g>
<g id="Character_1">
	<g>
		<g>
			<path class="st4" d="M180.4,181.2c-0.1,0.1-9.4-5.5-20.8-12.6c-11.4-7.1-20.6-12.9-20.5-13c0.1-0.1,9.4,5.5,20.8,12.6
				C171.3,175.2,180.5,181,180.4,181.2z"/>
		</g>
		<g>
			<circle class="st5" cx="96" cy="124.6" r="53.3"/>
			<path class="st4" d="M103.6,91.1c-2.5-2.7-6.1-4.4-9.8-4.4c-3.7,0-7.4,1.5-9.9,4.2c-2.5,2.6-4,6.2-7.2,7.8
				c-3.1,1.6-7.1,0.9-9.8,3c-4.8,3.8-1.3,12.6-5.6,16.9c-2.4,2.4-6.8,2.9-7.7,6.1c-1,3.3,2.8,6.5,2.5,9.9c-0.2,2.1-1.8,3.7-2.7,5.6
				c-1.5,3.5,0.1,7.9,3.5,9.7c1.1,0.6,2.4,0.9,3.4,1.7c2.2,1.8,2,5,3,7.6c1.4,3.3,5.2,5.5,8.7,4.9c1.1-0.2,2.3-0.6,3.4-0.4
				c2.8,0.5,3.8,4.6,6.6,5.1c1.8,0.3,3.5-1.1,4.6-2.6c1.1-1.5,2-3.2,3.7-4.1c2-1.1,4.5-0.6,6.8-0.2c2,0.4,4.1,0.6,6.1,0.2
				c2-0.4,3.9-1.6,4.8-3.4c0.8-1.6,0.8-3.6,2-4.9c1.2-1.2,3.2-1.4,4.8-1c1.7,0.4,3.3,1.1,5,1.3c2.6,0.4,5.4-0.6,7.3-2.5
				c1.9-1.9,2.8-4.7,2.4-7.3c-0.2-1.3-0.7-2.6-0.3-3.8c0.5-1.7,2.3-2.6,3.6-3.8c3.4-3.1,3.4-9.2,0-12.3c-1.3-1.1-3-2.1-3.3-3.7
				c-0.4-2.2,2-4,1.9-6.2c0-2.4-2.7-3.8-5.1-4.4c-2.3-0.6-5.1-1.4-5.9-3.7c-0.4-1.2-0.2-2.5-0.5-3.6c-0.5-1.7-2.1-2.8-3.7-3.5
				c-1.6-0.7-2.6-1.5-4-2.5c-2.1-1.4-2.9-4.6-4.8-6.4c-1.9-1.7-5-1.4-6.9,0.1"/>
			<path class="st6" d="M62.6,165.8c0,0,4.3-16,23.1-18.9c18.7-2.9,20.2-3.4,20.2-3.4s22.8-4.2,28.3,18.2c0,0-8.2,11.5-30.8,15.6
				C80.6,181.5,62.6,165.8,62.6,165.8z"/>
			<g>
				<g>
					<g>
						<g>
							<g>
								<g>
									<g>
										<g>
											<g>
												<g>
													<g>
														<g>
															<path class="st13" d="M79.6,110c-0.9-9.3,6.1-17.5,15.7-18.2c9-0.6,16.9,6.2,18,15c1,7.7,1.8,15.5,1.7,18.4
																c-0.3,8.5-5.5,11.7-7.6,12.6c-0.5,0.2-1.8,0.4-2.3,0.5l0,0c0,0-0.1,0,0,0.1l1.7,9.8c0.7,6.4-3.1,12-9.6,12.8
																c-6.6,0.8-11.5-4.3-12.4-10.7L79.6,110z"/>
														</g>
													</g>
												</g>
												<g>
													<g>
														<g>
															<g>
																<g>
																	<g>
																		<g>
																			<path class="st4" d="M111.2,111.9c0.1,0.7-0.4,1.4-1.2,1.5c-0.7,0.1-1.4-0.3-1.6-1c-0.1-0.7,0.4-1.4,1.2-1.5
																				C110.4,110.7,111.1,111.2,111.2,111.9z"/>
																		</g>
																	</g>
																</g>
															</g>
														</g>
													</g>
													<g>
														<g>
															<g>
																<g>
																	<g>
																		<g>
																			<g>
																				<path class="st4" d="M111.2,109.4c-0.1,0.2-1.3-0.4-2.8-0.3c-1.5,0.2-2.5,1-2.6,0.9c-0.1-0.1,0-0.4,0.5-0.8
																					c0.4-0.4,1.2-0.8,2.1-0.9c0.9-0.1,1.7,0.1,2.2,0.4C111.1,109,111.3,109.3,111.2,109.4z"/>
																			</g>
																		</g>
																	</g>
																</g>
															</g>
														</g>
													</g>
												</g>
												<g>
													<g>
														<g>
															<g>
																<g>
																	<g>
																		<g>
																			<path class="st4" d="M96.8,114c0.1,0.7-0.4,1.4-1.2,1.5c-0.7,0.1-1.4-0.3-1.6-1c-0.1-0.7,0.4-1.4,1.2-1.5
																				C96,112.9,96.7,113.3,96.8,114z"/>
																		</g>
																	</g>
																</g>
															</g>
														</g>
													</g>
													<g>
														<g>
															<g>
																<g>
																	<g>
																		<g>
																			<g>
																				<path class="st4" d="M96.7,111.5c-0.1,0.2-1.3-0.4-2.8-0.3c-1.5,0.2-2.5,1-2.6,0.9c-0.1-0.1,0-0.4,0.5-0.8
																					c0.4-0.4,1.2-0.8,2.1-0.9c0.9-0.1,1.7,0.1,2.2,0.4C96.6,111.1,96.8,111.4,96.7,111.5z"/>
																			</g>
																		</g>
																	</g>
																</g>
															</g>
														</g>
													</g>
												</g>
												<g>
													<g>
														<g>
															<g>
																<g>
																	<g>
																		<g>
																			<path class="st4" d="M103.4,121.2c0-0.1,0.9-0.3,2.3-0.7c0.4-0.1,0.7-0.2,0.8-0.5c0.1-0.3-0.1-0.7-0.4-1.1
																				c-0.5-0.9-0.9-1.7-1.5-2.7c-2-3.8-3.6-7-3.4-7.1c0.2-0.1,1.9,3,4,6.8c0.5,0.9,1,1.8,1.4,2.7
																				c0.2,0.4,0.5,0.9,0.4,1.4c-0.1,0.3-0.3,0.5-0.6,0.6c-0.2,0.1-0.4,0.1-0.6,0.2
																				C104.3,121.1,103.4,121.2,103.4,121.2z"/>
																		</g>
																	</g>
																</g>
															</g>
														</g>
													</g>
												</g>
												<g>
													<g>
														<g>
															<g>
																<g>
																	<g>
																		<path class="st14" d="M105,138.3c0,0-5.6,1.1-13.3-2.3c0,0,3.1,7.1,13.7,4.9L105,138.3z"/>
																	</g>
																</g>
															</g>
														</g>
													</g>
												</g>
											</g>
										</g>
									</g>
									<g>
										<g>
											<g>
												<g>
													<g>
														<g>
															<path class="st4" d="M97.1,108.4c-0.1,0.4-1.6,0.4-3.3,0.8c-1.7,0.4-3,1-3.3,0.7c-0.1-0.2,0.1-0.6,0.6-1
																c0.5-0.4,1.4-0.9,2.4-1.1c1-0.2,2-0.2,2.7,0C96.8,108,97.1,108.2,97.1,108.4z"/>
														</g>
													</g>
												</g>
											</g>
										</g>
									</g>
									<g>
										<g>
											<g>
												<g>
													<g>
														<g>
															<path class="st4" d="M110.3,106.2c-0.2,0.4-1.3,0.1-2.5,0.3c-1.2,0.1-2.2,0.5-2.5,0.2c-0.1-0.2,0-0.5,0.4-0.9
																c0.4-0.4,1.1-0.7,2-0.8c0.8-0.1,1.6,0.1,2.1,0.4C110.2,105.7,110.4,106,110.3,106.2z"/>
														</g>
													</g>
												</g>
											</g>
										</g>
									</g>
								</g>
							</g>
						</g>
					</g>
				</g>
				<g>
					<g>
						<g>
							<path class="st4" d="M106.1,92.3c-1.1,6.5-6.3,12.1-12.8,13.8c0.2-0.8,0.4-1.6,0.6-2.4c-3,5.4-8.1,9.6-14,11.6
								c-3.9-6.9-2.1-16.3,4-21.3c6.1-5,16-6.2,22.2-1.3"/>
						</g>
					</g>
				</g>
			</g>
			<g>
				<g>
					<g>
						<path class="st4" d="M86.5,111c-1.5,2.7-0.9,5.9,0.1,8.8c0.9,2.9,2.2,5.8,1.8,8.8c-0.3,2.8-2,5.3-2.3,8.1
							c-0.6,4.7,2.5,9,3.7,13.6c1.5,5.9-0.3,12.5-4.8,16.9c-0.5,0.5-1,0.9-1.7,0.9c-0.8,0-1.3-0.7-1.5-1.4c-0.1-0.7,0-1.4,0.1-2.1
							c0.8-6.7-6-12.3-6.8-19.1c-0.5-4.4,1.5-8.6,1.9-13c0.5-5.5-1.6-10.9-2.1-16.5c-0.2-1.9-0.2-3.8,0.5-5.6
							c0.7-1.8,2.2-3.4,4.1-3.8c2-0.4,4.3,0.6,4.8,2.4"/>
					</g>
				</g>
			</g>
			<g>
				<path class="st4" d="M149.3,124.6c0,0,0-0.3-0.1-0.9c0-0.6-0.1-1.4-0.2-2.5c0-0.6-0.1-1.2-0.1-1.9c-0.1-0.7-0.2-1.4-0.3-2.2
					c-0.1-0.8-0.3-1.7-0.4-2.6c-0.1-0.5-0.2-0.9-0.3-1.4c-0.1-0.5-0.3-1-0.4-1.5c-0.9-4.1-2.9-9-5.9-14.1
					c-3.1-5.1-7.5-10.5-13.5-15.1c-0.8-0.6-1.5-1.1-2.3-1.7c-0.8-0.5-1.7-1-2.5-1.5c-0.9-0.5-1.7-1.1-2.6-1.5
					c-0.9-0.4-1.8-0.9-2.8-1.3c-0.5-0.2-0.9-0.5-1.4-0.7c-0.5-0.2-1-0.4-1.5-0.5c-1-0.4-2-0.7-3-1.1c-1-0.3-2.1-0.6-3.1-0.8
					c-1.1-0.2-2.1-0.6-3.2-0.7c-2.2-0.3-4.4-0.8-6.7-0.8c-1.1,0-2.3-0.2-3.5-0.1c-1.2,0.1-2.3,0.1-3.5,0.2c-0.6,0-1.2,0-1.8,0.1
					c-0.6,0.1-1.2,0.2-1.8,0.3c-1.2,0.2-2.4,0.3-3.6,0.6c-2.3,0.6-4.8,1.1-7.1,2.1c-0.6,0.2-1.2,0.4-1.8,0.6
					c-0.3,0.1-0.6,0.2-0.9,0.3l-0.9,0.4c-1.1,0.5-2.3,1.1-3.4,1.7c-1.1,0.6-2.2,1.3-3.3,2c-0.5,0.3-1.1,0.6-1.6,1L64.6,82
					c-2.2,1.5-4,3.3-6,5.1c-0.9,1-1.8,2-2.7,3l-0.7,0.7l-0.6,0.8l-1.2,1.6l-1.2,1.6l-1.1,1.7L50,98.4l-0.5,0.9
					c-0.2,0.3-0.3,0.6-0.5,0.9c-0.6,1.2-1.2,2.5-1.8,3.7c-0.5,1.3-1,2.6-1.4,3.9c-1.7,5.3-2.7,11-2.7,16.7c0.1,5.8,1,11.4,2.7,16.7
					c0.5,1.3,1,2.6,1.4,3.9c0.6,1.3,1.2,2.5,1.8,3.7l0.5,0.9l0.5,0.9l1.1,1.8l1.1,1.7l1.2,1.6l1.2,1.6l0.6,0.8l0.7,0.7
					c0.9,1,1.8,2,2.7,3c2,1.8,3.9,3.6,6,5.1l1.6,1.2c0.5,0.4,1.1,0.7,1.6,1c1.1,0.7,2.2,1.4,3.3,2c1.1,0.6,2.3,1.1,3.4,1.7l0.9,0.4
					c0.3,0.1,0.6,0.2,0.9,0.3c0.6,0.2,1.2,0.4,1.8,0.6c2.3,1,4.7,1.4,7.1,2.1c1.2,0.2,2.4,0.4,3.6,0.6c0.6,0.1,1.2,0.2,1.8,0.3
					c0.6,0.1,1.2,0.1,1.8,0.1c1.2,0.1,2.3,0.1,3.5,0.2c1.2,0,2.3-0.1,3.5-0.1c2.3,0,4.5-0.5,6.7-0.8c1.1-0.1,2.1-0.5,3.2-0.7
					c1.1-0.3,2.1-0.5,3.1-0.8c1-0.4,2-0.7,3-1.1c0.5-0.2,1-0.4,1.5-0.5c0.5-0.2,0.9-0.4,1.4-0.7c0.9-0.4,1.8-0.9,2.8-1.3
					c0.9-0.4,1.7-1,2.6-1.5c0.8-0.5,1.7-1,2.5-1.5c0.8-0.6,1.5-1.1,2.3-1.7c6-4.6,10.4-9.9,13.5-15.1c3-5.2,5-10,5.9-14.1
					c0.1-0.5,0.3-1,0.4-1.5c0.1-0.5,0.2-1,0.3-1.4c0.1-0.9,0.3-1.8,0.4-2.6c0.1-0.8,0.3-1.5,0.3-2.2c0-0.7,0.1-1.3,0.1-1.9
					c0.1-1.1,0.1-1.9,0.2-2.5C149.3,124.9,149.3,124.6,149.3,124.6s0,0.3,0,0.9c0,0.6-0.1,1.4-0.1,2.5c0,0.6-0.1,1.2-0.1,1.9
					c-0.1,0.7-0.2,1.4-0.3,2.2c-0.1,0.8-0.2,1.7-0.4,2.6c-0.1,0.5-0.2,0.9-0.3,1.4c-0.1,0.5-0.2,1-0.4,1.5c-0.9,4.1-2.8,9-5.8,14.2
					c-3.1,5.2-7.5,10.6-13.5,15.2c-0.8,0.6-1.5,1.1-2.3,1.7c-0.8,0.5-1.7,1-2.5,1.5c-0.9,0.5-1.7,1.1-2.6,1.5
					c-0.9,0.4-1.8,0.9-2.8,1.3c-0.5,0.2-0.9,0.4-1.4,0.7c-0.5,0.2-1,0.4-1.5,0.5c-1,0.4-2,0.7-3,1.1c-1,0.3-2.1,0.6-3.1,0.9
					c-1.1,0.2-2.1,0.6-3.2,0.7c-2.2,0.3-4.4,0.8-6.8,0.8c-1.2,0-2.3,0.2-3.5,0.1c-1.2-0.1-2.4-0.1-3.5-0.2c-0.6,0-1.2,0-1.8-0.1
					c-0.6-0.1-1.2-0.2-1.8-0.3c-1.2-0.2-2.4-0.3-3.6-0.6c-2.4-0.6-4.8-1.1-7.1-2.1c-0.6-0.2-1.2-0.4-1.8-0.6
					c-0.3-0.1-0.6-0.2-0.9-0.3l-0.9-0.4c-1.1-0.6-2.3-1.1-3.5-1.7c-1.1-0.6-2.2-1.3-3.3-2c-0.5-0.4-1.1-0.6-1.7-1l-1.6-1.2
					c-2.2-1.5-4.1-3.4-6.1-5.2c-0.9-1-1.8-2-2.7-3l-0.7-0.8l-0.6-0.8l-1.2-1.6l-1.2-1.6l-1.1-1.8l-1.1-1.8l-0.5-0.9l-0.5-0.9
					c-0.6-1.3-1.2-2.5-1.8-3.8c-0.5-1.3-1-2.6-1.5-4c-1.7-5.4-2.7-11.1-2.8-16.9c0.1-5.8,1-11.5,2.8-16.9c0.5-1.3,1-2.6,1.5-4
					c0.6-1.3,1.2-2.5,1.8-3.8c0.2-0.3,0.3-0.6,0.5-0.9l0.5-0.9l1.1-1.8l1.1-1.8l1.2-1.6l1.2-1.6l0.6-0.8l0.7-0.8c0.9-1,1.8-2,2.7-3
					c2-1.8,3.9-3.7,6.1-5.2l1.6-1.2c0.5-0.4,1.1-0.7,1.7-1c1.1-0.7,2.2-1.4,3.3-2c1.2-0.6,2.3-1.1,3.5-1.7l0.9-0.4
					c0.3-0.1,0.6-0.2,0.9-0.3c0.6-0.2,1.2-0.4,1.8-0.6c2.3-1,4.8-1.4,7.1-2.1c1.2-0.2,2.4-0.4,3.6-0.6c0.6-0.1,1.2-0.2,1.8-0.3
					c0.6-0.1,1.2-0.1,1.8-0.1c1.2-0.1,2.4-0.1,3.5-0.2c1.2,0,2.3,0.1,3.5,0.1c2.3,0,4.6,0.5,6.8,0.8c1.1,0.1,2.2,0.5,3.2,0.7
					c1.1,0.3,2.1,0.5,3.1,0.9c1,0.4,2,0.7,3,1.1c0.5,0.2,1,0.4,1.5,0.5c0.5,0.2,0.9,0.5,1.4,0.7c0.9,0.5,1.9,0.9,2.8,1.3
					c0.9,0.4,1.7,1,2.6,1.5c0.8,0.5,1.7,1,2.5,1.5c0.8,0.6,1.5,1.2,2.3,1.7c6,4.6,10.5,10,13.5,15.2c3,5.2,4.9,10.1,5.8,14.2
					c0.1,0.5,0.3,1,0.4,1.5c0.1,0.5,0.2,1,0.3,1.4c0.1,0.9,0.3,1.8,0.4,2.6c0.1,0.8,0.2,1.6,0.3,2.2c0,0.7,0.1,1.3,0.1,1.9
					c0,1.1,0.1,1.9,0.1,2.5C149.3,124.3,149.3,124.6,149.3,124.6z"/>
			</g>
			<path class="st14" d="M103.8,124.4c-0.9-0.1-1.7-0.1-2.6-0.1c-0.3,0-0.7,0-1,0.2c-0.4,0.2-0.6,0.7-0.7,1.2
				c-0.1,1.3,0.8,2.6,2,2.9c1.2,0.3,2.6-0.5,3.1-1.7"/>
			<g>
				<path class="st4" d="M103.9,127.9c0,0-0.4,0.6-1.5,0.8c-0.6,0.1-1.2-0.2-1.8-0.5c-0.3-0.2-0.6-0.4-0.8-0.8
					c-0.2-0.4-0.3-0.8-0.3-1.2c0-0.4,0-0.8,0.1-1.2c0-0.2,0.1-0.4,0.3-0.6c0.2-0.1,0.3-0.1,0.4-0.1l0.3,0c0.7,0,1.3,0,1.8,0
					c1,0,1.6,0,1.6,0.1c0,0.1-0.6,0.2-1.6,0.3c-0.6,0-1.2,0.1-1.8,0.1l-0.2,0l-0.1,0c0,0,0,0,0,0c0,0,0-0.1,0-0.1l0,0
					c0,0.1-0.1-0.2,0.1,0.1l0,0l0,0l0,0c0,0-0.1,0.2-0.1,0.3c-0.1,0.3-0.1,0.7-0.1,1c0,0.4,0.1,0.7,0.2,1c0.1,0.3,0.4,0.5,0.6,0.6
					c0.5,0.3,1.1,0.5,1.5,0.5C103.4,128.2,103.9,127.8,103.9,127.9z"/>
			</g>
		</g>
	</g>
</g>
</svg>
